<?xml version="1.0" standalone="no"?>
<!DOCTYPE svg PUBLIC "-//W3C//DTD SVG 1.1//EN" "http://www.w3.org/Graphics/SVG/1.1/DTD/svg11.dtd" >
<svg>
<metadata>
Created by FontForge 20090914 at Tue Nov  1 03:08:48 2016
 By www-data
Copyright (c) 2009 by Kris Sowersby/Klim Type Foundry. All rights reserved.
</metadata>
<defs>
<font id="CopyrightKlimTypeFoundry-NotLicensedforDesktopUse" horiz-adv-x="500" >
  <font-face 
    font-family="Copyright Klim Type Foundry"
    font-weight="600"
    font-stretch="normal"
    units-per-em="1000"
    panose-1="0 0 0 0 0 0 0 0 0 0"
    ascent="770"
    descent="-230"
    x-height="545.999"
    cap-height="702"
    bbox="-151 -246 1360 957.001"
    underline-thickness="30"
    underline-position="-90"
    unicode-range="U+000D-U+FB04"
  />
<missing-glyph horiz-adv-x="197" 
 />
    <glyph glyph-name="fi" unicode="fi" horiz-adv-x="703" 
d="M38 0v60.999c10.667 1.33301 20.167 3 28.5 5s15 4.83301 20 8.5s8.83301 9 11.5 16s4 16.167 4 27.5v357h-76v57l76 19v8c0 36.667 7.5 68.334 22.5 95.001s34.667 48.5 59 65.5s52.166 29.5 83.499 37.5s63.333 12 96 12c56 0 99 -7.83301 129 -23.5s45 -38.5 45 -68.5
c0 -15.333 -3.33301 -28 -10 -38s-14.667 -18.333 -24 -25h-102v36c0 19.333 -4 34.833 -12 46.5s-21.667 17.5 -41 17.5c-21.333 0 -39.833 -10 -55.5 -30s-23.5 -49 -23.5 -87v-51h270l37 13h36v-441c0 -11.333 1.16699 -20.5 3.5 -27.5s6.16602 -12.333 11.499 -16
s12 -6.5 20 -8.5s17.667 -3.66699 29 -5v-61h-293v61c11.333 1.33301 20.833 3 28.5 5s13.834 4.83301 18.501 8.5s8 9 10 16s3 16.167 3 27.5v357h-172v-357c0 -11.333 1 -20.5 3 -27.5s5.33301 -12.333 10 -16s10.834 -6.5 18.501 -8.5s17.167 -3.66699 28.5 -5v-61h-293z
" />
    <glyph glyph-name="fl" unicode="fl" horiz-adv-x="702" 
d="M102 475l-76.0029 -0.000976562v57l76 19v9c0 38 6.66699 70.167 20 96.5s30.5 47.833 51.5 64.5s44.667 28.834 71 36.501s52.5 11.5 78.5 11.5c28 0 55.5 -3.33301 82.5 -10s50.167 -15.334 69.5 -26.001l106 28h31v-643c0 -11.333 1.33301 -20.5 4 -27.5
s6.5 -12.333 11.5 -16s11.5 -6.5 19.5 -8.5s17.667 -3.66699 29 -5v-61h-293v61c11.333 1.33301 20.833 3 28.5 5s13.834 4.83301 18.501 8.5s8 9 10 16s3 16.167 3 27.5v520c-10 20.667 -23.167 38.334 -39.5 53.001s-36.166 22 -59.499 22c-50 0 -75 -30.333 -75 -91v-76
h103v-71h-101v-357c0 -11.333 1 -20.5 3 -27.5s5.33301 -12.333 10 -16s10.834 -6.5 18.501 -8.5s17.167 -3.66699 28.5 -5v-61h-293v61c10.667 1.33301 20.167 3 28.5 5s15 4.83301 20 8.5s8.83301 9 11.5 16s4 16.167 4 27.5v357z" />
    <glyph glyph-name=".notdef" horiz-adv-x="197" 
 />
    <glyph glyph-name="NULL" horiz-adv-x="0" 
 />
    <glyph glyph-name="NULL" horiz-adv-x="0" 
 />
    <glyph glyph-name="nonmarkingreturn" unicode="&#xd;" horiz-adv-x="197" 
 />
    <glyph glyph-name="space" unicode=" " horiz-adv-x="197" 
 />
    <glyph glyph-name="exclam" unicode="!" horiz-adv-x="327" 
d="M67 88c0 14 2.5 27 7.5 39s12 22.5 21 31.5s19.167 16 30.5 21s23.666 7.5 36.999 7.5c27.333 0 50.166 -9.5 68.499 -28.5s27.5 -42.5 27.5 -70.5c0 -26.667 -9.16699 -49.5 -27.5 -68.5s-41.166 -28.5 -68.499 -28.5c-13.333 0 -25.666 2.5 -36.999 7.5
s-21.5 12 -30.5 21s-16 19.333 -21 31s-7.5 24.167 -7.5 37.5zM203 233h-79l-56 469h191z" />
    <glyph glyph-name="quotedbl" unicode="&#x22;" horiz-adv-x="452" 
d="M104 452l-39.999 147c-4.66699 15.333 -9.33398 31.833 -14.001 49.5s-7 31.834 -7 42.501c0 21.333 6.5 39.5 19.5 54.5s32.167 22.5 57.5 22.5s44.5 -7.5 57.5 -22.5s19.5 -33.167 19.5 -54.5c0 -10.667 -2.33301 -24.834 -7 -42.501l-13 -49.5l-40 -147h-33z
M315.001 452l-39.999 147l-13.5 49.5c-5 17.667 -7.5 31.834 -7.5 42.501c0 21.333 6.5 39.5 19.5 54.5s32.167 22.5 57.5 22.5s44.666 -7.5 57.999 -22.5s20 -33.167 20 -54.5c0 -10.667 -2.5 -24.834 -7.5 -42.501l-13.5 -49.5l-40 -147h-33z" />
    <glyph glyph-name="numbersign" unicode="#" horiz-adv-x="588" 
d="M381 209l-70 -219l-68 24l62 195h-113l-70 -219l-68 24l62 195h-70v68h92l47 149h-104v67h126l70 219l68 -24l-63 -195h114l70 219l68 -24l-63 -195h71v-67h-92l-48 -149h105v-68h-126zM213 277h114l47 149h-113z" />
    <glyph glyph-name="dollar" unicode="$" horiz-adv-x="562" 
d="M195 -4c-32 4.66699 -60.6641 11.8301 -85.9971 21.4971s-46 21.167 -62 34.5l-10 156h80c10.667 -73.333 40.667 -121.333 90 -144l33 188l-21 7c-56.667 18 -100 42.333 -130 73s-45 72.334 -45 125.001c0 32 5.83301 60.833 17.5 86.5s27.834 47.5 48.501 65.5
s45.5 31.833 74.5 41.5s61.167 14.5 96.5 14.5c5.33301 0 10.666 -0.166992 15.999 -0.5s10.666 -0.5 15.999 -0.5l17 97h53l-19 -104c26 -4.66699 49.667 -11.167 71 -19.5s39.666 -18.166 54.999 -29.499v-141h-68c-4.66699 27.333 -12.5 51.333 -23.5 72
s-26.5 37 -46.5 49l-32 -180l31 -10c25.333 -8 48.666 -17.833 69.999 -29.5s39.666 -25.5 54.999 -41.5s27.333 -34.5 36 -55.5s13 -45.5 13 -73.5c0 -35.333 -6.66699 -66.166 -20 -92.499s-31.5 -48 -54.5 -65s-50.167 -29.667 -81.5 -38s-64.666 -12.5 -99.999 -12.5
h-11.5c-3.66699 0 -7.16699 0.333008 -10.5 1l-18 -104h-53zM290.003 235.996l-33 -186c4 -0.666992 8 -1 12 -1h13c32 0 58.167 7.66699 78.5 23s30.5 38 30.5 68c0 22.667 -7 41.5 -21 56.5s-39 27.833 -75 38.5zM172.003 522.996
c0 -25.333 7.16602 -45.1689 21.499 -59.502s36.166 -26.166 65.499 -35.499l11 -4l32 181c-5.33301 0.666992 -10.666 1.16699 -15.999 1.5s-10.666 0.5 -15.999 0.5c-32.667 0 -57.167 -8.16699 -73.5 -24.5s-24.5 -36.166 -24.5 -59.499z" />
    <glyph glyph-name="percent" unicode="%" horiz-adv-x="873" 
d="M148 501c0 -37.333 5 -68.166 15 -92.499s25.667 -36.5 47 -36.5s37 12.167 47 36.5s15 55.166 15 92.499c0 38 -5 69.167 -15 93.5s-25.667 36.5 -47 36.5s-37 -12.167 -47 -36.5s-15 -55.5 -15 -93.5zM30 501c0 28.667 5 53.667 15 75s23.333 39.333 40 54
s35.834 25.667 57.501 33s44.167 11 67.5 11c24 0 46.833 -3.66699 68.5 -11s40.667 -18.333 57 -33s29.5 -32.667 39.5 -54s15 -46.333 15 -75c0 -28 -5 -52.833 -15 -74.5s-23.167 -39.667 -39.5 -54s-35.333 -25.166 -57 -32.499s-44.5 -11 -68.5 -11
c-23.333 0 -45.833 3.66699 -67.5 11s-40.834 18.166 -57.501 32.499s-30 32.333 -40 54s-15 46.5 -15 74.5zM725 163c0 37.333 -5 68.166 -15 92.499s-25.667 36.5 -47 36.5s-37 -12.167 -47 -36.5s-15 -55.166 -15 -92.499c0 -38 5 -69.167 15 -93.5
s25.667 -36.5 47 -36.5s37 12.167 47 36.5s15 55.5 15 93.5zM258 -19h-73l429 702h73zM843 163c0 -28.667 -5 -53.834 -15 -75.501s-23.167 -39.667 -39.5 -54s-35.333 -25.166 -57 -32.499s-44.5 -11 -68.5 -11s-46.833 3.66699 -68.5 11s-40.667 18.166 -57 32.499
s-29.5 32.333 -39.5 54s-15 46.834 -15 75.501c0 28 5 52.833 15 74.5s23.167 39.667 39.5 54s35.333 25.166 57 32.499s44.5 11 68.5 11s46.833 -3.66699 68.5 -11s40.667 -18.166 57 -32.499s29.5 -32.333 39.5 -54s15 -46.5 15 -74.5z" />
    <glyph glyph-name="ampersand" unicode="&#x26;" horiz-adv-x="740" 
d="M16 184c0 26 4.16504 49.001 12.498 69.001s20 37.667 35 53s32.667 28.666 53 39.999s42.833 21.666 67.5 30.999l-21 28c-7.33301 10 -14 21.167 -20 33.5s-11 25.833 -15 40.5s-6 30.667 -6 48c0 28 5.16699 53.333 15.5 76s25 42 44 58s41.833 28.5 68.5 37.5
s56.667 13.5 90 13.5c62.667 0 112.334 -13.5 149.001 -40.5s55 -63.5 55 -109.5c0 -21.333 -4.5 -40.333 -13.5 -57s-21.167 -31.834 -36.5 -45.501s-33.333 -25.5 -54 -35.5s-42.334 -19 -65.001 -27l160 -189c5.33301 12.667 9.66602 25.834 12.999 39.501s5 27.5 5 41.5
c0 18 -3.5 30.667 -10.5 38s-19.167 11 -36.5 11v61h212v-61c-18 0 -32.833 -1 -44.5 -3s-21.167 -5.83301 -28.5 -11.5s-13.166 -13.167 -17.499 -22.5s-8.16602 -21 -11.499 -35c-9.33301 -37.333 -23.666 -71.666 -42.999 -102.999l42 -48c16 -18.667 31.333 -32 46 -40
s33.334 -12 56.001 -12v-63h-199c-11.333 7.33301 -22 14.833 -32 22.5s-19.333 15.5 -28 23.5c-28 -17.333 -58.333 -31 -91 -41s-66.667 -15 -102 -15s-68 4.33301 -98 13s-56.333 21.167 -79 37.5s-40.334 36.5 -53.001 60.5s-19 51.667 -19 83zM332.998 72.001
c28.667 0 56.667 5.99805 84 17.998c-8 8 -16 17.667 -24 29l-182 224c-13.333 -13.333 -23 -29.666 -29 -48.999s-9 -39.666 -9 -60.999c0 -24 3.83301 -46 11.5 -66s18.5 -37 32.5 -51s30.833 -24.833 50.5 -32.5s41.5 -11.5 65.5 -11.5zM268.998 581.999
c0 -14 2.16602 -27.333 6.49902 -40s9.83301 -25 16.5 -37s14.334 -23.5 23.001 -34.5l26 -32.5l5 -7c22 14 38 32.167 48 54.5s15 49.5 15 81.5c0 24.667 -6.16699 45 -18.5 61s-29.5 24 -51.5 24s-39.167 -6.5 -51.5 -19.5s-18.5 -29.833 -18.5 -50.5z" />
    <glyph glyph-name="quotesingle" unicode="'" horiz-adv-x="240" 
d="M104 452l-39.999 147c-4.66699 15.333 -9.33398 31.833 -14.001 49.5s-7 31.834 -7 42.501c0 21.333 6.5 39.5 19.5 54.5s32.167 22.5 57.5 22.5s44.5 -7.5 57.5 -22.5s19.5 -33.167 19.5 -54.5c0 -10.667 -2.33301 -24.834 -7 -42.501l-13 -49.5l-40 -147h-33z" />
    <glyph glyph-name="parenleft" unicode="(" horiz-adv-x="378" 
d="M60 314c0 41.333 4.66699 83.001 14 125.001s23 82.833 41 122.5s40 77.167 66 112.5s55.333 67.333 88 96h87c-32 -34 -58.333 -69.667 -79 -107s-37.167 -75.5 -49.5 -114.5s-20.833 -78.167 -25.5 -117.5s-7 -78.333 -7 -117s2.33301 -77.667 7 -117
s13.167 -78.333 25.5 -117s28.833 -76.667 49.5 -114s47 -73 79 -107h-87c-32.667 28.667 -62 60.667 -88 96s-48 72.666 -66 111.999s-31.667 80 -41 122s-14 83.667 -14 125z" />
    <glyph glyph-name="parenright" unicode=")" horiz-adv-x="378" 
d="M318 314c0 -41.333 -4.66699 -83.001 -14 -125.001s-23 -82.667 -41 -122s-40 -76.666 -66 -111.999s-55.333 -67.333 -88 -96h-87c32 34 58.333 69.667 79 107s37.167 75.333 49.5 114s20.833 77.667 25.5 117s7 78.333 7 117s-2.33301 77.667 -7 117
s-13.167 78.5 -25.5 117.5s-28.833 77.167 -49.5 114.5s-47 73 -79 107h87c32.667 -28.667 62 -60.667 88 -96s48 -72.833 66 -112.5s31.667 -80.5 41 -122.5s14 -83.667 14 -125z" />
    <glyph glyph-name="asterisk" unicode="*" horiz-adv-x="487" 
d="M265 528l31 -168h-104l29 167l-129 -110l-52 91l160 57l-160 57l52 91l130 -111l-30 168h104l-31 -167l130 110l52 -91l-160 -57l160 -57l-52 -91z" />
    <glyph glyph-name="plus" unicode="+" horiz-adv-x="596" 
d="M341 541v-184h184v-87h-184v-184h-87v184h-184v87h184v184h87z" />
    <glyph glyph-name="comma" unicode="," horiz-adv-x="301" 
d="M125 10c-20 4 -35.501 13.1719 -46.501 27.5049s-16.5 33.166 -16.5 56.499s7.83301 43.5 23.5 60.5s37.834 25.5 66.501 25.5c32 0 57.667 -10.333 77 -31s29 -50.334 29 -89.001c0 -56.667 -16.667 -102.834 -50 -138.501s-84.333 -54.834 -153 -57.501v58
c35.333 3.33301 62.833 12.166 82.5 26.499s29.5 34.833 29.5 61.5h-42z" />
    <glyph glyph-name="hyphen" unicode="-" horiz-adv-x="360" 
d="M50 251v108h260v-108h-260z" />
    <glyph glyph-name="period" unicode="." horiz-adv-x="301" 
d="M50 90c0 30 9.66699 54.333 29 73s43 28 71 28c14 0 27.167 -2.5 39.5 -7.5s23 -12 32 -21s16.167 -19.667 21.5 -32s8 -25.833 8 -40.5s-2.66699 -28 -8 -40s-12.5 -22.5 -21.5 -31.5s-19.667 -16 -32 -21s-25.5 -7.5 -39.5 -7.5c-28 0 -51.667 9.33301 -71 28
s-29 42.667 -29 72z" />
    <glyph glyph-name="slash" unicode="/" horiz-adv-x="433" 
d="M122 -125h-98l273 895h98z" />
    <glyph glyph-name="zero" unicode="0" horiz-adv-x="657" 
d="M223 303c0 -34 1.66699 -66.167 5 -96.5s9.16602 -56.833 17.499 -79.5s19.166 -40.667 32.499 -54s30 -20 50 -20s36.833 6.66699 50.5 20s24.5 31.333 32.5 54s13.833 49.167 17.5 79.5s5.5 62.5 5.5 96.5s-1.83301 66.167 -5.5 96.5s-9.5 56.833 -17.5 79.5
s-18.833 40.667 -32.5 54s-30.5 20 -50.5 20s-36.667 -6.66699 -50 -20s-24.166 -31.333 -32.499 -54s-14.166 -49.167 -17.499 -79.5s-5 -62.5 -5 -96.5zM40 303c0 46.667 6.83301 89.167 20.5 127.5s33.167 71.166 58.5 98.499s55.666 48.666 90.999 63.999
s74.666 23 117.999 23s82.833 -7.66699 118.5 -23s66 -36.666 91 -63.999s44.333 -60.166 58 -98.499s20.5 -80.833 20.5 -127.5s-6.83301 -89.167 -20.5 -127.5s-33 -71.333 -58 -99s-55.333 -49 -91 -64s-75.167 -22.5 -118.5 -22.5s-82.666 7.5 -117.999 22.5
s-65.666 36.333 -90.999 64s-44.833 60.667 -58.5 99s-20.5 80.833 -20.5 127.5z" />
    <glyph glyph-name="one" unicode="1" horiz-adv-x="441" 
d="M314 614l0.000976562 -483.999c0 -15.333 0.833008 -27.333 2.5 -36s6 -15.334 13 -20.001s17.667 -8 32 -10s33.833 -3.66699 58.5 -5v-59h-381v59c26 1.33301 46.167 3 60.5 5s25.166 5.33301 32.499 10s11.833 11.334 13.5 20.001s2.5 20.667 2.5 36v295h-111v58l35 6
c24.667 4.66699 46 10.167 64 16.5s34.167 14.166 48.5 23.499s27.833 21 40.5 35s25.667 30.667 39 50h50z" />
    <glyph glyph-name="two" unicode="2" horiz-adv-x="539" 
d="M354 131c16 0 29.4971 1.16504 40.4971 3.49805s20.833 6.16602 29.5 11.499s16.667 12.833 24 22.5s15 21.834 23 36.501h44l-23 -205h-471v52l110 106l67.5 62.5c21.667 19.667 40.667 38.834 57 57.501s29.333 37.667 39 57s14.5 40 14.5 62c0 28 -8.33301 51 -25 69
s-42 27 -76 27c-18 0 -34.5 -2.66699 -49.5 -8s-28.667 -12 -41 -20s-23.5 -17 -33.5 -27s-19 -19.667 -27 -29l-34 34c12 22.667 26.333 44.5 43 65.5s35.834 39.5 57.501 55.5s45.667 28.667 72 38s54.5 14 84.5 14c62.667 0 110.667 -15.833 144 -47.5
s50 -73.5 50 -125.5c0 -33.333 -8.16699 -63.333 -24.5 -90s-38.166 -52.167 -65.499 -76.5s-58.666 -48.166 -93.999 -71.499l-111 -74h175z" />
    <glyph glyph-name="three" unicode="3" horiz-adv-x="519" 
d="M290 297c30 -2 57.5029 -7.49902 82.5029 -16.499s46.333 -21.5 64 -37.5s31.5 -35.333 41.5 -58s15 -48.334 15 -77.001c0 -35.333 -7.66699 -66.333 -23 -93s-35.5 -49 -60.5 -67s-53.5 -31.667 -85.5 -41s-64.667 -14 -98 -14c-67.333 0 -118.5 11.167 -153.5 33.5
s-52.5 51.5 -52.5 87.5c0 17.333 4 31.333 12 42s17 18.667 27 24h85c1.33301 -42 10.166 -74.167 26.499 -96.5s41.166 -33.5 74.499 -33.5c30 0 52.667 10.333 68 31s23 48 23 82c0 48 -13.833 86.167 -41.5 114.5s-73.167 42.5 -136.5 42.5l-11 42
c54 21.333 93.167 43.833 117.5 67.5s36.5 50.167 36.5 79.5c0 25.333 -7.5 46 -22.5 62s-37.5 24 -67.5 24c-30.667 0 -56.834 -7.5 -78.501 -22.5s-41.167 -32.167 -58.5 -51.5l-35 30c10.667 22.667 23.667 44 39 64s33 37.5 53 52.5s42.5 26.833 67.5 35.5
s52.167 13 81.5 13c54.667 0 98.167 -14 130.5 -42s48.5 -64.333 48.5 -109c0 -24 -5 -45.5 -15 -64.5s-23 -35.5 -39 -49.5s-34.167 -25.5 -54.5 -34.5s-40.5 -15.5 -60.5 -19.5z" />
    <glyph glyph-name="four" unicode="4" horiz-adv-x="628" 
d="M330 152v308l-221 -308h221zM330 -96v183h-316v50l343 471h131v-456h126v-65h-126v-183h-158z" />
    <glyph glyph-name="five" unicode="5" horiz-adv-x="513" 
d="M249 -50c32 0 56.498 9.49805 73.498 28.498s25.5 44.167 25.5 75.5c0 26.667 -7.16699 49.834 -21.5 69.501s-34.166 36.5 -59.499 50.5s-55.5 25 -90.5 33s-72.833 13.667 -113.5 17l61 382h325v-155h-296l-12 -83c46.667 -3.33301 90.5 -10.5 131.5 -21.5
s76.833 -26.5 107.5 -46.5s54.834 -45.333 72.501 -76s26.5 -67 26.5 -109c0 -35.333 -6.66699 -66.666 -20 -93.999s-31.666 -50.5 -54.999 -69.5s-50.5 -33.5 -81.5 -43.5s-63.833 -15 -98.5 -15c-66.667 0 -117.334 11.167 -152.001 33.5s-52 51.5 -52 87.5
c0 17.333 4 31.333 12 42s17 18.667 27 24h85c1.33301 -42 10.333 -74.167 27 -96.5s42.667 -33.5 78 -33.5z" />
    <glyph glyph-name="six" unicode="6" horiz-adv-x="610" 
d="M498 662c-48 -8 -88.832 -20.167 -122.499 -36.5s-61.5 -36.333 -83.5 -60s-39 -50.5 -51 -80.5s-20.667 -62.333 -26 -97c18 21.333 40.667 38.333 68 51s59.333 19 96 19c26.667 0 52 -4.5 76 -13.5s44.667 -22.5 62 -40.5s31.166 -40.167 41.499 -66.5
s15.5 -56.5 15.5 -90.5c0 -42.667 -7.16699 -80 -21.5 -112s-33.333 -58.833 -57 -80.5s-51 -37.834 -82 -48.501s-63.167 -16 -96.5 -16c-40.667 0 -78 7.16699 -112 21.5s-63.167 34.666 -87.5 60.999s-43.333 58 -57 95s-20.5 78.5 -20.5 124.5c0 57.333 10 111 30 161
s48.833 93.833 86.5 131.5s83.667 67.834 138 90.501s115.833 35.334 184.5 38.001zM281.001 370c-14 0 -26.8311 -1.50195 -38.498 -4.50195s-22.167 -6.83301 -31.5 -11.5c-2 -21.333 -3 -41.666 -3 -60.999c0 -30 2.16699 -59.333 6.5 -88s11.166 -54.167 20.499 -76.5
s21.5 -40.166 36.5 -53.499s33.167 -20 54.5 -20c32 0 56.5 13.167 73.5 39.5s25.5 62.833 25.5 109.5c0 23.333 -2.83301 45 -8.5 65s-14.334 37.5 -26.001 52.5s-26.667 26.833 -45 35.5s-39.833 13 -64.5 13z" />
    <glyph glyph-name="seven" unicode="7" horiz-adv-x="518" 
d="M166 454c-23.333 0 -41.667 -6.33301 -55 -19s-26 -34.667 -38 -66h-55l44 237h454v-43l-306 -659h-118l297 550h-223z" />
    <glyph glyph-name="eight" unicode="8" horiz-adv-x="584" 
d="M515 548c0 -20 -3.5 -38.1689 -10.5 -54.502s-16.5 -30.5 -28.5 -42.5s-26 -22 -42 -30s-32.667 -14 -50 -18l18 -9c40.667 -18 74.334 -42.167 101.001 -72.5s40 -69.166 40 -116.499c0 -32.667 -5.83301 -62.334 -17.5 -89.001s-28.5 -49.334 -50.5 -68.001
s-48.667 -33 -80 -43s-66.666 -15 -105.999 -15s-74.666 4.16699 -105.999 12.5s-58 20.333 -80 36s-39 34.334 -51 56.001s-18 45.834 -18 72.501c0 21.333 3.66699 40.5 11 57.5s17.166 31.833 29.499 44.5s27 23.334 44 32.001s35.5 15.334 55.5 20.001l-9 5
c-33.333 20 -59.833 43.333 -79.5 70s-29.5 63 -29.5 109c0 30.667 5.5 58.667 16.5 84s26.667 47.166 47 65.499s44.666 32.5 72.999 42.5s60.166 15 95.499 15c70.667 0 126.167 -14.667 166.5 -44s60.5 -69.333 60.5 -120zM208 301.998c-16 -11.333 -28 -27.333 -36 -48
s-12 -43.667 -12 -69c0 -38.667 11.5 -70.167 34.5 -94.5s54.5 -36.5 94.5 -36.5c35.333 0 64.333 8.33301 87 25s34 40.667 34 72c0 24 -7.5 43.833 -22.5 59.5s-34.5 29.167 -58.5 40.5zM343 421.998c15.333 11.333 27.999 27.5 37.999 48.5s15 44.5 15 70.5
c0 32 -9.66699 57.833 -29 77.5s-45.666 29.5 -78.999 29.5c-32 0 -56.667 -8.5 -74 -25.5s-26 -38.833 -26 -65.5c0 -23.333 6.5 -42.833 19.5 -58.5s32.167 -29.167 57.5 -40.5z" />
    <glyph glyph-name="nine" unicode="9" horiz-adv-x="610" 
d="M105 -56c48 8 88.832 20.166 122.499 36.499s61.5 36.333 83.5 60s39 50.334 51 80.001s20.667 62.167 26 97.5c-18 -21.333 -40.667 -38.333 -68 -51s-59.333 -19 -96 -19c-27.333 0 -52.833 4.5 -76.5 13.5s-44.167 22.5 -61.5 40.5s-31.166 40.167 -41.499 66.5
s-15.5 56.5 -15.5 90.5c0 42.667 7.16699 80 21.5 112s33.333 58.833 57 80.5s51 37.834 82 48.501s63.167 16 96.5 16c40.667 0 78 -7.16699 112 -21.5s63.167 -34.666 87.5 -60.999s43.333 -58 57 -95s20.5 -78.5 20.5 -124.5c0 -57.333 -10 -111 -30 -161
s-48.833 -93.833 -86.5 -131.5s-83.667 -67.834 -138 -90.501s-115.833 -35.334 -184.5 -38.001zM321.999 235.999c14 0 26.832 1.50195 38.499 4.50195s22.167 6.83301 31.5 11.5c1.33301 10.667 2.16602 21.167 2.49902 31.5s0.5 20.166 0.5 29.499
c0 30 -2.16699 59.333 -6.5 88s-11.166 54.167 -20.499 76.5s-21.5 40.166 -36.5 53.499s-33.167 20 -54.5 20c-32 0 -56.5 -13.167 -73.5 -39.5s-25.5 -62.833 -25.5 -109.5c0 -23.333 2.83301 -45 8.5 -65s14.334 -37.5 26.001 -52.5s26.5 -26.833 44.5 -35.5
s39.667 -13 65 -13z" />
    <glyph glyph-name="colon" unicode=":" horiz-adv-x="301" 
d="M50 90c0 30 9.66699 54.333 29 73s43 28 71 28c14 0 27.167 -2.5 39.5 -7.5s23 -12 32 -21s16.167 -19.667 21.5 -32s8 -25.833 8 -40.5s-2.66699 -28 -8 -40s-12.5 -22.5 -21.5 -31.5s-19.667 -16 -32 -21s-25.5 -7.5 -39.5 -7.5c-28 0 -51.667 9.33301 -71 28
s-29 42.667 -29 72zM50 393c0 30 9.66699 54.333 29 73s43 28 71 28c14 0 27.167 -2.5 39.5 -7.5s23 -12 32 -21s16.167 -19.667 21.5 -32s8 -25.833 8 -40.5s-2.66699 -28 -8 -40s-12.5 -22.5 -21.5 -31.5s-19.667 -16 -32 -21s-25.5 -7.5 -39.5 -7.5
c-28 0 -51.667 9.33301 -71 28s-29 42.667 -29 72z" />
    <glyph glyph-name="semicolon" unicode=";" horiz-adv-x="301" 
d="M50 393c0 30 9.66699 54.333 29 73s43 28 71 28c14 0 27.167 -2.5 39.5 -7.5s23 -12 32 -21s16.167 -19.667 21.5 -32s8 -25.833 8 -40.5s-2.66699 -28 -8 -40s-12.5 -22.5 -21.5 -31.5s-19.667 -16 -32 -21s-25.5 -7.5 -39.5 -7.5c-28 0 -51.667 9.33301 -71 28
s-29 42.667 -29 72zM125 10c-20 4 -35.501 13.1719 -46.501 27.5049s-16.5 33.166 -16.5 56.499s7.83301 43.5 23.5 60.5s37.834 25.5 66.501 25.5c32 0 57.667 -10.333 77 -31s29 -50.334 29 -89.001c0 -56.667 -16.667 -102.834 -50 -138.501
s-84.333 -54.834 -153 -57.501v58c35.333 3.33301 62.833 12.166 82.5 26.499s29.5 34.833 29.5 61.5h-42z" />
    <glyph glyph-name="less" unicode="&#x3c;" horiz-adv-x="453" 
d="M51 316l332 205v-101l-186 -108l186 -110v-101l-332 205v10z" />
    <glyph glyph-name="equal" unicode="=" horiz-adv-x="607" 
d="M76 274h456v-83h-456v83zM76 437h456v-82h-456v82z" />
    <glyph glyph-name="greater" unicode="&#x3e;" horiz-adv-x="453" 
d="M402 306l-332 -205v101l185 110l-185 108v101l332 -205v-10z" />
    <glyph glyph-name="question" unicode="?" horiz-adv-x="472" 
d="M307 577c0 23.333 -6.33105 40.834 -18.998 52.501s-29.334 17.5 -50.001 17.5c-26.667 0 -45.334 -8.16699 -56.001 -24.5s-16 -36.5 -16 -60.5v-50h-104c-12.667 7.33301 -21.834 16.333 -27.501 27s-8.5 22.667 -8.5 36c0 20 5 38.333 15 55s24.167 31 42.5 43
s40.5 21.333 66.5 28s55.333 10 88 10c68 0 120.833 -13.667 158.5 -41s56.5 -69.333 56.5 -126c0 -40.667 -10 -74.5 -30 -101.5s-49 -51.833 -87 -74.5c-16.667 -9.33301 -30.167 -18.5 -40.5 -27.5s-18.5 -17.833 -24.5 -26.5s-10.167 -17.667 -12.5 -27
s-3.5 -19.333 -3.5 -30v-27h-49c-14 9.33301 -26.667 22.666 -38 39.999s-17 37.333 -17 60c0 23.333 5 45 15 65s26.667 39.333 50 58l34 27.5c10.667 9 20.334 18.333 29.001 28s15.5 20 20.5 31s7.5 23.5 7.5 37.5zM134.002 88.001c0 14 2.5 27 7.5 39
s11.667 22.5 20 31.5s18.333 16 30 21s24.167 7.5 37.5 7.5c27.333 0 50.166 -9.5 68.499 -28.5s27.5 -42.5 27.5 -70.5c0 -26.667 -9.16699 -49.5 -27.5 -68.5s-41.166 -28.5 -68.499 -28.5c-26.667 0 -49.167 9.5 -67.5 28.5s-27.5 41.833 -27.5 68.5z" />
    <glyph glyph-name="at" unicode="@" horiz-adv-x="904" 
d="M606 77c-24.667 0 -44.666 4.33105 -59.999 12.998s-26.833 20.334 -34.5 35.001s-12 31.667 -13 51s0.833008 39.333 5.5 60h-5c-9.33301 -20.667 -20 -40.5 -32 -59.5s-25.333 -35.833 -40 -50.5s-30.167 -26.5 -46.5 -35.5s-33.833 -13.5 -52.5 -13.5
c-30 0 -54.667 11.333 -74 34s-29 54 -29 94c0 34.667 6.5 69.167 19.5 103.5s31 65.333 54 93s50 50 81 67s64.167 25.5 99.5 25.5c21.333 0 39.333 -4 54 -12s26 -16.667 34 -26l73 31h52l-33 -93l-51 -185c-2.66699 -9.33301 -4.33398 -18.666 -5.00098 -27.999
s0 -17.666 2 -24.999s5.5 -13.333 10.5 -18s11.833 -7 20.5 -7c17.333 0 34.5 5 51.5 15s32.167 25 45.5 45s24 44.667 32 74s12 63.333 12 102c0 37.333 -6.66699 72.666 -20 105.999s-32.5 62.666 -57.5 87.999s-55.667 45.333 -92 60s-77.166 22 -122.499 22
c-54 0 -102.667 -9.83301 -146 -29.5s-80.5 -47 -111.5 -82s-54.833 -76.5 -71.5 -124.5s-25 -100.333 -25 -157c0 -54 9 -101.167 27 -141.5s42.5 -74.166 73.5 -101.499s67.5 -47.833 109.5 -61.5s86.667 -20.5 134 -20.5c28 0 53.667 1.5 77 4.5s45.666 7.5 66.999 13.5
s42 13.333 62 22s40.667 18.667 62 30l18 -32c-34.667 -30 -76.667 -54.167 -126 -72.5s-107 -27.5 -173 -27.5c-56.667 0 -110 8.66699 -160 26s-93.667 42.5 -131 75.5s-66.833 73.167 -88.5 120.5s-32.5 101 -32.5 161c0 63.333 10.833 122.166 32.5 176.499
s51.667 101.5 90 141.5s84.166 71.5 137.499 94.5s111.666 34.5 174.999 34.5c58 0 109.833 -8.83301 155.5 -26.5s84.334 -41.5 116.001 -71.5s55.834 -64.667 72.501 -104s25 -80.666 25 -123.999c0 -51.333 -7.66699 -95.333 -23 -132s-35 -66.667 -59 -90
s-50.667 -40.5 -80 -51.5s-58 -16.5 -86 -16.5zM388.001 163.998c12 0 25.0039 6.5 39.0039 19.5s27.667 30.667 41 53s25.833 48.666 37.5 78.999s21.167 62.5 28.5 96.5c-4.66699 11.333 -9.83398 20 -15.501 26s-13.834 9 -24.501 9c-20 0 -38.333 -7.5 -55 -22.5
s-31.334 -33.667 -44.001 -56s-22.5 -47 -29.5 -74s-10.5 -52.5 -10.5 -76.5c0 -17.333 2.66699 -30.666 8 -39.999s13.666 -14 24.999 -14z" />
    <glyph glyph-name="A" unicode="A" horiz-adv-x="751" 
d="M448 217l-253.999 0.00683594l-27 -70c-2.66699 -7.33301 -5 -14.5 -7 -21.5s-3 -13.167 -3 -18.5c0 -8 1 -14.5 3 -19.5s5.66699 -9.33301 11 -13s13 -6.33398 23 -8.00098s22.667 -2.83398 38 -3.50098v-63h-225v63c13.333 2.66699 24.833 6.16699 34.5 10.5
s17.167 13.166 22.5 26.499l212 527l-34 78h186l258 -605c5.33301 -12.667 12.666 -21.334 21.999 -26.001s21.333 -8.33398 36 -11.001v-63h-331v63c30 1.33301 50 5.16602 60 11.499s15 17.166 15 32.499c0 10.667 -3.66699 24 -11 40zM219.001 281.007h203l-103 254z" />
    <glyph glyph-name="B" unicode="B" horiz-adv-x="708" 
d="M32 63c16.667 0.666992 30.332 2 40.999 4s19.167 5.5 25.5 10.5s10.666 11.833 12.999 20.5s3.5 20 3.5 34v438c0 14 -1.16699 25.167 -3.5 33.5s-6.66602 15 -12.999 20s-14.833 8.66699 -25.5 11s-24.334 3.83301 -41.001 4.5v63h367
c76.667 0 136.334 -14.667 179.001 -44s64 -73.333 64 -132c0 -25.333 -5.16699 -47.5 -15.5 -66.5s-24 -35.167 -41 -48.5s-36.667 -24 -59 -32s-45.5 -13.333 -69.5 -16c32 -2 61.5 -7.16699 88.5 -15.5s50.167 -19.666 69.5 -33.999s34.5 -31.833 45.5 -52.5
s16.5 -44.334 16.5 -71.001c0 -64 -23.167 -111.667 -69.5 -143s-114.166 -47 -203.499 -47h-372v63zM292.998 327v-197c0 -27.333 6 -45.333 18 -54s32 -13 60 -13h8c37.333 0 66.5 11 87.5 33s31.5 54 31.5 96c0 19.333 -2.66699 37.333 -8 54s-14 31 -26 43
s-27.667 21.333 -47 28s-43 10 -71 10h-53zM292.998 635v-242h39c44 0 77.5 10.167 100.5 30.5s34.5 52.5 34.5 96.5c0 38.667 -12 67.5 -36 86.5s-58.667 28.5 -104 28.5h-34z" />
    <glyph glyph-name="C" unicode="C" horiz-adv-x="699" 
d="M412 63c43.333 0 77.001 14.833 101.001 44.5s45 74.5 63 134.5h85l-18 -188c-30.667 -20 -66.5 -35.667 -107.5 -47s-87.833 -17 -140.5 -17c-56.667 0 -107.334 8.66699 -152.001 26s-82.334 41.333 -113.001 72s-54 67.167 -70 109.5s-24 88.833 -24 139.5
c0 58 9.5 110 28.5 156s45 85.333 78 118s71.5 57.667 115.5 75s91.333 26 142 26c50 0 95.333 -6.5 136 -19.5s73.667 -30.5 99 -52.5v-161h-84c-12.667 51.333 -30.667 91.5 -54 120.5s-56.666 43.5 -99.999 43.5c-31.333 0 -57.833 -7.66699 -79.5 -23
s-39.167 -35.833 -52.5 -61.5s-22.833 -55.167 -28.5 -88.5s-8.5 -68 -8.5 -104c0 -44.667 3.83301 -85.5 11.5 -122.5s19.167 -68.833 34.5 -95.5s34.5 -47.5 57.5 -62.5s49.833 -22.5 80.5 -22.5z" />
    <glyph glyph-name="D" unicode="D" horiz-adv-x="793" 
d="M293 635l-0.000976562 -498c0 -29.333 5.83301 -48.333 17.5 -57s30.834 -13 57.501 -13h11c60 0 106.333 23.167 139 69.5s49 117.833 49 214.5c0 42 -5 80.333 -15 115s-25 64.5 -45 89.5s-44.833 44.5 -74.5 58.5s-64.5 21 -104.5 21h-35zM31.999 702
l321.005 -0.000976562c65.333 0 123.166 -7.83301 173.499 -23.5s92.666 -38.167 126.999 -67.5s60.333 -64.833 78 -106.5s26.5 -88.5 26.5 -140.5c0 -57.333 -8.83301 -108.666 -26.5 -153.999s-42.834 -83.5 -75.501 -114.5s-71.834 -54.667 -117.501 -71
s-96.834 -24.5 -153.501 -24.5h-353v63c16.667 0.666992 30.334 2 41.001 4s19.167 5.5 25.5 10.5s10.666 11.833 12.999 20.5s3.5 20 3.5 34v438c0 14 -1.16699 25.167 -3.5 33.5s-6.66602 15 -12.999 20s-14.833 8.66699 -25.5 11s-24.334 3.83301 -41.001 4.5v63z" />
    <glyph glyph-name="E" unicode="E" horiz-adv-x="678" 
d="M458 247c-5.33301 30 -13.167 50.834 -23.5 62.501s-26.5 17.5 -48.5 17.5h-93v-195c0 -27.333 6.83301 -45.333 20.5 -54s34.834 -13 63.501 -13h40c18.667 0 34.834 2.33301 48.501 7s26.667 12.5 39 23.5s24.666 25.167 36.999 42.5s26.5 38.666 42.5 63.999h66
l-31 -202h-587v63c16.667 0.666992 30.334 2 41.001 4s19.167 5.5 25.5 10.5s10.666 11.833 12.999 20.5s3.5 20 3.5 34v438c0 14 -1.16699 25.167 -3.5 33.5s-6.66602 15 -12.999 20s-14.833 8.66699 -25.5 11s-24.334 3.83301 -41.001 4.5v63h582v-187h-68
c-8 20.667 -15.833 38.667 -23.5 54s-16.667 28 -27 38s-22.333 17.5 -36 22.5s-30.5 7.5 -50.5 7.5h-116v-242h93c22 0 38.167 5.83301 48.5 17.5s18.166 32.5 23.499 62.5h60v-228h-60z" />
    <glyph glyph-name="F" unicode="F" horiz-adv-x="625" 
d="M32 0v62.999c16.667 0.666992 30.334 2 41.001 4s19.167 5.5 25.5 10.5s10.666 11.833 12.999 20.5s3.5 20 3.5 34v438c0 14 -1.16699 25.167 -3.5 33.5s-6.66602 15 -12.999 20s-14.833 8.66699 -25.5 11s-24.334 3.83301 -41.001 4.5v63h568v-189h-67
c-8 20.667 -16 38.834 -24 54.501s-17.167 28.667 -27.5 39s-22.5 18 -36.5 23s-31 7.5 -51 7.5h-101v-252h75c22.667 0 39 6 49 18s17.667 33 23 63h60v-229h-60c-5.33301 30.667 -13 52 -23 64s-26.333 18 -49 18h-75v-191c0 -13.333 2.33301 -24.333 7 -33
s11.667 -15.5 21 -20.5s21.5 -8.66699 36.5 -11s32.833 -3.83301 53.5 -4.5v-59h-379z" />
    <glyph glyph-name="G" unicode="G" horiz-adv-x="760" 
d="M36 337c0 58 9.83008 109.999 29.4971 155.999s46.334 85.333 80.001 118s72.667 57.667 117 75s91.5 26 141.5 26s95.333 -6.5 136 -19.5s74 -30.5 100 -52.5v-161h-84c-13.333 52 -32 92.333 -56 121s-57 43 -99 43c-31.333 0 -58 -7.66699 -80 -23
s-40 -35.833 -54 -61.5s-24.333 -55.167 -31 -88.5s-10 -68 -10 -104c0 -44 3.5 -84.5 10.5 -121.5s18 -69 33 -96s34.5 -48 58.5 -63s53.333 -22.5 88 -22.5c17.333 0 31.333 1.16699 42 3.5s22.334 6.83301 35.001 13.5v131c0 13.333 -1.16699 24.166 -3.5 32.499
s-6.66602 15 -12.999 20s-14.666 8.5 -24.999 10.5s-23.5 3.33301 -39.5 4v64h324v-64c-16.667 -0.666992 -30.167 -2 -40.5 -4s-18.5 -5.5 -24.5 -10.5s-10 -11.667 -12 -20s-3 -19.166 -3 -32.499v-148c-32 -23.333 -70.833 -41.166 -116.5 -53.499
s-94.834 -18.5 -147.501 -18.5c-58 0 -109.167 8.66699 -153.5 26s-81.5 41.333 -111.5 72s-52.667 67.167 -68 109.5s-23 88.5 -23 138.5z" />
    <glyph glyph-name="H" unicode="H" horiz-adv-x="858" 
d="M565 327h-272v-195c0 -14 1.33301 -25.333 4 -34s7.16699 -15.5 13.5 -20.5s14.833 -8.5 25.5 -10.5s24 -3.33301 40 -4v-63h-344v63c16.667 0.666992 30.334 2 41.001 4s19.167 5.5 25.5 10.5s10.666 11.833 12.999 20.5s3.5 20 3.5 34v438
c0 14 -1.16699 25.167 -3.5 33.5s-6.66602 15 -12.999 20s-14.833 8.66699 -25.5 11s-24.334 3.83301 -41.001 4.5v63h344v-63c-16 -0.666992 -29.333 -2.16699 -40 -4.5s-19.167 -6 -25.5 -11s-10.833 -11.667 -13.5 -20s-4 -19.5 -4 -33.5v-175h272v175
c0 14 -1.16699 25.167 -3.5 33.5s-6.66602 15 -12.999 20s-14.833 8.66699 -25.5 11s-24.334 3.83301 -41.001 4.5v63h345v-63c-16.667 -0.666992 -30.5 -2.16699 -41.5 -4.5s-19.667 -6 -26 -11s-10.666 -11.667 -12.999 -20s-3.5 -19.5 -3.5 -33.5v-438
c0 -14 1.16699 -25.333 3.5 -34s6.66602 -15.5 12.999 -20.5s15 -8.5 26 -10.5s24.833 -3.33301 41.5 -4v-63h-345v63c16.667 0.666992 30.334 2 41.001 4s19.167 5.5 25.5 10.5s10.666 11.833 12.999 20.5s3.5 20 3.5 34v195z" />
    <glyph glyph-name="I" unicode="I" horiz-adv-x="408" 
d="M32 0v63c16.667 0.666992 30.334 2 41.001 4s19.167 5.5 25.5 10.5s10.666 11.833 12.999 20.5s3.5 20 3.5 34v438c0 14 -1.16699 25.167 -3.5 33.5s-6.66602 15 -12.999 20s-14.833 8.66699 -25.5 11s-24.334 3.83301 -41.001 4.5v63h344v-63
c-16.667 -0.666992 -30.334 -2.16699 -41.001 -4.5s-19.167 -6 -25.5 -11s-10.666 -11.667 -12.999 -20s-3.5 -19.5 -3.5 -33.5v-438c0 -14 1.16699 -25.333 3.5 -34s6.66602 -15.5 12.999 -20.5s14.833 -8.5 25.5 -10.5s24.334 -3.33301 41.001 -4v-63h-344z" />
    <glyph glyph-name="J" unicode="J" horiz-adv-x="594" 
d="M492 221c0 -80 -22.3311 -138.499 -66.998 -175.499s-107.334 -55.5 -188.001 -55.5c-72.667 0 -129 12.667 -169 38s-60 61.333 -60 108c0 21.333 4.33301 38.666 13 51.999s19.667 24.333 33 33h122v-49c0 -34 4.66699 -62.167 14 -84.5s27 -33.5 53 -33.5
c28 0 46.667 11.833 56 35.5s14 57.5 14 101.5v379c0 14 -1.16699 25.167 -3.5 33.5s-6.5 15 -12.5 20s-14.333 8.66699 -25 11s-24.334 3.83301 -41.001 4.5v63h346v-63c-16.667 -0.666992 -30.5 -2.16699 -41.5 -4.5s-19.667 -6 -26 -11s-10.833 -11.667 -13.5 -20
s-4 -19.5 -4 -33.5v-349z" />
    <glyph glyph-name="K" unicode="K" horiz-adv-x="775" 
d="M664 136c10 -14.667 19.166 -26.8359 27.499 -36.5029s16.666 -17.167 24.999 -22.5s16.833 -9.16602 25.5 -11.499s18.334 -3.5 29.001 -3.5v-62h-208c-15.333 10 -29.833 22.667 -43.5 38s-29.167 36.333 -46.5 63l-170 256l217 208c8.66699 8 15.5 15.167 20.5 21.5
s7.5 13.833 7.5 22.5c0 8 -4 14.833 -12 20.5s-25.667 8.83398 -53 9.50098v63h262v-63c-21.333 -0.666992 -37.666 -4.16699 -48.999 -10.5s-24 -16.166 -38 -29.499l-186 -181zM114.999 569.998c0 14 -1.16699 25.167 -3.5 33.5s-6.66602 15 -12.999 20
s-14.833 8.66699 -25.5 11s-24.334 3.83301 -41.001 4.5v63h344v-63c-16 -0.666992 -29.333 -2.16699 -40 -4.5s-19 -6 -25 -11s-10.167 -11.667 -12.5 -20s-3.5 -19.5 -3.5 -33.5v-438c0 -14 1.16699 -25.333 3.5 -34s6.5 -15.5 12.5 -20.5s14.333 -8.5 25 -10.5
s24 -3.33301 40 -4v-63h-344v63c16.667 0.666992 30.334 2 41.001 4s19.167 5.5 25.5 10.5s10.666 11.833 12.999 20.5s3.5 20 3.5 34v438z" />
    <glyph glyph-name="L" unicode="L" horiz-adv-x="652" 
d="M295 134c0 -27.333 6 -45.334 18 -54.001s32.667 -13 62 -13h31c16.667 0 31 2.33301 43 7s23.5 13 34.5 25s23 28.667 36 50l48.5 83h72l-37 -232h-571v63c16.667 0.666992 30.334 2 41.001 4s19.167 5.5 25.5 10.5s10.666 11.833 12.999 20.5s3.5 20 3.5 34v438
c0 26.667 -5.5 44.334 -16.5 53.001s-33.167 13.667 -66.5 15v64h344v-64c-16 -0.666992 -29.333 -2 -40 -4s-19 -5.5 -25 -10.5s-10.167 -11.833 -12.5 -20.5s-3.5 -19.667 -3.5 -33v-436z" />
    <glyph glyph-name="M" unicode="M" horiz-adv-x="990" 
d="M666 498l-179 -497.998h-70l-191 499l-46 -347c-0.666992 -4 -1.16699 -8.66699 -1.5 -14s-0.5 -9 -0.5 -11c0 -24 7 -40.167 21 -48.5s38.667 -13.5 74 -15.5v-63h-264v63c28.667 1.33301 49 6 61 14s19.667 23.667 23 47l63 442c0 26.667 -5.83301 45.167 -17.5 55.5
s-34.167 16.166 -67.5 17.499v63h267c1.33301 -11.333 3 -21.333 5 -30s5.33301 -19.334 10 -32.001l148 -391l139 391c4.66699 12.667 8.33398 23.334 11.001 32.001s4.66699 18.667 6 30h261v-63c-16.667 -0.666992 -30.334 -2.33398 -41.001 -5.00098
s-19.167 -6.83398 -25.5 -12.501s-10.666 -13 -12.999 -22s-3.5 -20.167 -3.5 -33.5l62 -442c3.33301 -24.667 11.166 -40.667 23.499 -48s32.5 -11.666 60.5 -12.999v-63h-359v63c35.333 2 60 7.16699 74 15.5s21 24.5 21 48.5c0 2 -0.166992 5.66699 -0.5 11
s-0.833008 10 -1.5 14z" />
    <glyph glyph-name="N" unicode="N" horiz-adv-x="784" 
d="M115 587c-8 10.667 -15 19.165 -21 25.498s-12 11.333 -18 15s-12.5 6.33398 -19.5 8.00098s-15.167 2.83398 -24.5 3.50098v63h251l315 -409v277c0 27.333 -7 45.333 -21 54s-37.333 13.667 -70 15v63h257v-63c-16.667 -0.666992 -30.334 -2.16699 -41.001 -4.5
s-19.167 -6 -25.5 -11s-10.666 -11.667 -12.999 -20s-3.5 -19.5 -3.5 -33.5v-570h-73l-409 513v-381c0 -27.333 6.83301 -45.333 20.5 -54s37.167 -13.667 70.5 -15v-63h-258v63c16.667 0.666992 30.334 2 41.001 4s19.167 5.5 25.5 10.5s10.666 11.833 12.999 20.5
s3.5 20 3.5 34v455z" />
    <glyph glyph-name="O" unicode="O" horiz-adv-x="762" 
d="M393 60c25.333 0 47.166 7.16699 65.499 21.5s33.333 34 45 59s20.167 54.5 25.5 88.5s8 70.333 8 109c0 44 -3.33301 84.5 -10 121.5s-16.834 69 -30.501 96s-31.167 48.167 -52.5 63.5s-46.333 23 -75 23c-25.333 0 -47.166 -7.16699 -65.499 -21.5
s-33.333 -34 -45 -59s-20.167 -54.5 -25.5 -88.5s-8 -70.333 -8 -109c0 -44 3.33301 -84.667 10 -122s16.834 -69.5 30.501 -96.5s31 -48 52 -63s46.167 -22.5 75.5 -22.5zM389 712c54 0 102.001 -9.33203 144.001 -27.999s77.333 -43.834 106 -75.501
s50.5 -68.5 65.5 -110.5s22.5 -86.333 22.5 -133c0 -57.333 -9 -109.166 -27 -155.499s-42.833 -85.833 -74.5 -118.5s-69.167 -57.667 -112.5 -75s-90 -26 -140 -26c-54 0 -102 9.33301 -144 28s-77.333 43.834 -106 75.501s-50.334 68.5 -65.001 110.5s-22 86.333 -22 133
c0 57.333 9 109.166 27 155.499s42.833 85.666 74.5 117.999s69 57.333 112 75s89.5 26.5 139.5 26.5z" />
    <glyph glyph-name="P" unicode="P" horiz-adv-x="672" 
d="M295 272l-0.00292969 -140.003c0 -27.333 9 -45.166 27 -53.499s47.667 -13.5 89 -15.5v-63h-379v63c16.667 0.666992 30.334 2 41.001 4s19.167 5.5 25.5 10.5s10.666 11.833 12.999 20.5s3.5 20 3.5 34v438c0 14 -1.16699 25.167 -3.5 33.5s-6.66602 15 -12.999 20
s-14.833 8.66699 -25.5 11s-24.334 3.83301 -41.001 4.5v63h344c48.667 0 90.334 -5.66699 125.001 -17s63.334 -26.666 86.001 -45.999s39.334 -42 50.001 -68s16 -53.667 16 -83c0 -67.333 -22 -120.166 -66 -158.499s-113.333 -57.5 -208 -57.5h-84zM294.997 333.997
l38 -0.000976562c46 0 81.167 12.833 105.5 38.5s36.5 63.834 36.5 114.501c0 46 -13 82.167 -39 108.5s-62.333 39.5 -109 39.5h-32v-301z" />
    <glyph glyph-name="Q" unicode="Q" horiz-adv-x="762" 
d="M389 712c54 0 102.001 -9.33301 144.001 -28s77.333 -43.834 106 -75.501s50.5 -68.5 65.5 -110.5s22.5 -86.333 22.5 -133c0 -48 -6.33301 -92 -19 -132s-30.334 -75.5 -53.001 -106.5s-49.667 -57 -81 -78s-65.666 -36.5 -102.999 -46.5l57 -46l37 -30.5
c11.333 -9 22.5 -16.667 33.5 -23s22.333 -11.166 34 -14.499s24.167 -5.33301 37.5 -6v-32c-25.333 -19.333 -61 -29 -107 -29c-36.667 0 -70.834 7.66699 -102.501 23s-62.5 42.666 -92.5 81.999l-50 68c-45.333 6 -85.5 19.333 -120.5 40s-64.5 46.334 -88.5 77.001
s-42.167 65.334 -54.5 104.001s-18.5 79.334 -18.5 122.001c0 57.333 9 109.166 27 155.499s42.833 85.666 74.5 117.999s69 57.333 112 75s89.5 26.5 139.5 26.5zM393.001 60c25.333 0 47.166 7.16699 65.499 21.5s33.333 34 45 59s20.167 54.5 25.5 88.5s8 70.333 8 109
c0 44 -3.33301 84.5 -10 121.5s-16.834 69 -30.501 96s-31.167 48.167 -52.5 63.5s-46.333 23 -75 23c-25.333 0 -47.166 -7.16699 -65.499 -21.5s-33.333 -34 -45 -59s-20.167 -54.5 -25.5 -88.5s-8 -70.333 -8 -109c0 -44 3.33301 -84.667 10 -122
s16.834 -69.5 30.501 -96.5s31 -48 52 -63s46.167 -22.5 75.5 -22.5z" />
    <glyph glyph-name="R" unicode="R" horiz-adv-x="750" 
d="M292 635v-279h30c54.667 0 94.667 11.667 120 35s38 59.333 38 108c0 44 -13.5 77.667 -40.5 101s-65.833 35 -116.5 35h-31zM386 702c92.667 0 161.167 -18.332 205.5 -54.999s66.5 -86 66.5 -148c0 -23.333 -4 -44.666 -12 -63.999s-18.833 -36.5 -32.5 -51.5
s-29.5 -27.833 -47.5 -38.5s-37.333 -18.334 -58 -23.001l125 -187c8.66699 -14 17 -25.5 25 -34.5s16.167 -16.333 24.5 -22s17.5 -9.66699 27.5 -12s21.333 -3.5 34 -3.5v-63h-212c-15.333 12.667 -29.5 27.167 -42.5 43.5s-26.833 37.166 -41.5 62.499l-112 186h-44v-160
c0 -14 1.16699 -25.333 3.5 -34s6.5 -15.5 12.5 -20.5s14.167 -8.5 24.5 -10.5s23.833 -3.33301 40.5 -4v-63h-341v63c16.667 0.666992 30.334 2 41.001 4s19.167 5.5 25.5 10.5s10.666 11.833 12.999 20.5s3.5 20 3.5 34v438c0 14 -1.16699 25.167 -3.5 33.5
s-6.66602 15 -12.999 20s-14.833 8.5 -25.5 10.5s-24.334 3 -41.001 3v65h354z" />
    <glyph glyph-name="S" unicode="S" horiz-adv-x="602" 
d="M289 -10c-50 0 -95.8311 6.49707 -137.498 19.4971s-74.834 28.833 -99.501 47.5l-10 167h87c14.667 -56.667 35.334 -99 62.001 -127s63.667 -42 111 -42c34 0 61.667 8 83 24s32 40 32 72c0 13.333 -2.33301 25.166 -7 35.499s-12.5 19.833 -23.5 28.5
s-25.833 16.834 -44.5 24.501s-42 15.5 -70 23.5c-38 10.667 -71 22.667 -99 36s-51.167 28.833 -69.5 46.5s-32 38.334 -41 62.001s-13.5 51.167 -13.5 82.5c0 34.667 6.16699 65.667 18.5 93s29.5 50.5 51.5 69.5s48.333 33.667 79 44s64.667 15.5 102 15.5
c47.333 0 89.666 -5.66699 126.999 -17s68.666 -26 93.999 -44v-153h-75c-6.66699 21.333 -14.334 41.166 -23.001 59.499s-19 34.166 -31 47.499s-26.5 23.833 -43.5 31.5s-37.167 11.5 -60.5 11.5c-34 0 -59.667 -8.66699 -77 -26s-26 -38 -26 -62
c0 -15.333 2.5 -28.666 7.5 -39.999s13 -21.166 24 -29.499s25.667 -16.166 44 -23.499s41.166 -14.666 68.499 -21.999c37.333 -10 70.333 -21.5 99 -34.5s52.834 -28.667 72.501 -47s34.5 -39.833 44.5 -64.5s15 -54 15 -88c0 -38 -7.16699 -70.833 -21.5 -98.5
s-33.666 -50.5 -57.999 -68.5s-53 -31.5 -86 -40.5s-68.167 -13.5 -105.5 -13.5z" />
    <glyph glyph-name="T" unicode="T" horiz-adv-x="704" 
d="M674 702l14.999 -231h-70l-32 75.5c-9.33301 21 -19.166 38.333 -29.499 52s-22.333 23.834 -36 30.501s-30.5 10 -50.5 10h-31v-507c0 -14 1.5 -25.333 4.5 -34s8 -15.5 15 -20.5s16 -8.5 27 -10.5s24.833 -3.33301 41.5 -4v-63h-354v63
c33.333 1.33301 56.666 6.33301 69.999 15s20 26.667 20 54v507h-32c-20 0 -36.833 -3.33301 -50.5 -10s-25.667 -16.834 -36 -30.501s-20.166 -31 -29.499 -52l-32 -75.5h-69l15 231h644z" />
    <glyph glyph-name="U" unicode="U" horiz-adv-x="773" 
d="M280 264c0 -54.667 10.5029 -97.833 31.5029 -129.5s57.5 -47.5 109.5 -47.5c24.667 0 47 2.83301 67 8.5s37.167 15.667 51.5 30s25.5 33.333 33.5 57s12 53.5 12 89.5v298c0 27.333 -6.83301 45.333 -20.5 54s-36.834 13.667 -69.501 15v63h261v-63
c-16.667 -0.666992 -30.334 -2.16699 -41.001 -4.5s-19.167 -6 -25.5 -11s-10.833 -11.667 -13.5 -20s-4 -19.5 -4 -33.5v-325c0 -43.333 -7.16699 -81 -21.5 -113s-34 -58.5 -59 -79.5s-54 -36.667 -87 -47s-68.5 -15.5 -106.5 -15.5c-94 0 -167.167 21.167 -219.5 63.5
s-78.5 106.5 -78.5 192.5v324c0 14 -1.16699 25.167 -3.5 33.5s-6.5 15 -12.5 20s-14.333 8.66699 -25 11s-24.334 3.83301 -41.001 4.5v63h343v-63c-16 -0.666992 -29.333 -2.16699 -40 -4.5s-19 -6 -25 -11s-10.167 -11.667 -12.5 -20s-3.5 -19.5 -3.5 -33.5v-306z" />
    <glyph glyph-name="V" unicode="V" horiz-adv-x="731" 
d="M556 555c6.66699 16.667 10 29.9971 10 39.9971c0 14.667 -4.66699 25.334 -14 32.001s-29.333 10.667 -60 12v63h232v-63c-14 -2.66699 -25.667 -6.16699 -35 -10.5s-17 -13.166 -23 -26.499l-258 -607h-53l-291 607c-6 13.333 -13.5 22.166 -22.5 26.499
s-20.5 7.83301 -34.5 10.5v63h339v-63c-30.667 -1.33301 -51 -5.16602 -61 -11.499s-15 -17.166 -15 -32.499c0 -10 3.33301 -23.333 10 -40l148 -321z" />
    <glyph glyph-name="W" unicode="W" horiz-adv-x="1017" 
d="M843 541c4.66699 13.333 8.33008 24.3281 10.9971 32.9951s4 15.667 4 21c0 14.667 -4.66699 25.334 -14 32.001s-29.333 10.667 -60 12v63h226v-63c-13.333 -2.66699 -25.166 -6 -35.499 -10s-18.166 -13 -23.499 -27l-226 -607h-66l-141 394l-146 -394h-64l-244 607
c-5.33301 12.667 -12.833 21.334 -22.5 26.001s-21.167 8.33398 -34.5 11.001v63h323v-63c-24 -2 -41 -6.16699 -51 -12.5s-15 -16.833 -15 -31.5c0 -5.33301 1.16699 -11.833 3.5 -19.5s5.5 -17.167 9.5 -28.5l114 -301l90 246l-37 110
c-4.66699 12 -11.167 20.5 -19.5 25.5s-19.166 8.83301 -32.499 11.5v63h314v-63c-15.333 -0.666992 -27.833 -2 -37.5 -4s-17.167 -4.66699 -22.5 -8s-9 -7.66602 -11 -12.999s-3 -11.666 -3 -18.999c0 -5.33301 0.833008 -12.333 2.5 -21s5.16699 -20.667 10.5 -36
l94 -286z" />
    <glyph glyph-name="X" unicode="X" horiz-adv-x="745" 
d="M457 392l214.002 -292.001c7.33301 -10.667 16.5 -19.167 27.5 -25.5s24.5 -10.166 40.5 -11.499v-63h-331v63c22 0 36.667 2.5 44 7.5s11 13.5 11 25.5c0 10 -7.66699 24.667 -23 44l-106 144l-117 -143c-8 -9.33301 -13.667 -17.666 -17 -24.999s-5 -14 -5 -20
c0 -12 4.16699 -20.5 12.5 -25.5s24.833 -7.5 49.5 -7.5v-63h-250v63c20 0 36.5 3.5 49.5 10.5s23.5 15.833 31.5 26.5l198 247l-187 255c-7.33301 10 -15.833 18.333 -25.5 25s-22.167 10.667 -37.5 12v63h337v-63c-23.333 0 -39.5 -2.5 -48.5 -7.5
s-13.5 -13.167 -13.5 -24.5c0 -6.66699 2.16699 -13.5 6.5 -20.5s10.166 -15.5 17.499 -25.5l78 -106l85 106c15.333 17.333 23 32.666 23 45.999c0 11.333 -4.33301 19.5 -13 24.5s-24.334 7.5 -47.001 7.5v63h248v-63c-18.667 0 -34 -3.33301 -46 -10
s-22.667 -15.667 -32 -27z" />
    <glyph glyph-name="Y" unicode="Y" horiz-adv-x="701" 
d="M515 542c7.33301 12.667 12.998 23.6699 16.998 33.0029s6 17.666 6 24.999c0 13.333 -5.66699 22.833 -17 28.5s-29.666 9.16699 -54.999 10.5v63h229v-63c-14 -2.66699 -25.5 -6.16699 -34.5 -10.5s-17.167 -13.166 -24.5 -26.499l-195 -341v-129
c0 -27.333 6.33301 -45.333 19 -54s35.667 -13.667 69 -15v-63h-352v63c32.667 1.33301 55.5 6.33301 68.5 15s19.5 26.667 19.5 54v130l-201 340c-7.33301 13.333 -15.166 22.166 -23.499 26.499s-19.5 7.83301 -33.5 10.5v63h329v-63
c-27.333 -1.33301 -45.833 -4.83301 -55.5 -10.5s-14.5 -15.167 -14.5 -28.5c0 -8.66699 2 -17.334 6 -26.001s9.33301 -19.334 16 -32.001l112 -201z" />
    <glyph glyph-name="Z" unicode="Z" horiz-adv-x="643" 
d="M387 67c18.667 0 34.668 1.99805 48.001 5.99805s26 11.833 38 23.5s24.333 27.834 37 48.501s28 48 46 82h67l-34 -227h-566v43l372 591h-141c-20 0 -36.333 -3 -49 -9s-23.667 -14.667 -33 -26s-17.833 -25.666 -25.5 -42.999s-16.834 -37 -27.501 -59h-63v205h550v-44
l-369 -591h150z" />
    <glyph glyph-name="bracketleft" unicode="[" horiz-adv-x="348" 
d="M198 -33c0 -13.333 2.16699 -23.668 6.5 -31.001s11 -13 20 -17s20.667 -6.66699 35 -8s31.5 -2.66602 51.5 -3.99902v-48h-226v911h226v-48c-20 -1.33301 -37.167 -2.66602 -51.5 -3.99902s-26 -4 -35 -8s-15.667 -9.83301 -20 -17.5s-6.5 -17.834 -6.5 -30.501v-695z
" />
    <glyph glyph-name="backslash" unicode="\" horiz-adv-x="433" 
d="M38 770h98l273 -895h-98z" />
    <glyph glyph-name="bracketright" unicode="]" horiz-adv-x="348" 
d="M150 662c0 12.667 -2.16699 22.8359 -6.5 30.5029s-11 13.5 -20 17.5s-20.667 6.66699 -35 8s-31.5 2.66602 -51.5 3.99902v48h226v-911h-226v48c20 1.33301 37.167 2.66602 51.5 3.99902s26 4 35 8s15.667 9.66699 20 17s6.5 17.666 6.5 30.999v695z" />
    <glyph glyph-name="asciicircum" unicode="^" horiz-adv-x="484" 
d="M297 770l147 -290h-107l-95 197l-95 -197h-107l147 290h110z" />
    <glyph glyph-name="underscore" unicode="_" horiz-adv-x="440" 
d="M20 -159v93h400v-93h-400z" />
    <glyph glyph-name="grave" unicode="`" 
d="M299 765l68 -162h-84l-154 162h170z" />
    <glyph glyph-name="a" unicode="a" horiz-adv-x="580" 
d="M267 94c12.667 0 23.501 1.49805 32.501 4.49805s18.5 7.83301 28.5 14.5v168l-76 -30c-34 -13.333 -51 -38.666 -51 -75.999c0 -25.333 5.66699 -45.166 17 -59.499s27.666 -21.5 48.999 -21.5zM495.001 347.998l0.000976562 -17.4971v-37.5
c0 -14.667 -0.166992 -30.334 -0.5 -47.001s-0.5 -32.334 -0.5 -47.001v-38v-19c0 -16 2.16699 -29.167 6.5 -39.5s13.166 -15.5 26.499 -15.5c4 0 10.333 0.5 19 1.5s16.667 2.5 24 4.5l8 -45c-17.333 -16.667 -38 -30.5 -62 -41.5s-49 -16.5 -75 -16.5
c-28.667 0 -52 8.33301 -70 25s-31.333 38.667 -40 66c-8 -10.667 -17.167 -21.334 -27.5 -32.001s-22 -20.167 -35 -28.5s-27.5 -15 -43.5 -20s-34 -7.5 -54 -7.5c-43.333 0 -77.5 12.667 -102.5 38s-37.5 59.333 -37.5 102c0 22 3.83301 41 11.5 57
s17.834 29.5 30.501 40.5s27.167 20.333 43.5 28s33.166 14.5 50.499 20.5l161 56v59c0 37.333 -4.83301 64 -14.5 80s-26.5 24 -50.5 24c-19.333 0 -33.666 -6 -42.999 -18s-14 -27.667 -14 -47c0 -11.333 0.5 -22.166 1.5 -32.499s3.16699 -21.166 6.5 -32.499l-111 -17
c-13.333 5.33301 -23 14 -29 26s-9 25.667 -9 41c0 23.333 5.33301 43.666 16 60.999s25.5 31.666 44.5 42.999s41.667 19.833 68 25.5s55.166 8.5 86.499 8.5c34.667 0 65.334 -3.33301 92.001 -10s49.167 -18 67.5 -34s32.166 -37.333 41.499 -64s14 -60 14 -100z" />
    <glyph glyph-name="b" unicode="b" horiz-adv-x="649" 
d="M14 686l0.00195312 34l196 41h32v-300c16 28 37.333 50.833 64 68.5s59 26.5 97 26.5c65.333 0 117 -22.5 155 -67.5s57 -107.5 57 -187.5c0 -48.667 -7.5 -92.167 -22.5 -130.5s-35.833 -70.833 -62.5 -97.5s-57.834 -47.167 -93.501 -61.5
s-73.834 -21.5 -114.501 -21.5c-48 0 -94 5.5 -138 16.5s-81 28.167 -111 51.5v574zM324.002 54c18.667 0 35.334 4.83301 50.001 14.5s27.167 23.167 37.5 40.5s18.166 38 23.499 62s8 50.333 8 79c0 61.333 -11.5 110 -34.5 146s-54.5 54 -94.5 54
c-27.333 0 -51.333 -6.66699 -72 -20v-269c0 -34.667 6.16699 -61.167 18.5 -79.5s33.5 -27.5 63.5 -27.5z" />
    <glyph glyph-name="c" unicode="c" horiz-adv-x="535" 
d="M187 323c0 -30.667 3.16992 -58.499 9.50293 -83.499s16 -46.5 29 -64.5s29 -32 48 -42s41.167 -15 66.5 -15c29.333 0 55.666 6.66699 78.999 20s43.666 31.666 60.999 54.999l31 -21c-17.333 -63.333 -45.666 -109.5 -84.999 -138.5s-88 -43.5 -146 -43.5
c-36 0 -69 6.16699 -99 18.5s-55.833 30 -77.5 53s-38.667 50.667 -51 83s-18.5 68.5 -18.5 108.5c0 42.667 6.66699 82.5 20 119.5s32.166 69.167 56.499 96.5s53.666 48.666 87.999 63.999s72.833 23 115.5 23c26 0 50.5 -3 73.5 -9s43.167 -15 60.5 -27
s31 -26.833 41 -44.5s15 -37.834 15 -60.501c0 -20 -4 -36.167 -12 -48.5s-18 -21.166 -30 -26.499h-88v49c0 29.333 -5.16699 53.333 -15.5 72s-29.5 28 -57.5 28c-15.333 0 -30 -3.66699 -44 -11s-26.167 -18.166 -36.5 -32.499s-18.5 -31.833 -24.5 -52.5s-9 -44 -9 -70z
" />
    <glyph glyph-name="d" unicode="d" horiz-adv-x="665" 
d="M407 86c-16.667 -28.667 -38.002 -51.8369 -64.002 -69.5039s-60 -26.5 -102 -26.5c-30.667 0 -58.667 5.83301 -84 17.5s-47.166 28.5 -65.499 50.5s-32.5 48.667 -42.5 80s-15 67 -15 107c0 48.667 7 91.834 21 129.501s33.333 69.5 58 95.5s53.834 45.833 87.501 59.5
s70.167 20.5 109.5 20.5c21.333 0 40.5 -2.66699 57.5 -8s30.167 -12.666 39.5 -21.999v112l-59 54v34l197 41h31v-623c0 -17.333 2.66699 -30.166 8 -38.499s16.333 -13.166 33 -14.499h25v-62l-202 -33h-33v96zM324.998 487.997c-19.333 0 -36.333 -4.66602 -51 -13.999
s-27 -22.5 -37 -39.5s-17.667 -37.333 -23 -61s-8 -49.834 -8 -78.501c0 -60 11.333 -108.167 34 -144.5s54.667 -54.5 96 -54.5c13.333 0 26 1.83301 38 5.5s23 8.5 33 14.5v265c0 36 -6.33301 62.833 -19 80.5s-33.667 26.5 -63 26.5z" />
    <glyph glyph-name="e" unicode="e" horiz-adv-x="553" 
d="M301 556c35.333 0 66.501 -5.99707 93.501 -17.9971s49.5 -28.333 67.5 -49s31.667 -44.834 41 -72.501s14 -57.167 14 -88.5v-37h-333c0 -52.667 14.667 -94.334 44 -125.001s67.333 -46 114 -46c33.333 0 61.833 6.16699 85.5 18.5s44.167 29.833 61.5 52.5l30 -19
c-13.333 -54.667 -39.5 -98.667 -78.5 -132s-89.833 -50 -152.5 -50c-37.333 0 -71.5 6.33301 -102.5 19s-57.667 30.5 -80 53.5s-39.833 50.833 -52.5 83.5s-19 69 -19 109c0 45.333 7 86.5 21 123.5s33 68.667 57 95s52.167 46.666 84.5 60.999s67.166 21.5 104.499 21.5z
M284.001 491.003c-15.333 0 -28.666 -3.83398 -39.999 -11.501s-21 -18 -29 -31s-14.333 -28.167 -19 -45.5s-8 -35.666 -10 -54.999h184c-0.666992 42.667 -7.83398 77.167 -21.501 103.5s-35.167 39.5 -64.5 39.5z" />
    <glyph glyph-name="f" unicode="f" horiz-adv-x="406" 
d="M271 117c0 -11.333 1.50098 -20.166 4.50098 -26.499s7.83301 -11.333 14.5 -15s15.167 -6.5 25.5 -8.5s22.833 -4 37.5 -6v-61h-315v61c11.333 1.33301 21 3 29 5s14.667 4.83301 20 8.5s9.16602 9 11.499 16s3.5 16.167 3.5 27.5v357h-76v57l76 19v9
c0 38 6 70.167 18 96.5s28.167 47.833 48.5 64.5s44.333 28.834 72 36.501s57.167 11.5 88.5 11.5c50 0 87.5 -7.83301 112.5 -23.5s37.5 -38.5 37.5 -68.5c0 -15.333 -3.5 -27.833 -10.5 -37.5s-15.167 -17.834 -24.5 -24.501h-82v36c0 17.333 -2.33301 32.166 -7 44.499
s-15.667 18.5 -33 18.5c-18.667 0 -32.167 -7.33301 -40.5 -22s-12.5 -36 -12.5 -64v-82h119v-71h-117v-358z" />
    <glyph glyph-name="g" unicode="g" horiz-adv-x="586" 
d="M280 195c-17.333 0 -35 1.16797 -53 3.50098s-35.333 6.16602 -52 11.499c-10 -11.333 -17.333 -20.666 -22 -27.999s-7 -15.333 -7 -24c0 -15.333 9 -23 27 -23h238c56.667 0 99 -12.667 127 -38s42 -60.333 42 -105c0 -31.333 -7.33301 -59.333 -22 -84
s-35.5 -45.5 -62.5 -62.5s-59.167 -30 -96.5 -39s-79 -13.5 -125 -13.5c-79.333 0 -141.5 9.66699 -186.5 29s-67.5 49 -67.5 89c0 12.667 2.83301 23.834 8.5 33.501s12.834 18 21.501 25s18.334 12.833 29.001 17.5s21 8.33398 31 11.001
c-20.667 7.33301 -37.5 19 -50.5 35s-19.5 37 -19.5 63s8.83301 48.833 26.5 68.5s43.5 39.167 77.5 58.5c-28 13.333 -50.833 31.666 -68.5 54.999s-26.5 53 -26.5 89c0 29.333 6 55.666 18 78.999s28.5 43.166 49.5 59.499s46.167 28.833 75.5 37.5s61 13 95 13
c20 0 38.167 -1.33301 54.5 -4s31.166 -6 44.499 -10l184 8v-87h-42l-83 18v-6c21.333 -10.667 38.166 -24.5 50.499 -41.5s18.5 -38.167 18.5 -63.5c0 -27.333 -5.83301 -51.833 -17.5 -73.5s-28 -40 -49 -55s-45.667 -26.5 -74 -34.5s-59.5 -12 -93.5 -12zM136 -23.999
c-7.33301 -8 -11 -20.332 -11 -36.999c0 -30 14 -52.167 42 -66.5s65.667 -21.5 113 -21.5c23.333 0 45.333 1.5 66 4.5s38.667 7.66699 54 14s27.333 14.833 36 25.5s13 23.667 13 39s-5.33301 26.166 -16 32.499s-24.667 9.5 -42 9.5h-255zM287 249.002
c23.333 0 39.834 10.001 49.501 30.001s14.5 47.333 14.5 82c0 20 -1.66699 38.5 -5 55.5s-8.16602 31.667 -14.499 44s-14.333 22.166 -24 29.499s-20.834 11 -33.501 11c-23.333 0 -39.833 -10.167 -49.5 -30.5s-14.5 -47.5 -14.5 -81.5c0 -19.333 1.5 -37.5 4.5 -54.5
s7.83301 -31.833 14.5 -44.5s14.667 -22.667 24 -30s20.666 -11 33.999 -11z" />
    <glyph glyph-name="h" unicode="h" horiz-adv-x="685" 
d="M257 452c10.667 12 22.834 24.168 36.501 36.501s28.5 23.5 44.5 33.5s33.333 18.167 52 24.5s38.667 9.5 60 9.5c48 0 85 -13.167 111 -39.5s39 -67.833 39 -124.5v-274c0 -11.333 1.16699 -20.5 3.5 -27.5s6.16602 -12.333 11.499 -16s12 -6.5 20 -8.5
s17.667 -3.66699 29 -5v-61h-293v61c11.333 1.33301 20.833 3 28.5 5s13.834 4.83301 18.501 8.5s8 9 10 16s3 16.167 3 27.5v258c0 23.333 -5 40.833 -15 52.5s-27.667 17.5 -53 17.5c-20.667 0 -39.667 -2.33301 -57 -7s-33.666 -10.334 -48.999 -17.001v-304
c0 -11.333 1 -20.5 3 -27.5s5.5 -12.333 10.5 -16s11.167 -6.5 18.5 -8.5s16.666 -3.66699 27.999 -5v-61h-293v61c11.333 1.33301 21.166 3 29.499 5s15 4.83301 20 8.5s8.66699 9 11 16s3.5 16.167 3.5 27.5v514l-59 54v34l198 41h30v-309z" />
    <glyph glyph-name="i" unicode="i" horiz-adv-x="357" 
d="M267 118c0 -11.333 1.16797 -20.5 3.50098 -27.5s6.16602 -12.333 11.499 -16s12 -6.5 20 -8.5s17.667 -3.66699 29 -5v-61h-297v61c10.667 1.33301 20.167 3 28.5 5s15 4.83301 20 8.5s8.83301 9 11.5 16s4 16.167 4 27.5v304l-59 55v29l196 51h32v-439zM180.001 597
c-30 0 -53.5 8.83301 -70.5 26.5s-25.5 38.5 -25.5 62.5s8.5 44.833 25.5 62.5s40.5 26.5 70.5 26.5c29.333 0 52.333 -8.83301 69 -26.5s25 -38.5 25 -62.5s-8.33301 -44.833 -25 -62.5s-39.667 -26.5 -69 -26.5z" />
    <glyph glyph-name="j" unicode="j" horiz-adv-x="312" 
d="M248 123c0 -26.667 -1.50098 -50.168 -4.50098 -70.501s-7.16699 -38.666 -12.5 -54.999s-11.833 -31.166 -19.5 -44.499s-16.5 -26 -26.5 -38c-23.333 -28 -47.166 -51.833 -71.499 -71.5s-50.5 -37.167 -78.5 -52.5l-34 32l39 64c18 28 28.833 57.667 32.5 89
s5.5 67.666 5.5 108.999v337l-58 55v29l197 51h31v-434zM160.999 596.999c-29.333 0 -52.5 8.83301 -69.5 26.5s-25.5 38.5 -25.5 62.5s8.5 44.833 25.5 62.5s40.167 26.5 69.5 26.5s52.5 -8.83301 69.5 -26.5s25.5 -38.5 25.5 -62.5s-8.5 -44.833 -25.5 -62.5
s-40.167 -26.5 -69.5 -26.5z" />
    <glyph glyph-name="k" unicode="k" horiz-adv-x="644" 
d="M400 419c6.66699 7.33301 12.333 13.834 17 19.501s7 11.167 7 16.5c0 10.667 -4.66699 17.667 -14 21s-26.333 6.66602 -51 9.99902v60h256v-60c-19.333 -5.33301 -36 -10.333 -50 -15s-27.333 -13 -40 -25l-103 -100l213 -299v-47h-174l-196 290zM256.999 118.001
c0 -11.333 1.33398 -20.5 4.00098 -27.5s6.5 -12.333 11.5 -16s11.5 -6.5 19.5 -8.5s17.667 -3.66699 29 -5v-61h-297v61c11.333 1.33301 21.166 3 29.499 5s15 4.83301 20 8.5s8.66699 9 11 16s3.5 16.167 3.5 27.5v514l-59 54v34l198 41h30v-643z" />
    <glyph glyph-name="l" unicode="l" horiz-adv-x="347" 
d="M256 118c0 -11.333 1.16895 -20.5 3.50195 -27.5s6.16602 -12.333 11.499 -16s12 -6.5 20 -8.5s17.667 -3.66699 29 -5v-61h-296v61c11.333 1.33301 21.166 3 29.499 5s15 4.83301 20 8.5s8.66699 9 11 16s3.5 16.167 3.5 27.5v514l-59 54v34l196 41h31v-643z" />
    <glyph glyph-name="m" unicode="m" horiz-adv-x="1018" 
d="M707 0l0.00292969 60.999c11.333 1.33301 20.666 3 27.999 5s13.166 4.83301 17.499 8.5s7.33301 9 9 16s2.5 16.167 2.5 27.5v258c0 25.333 -5 43.333 -15 54s-28 16 -54 16c-18.667 0 -35.334 -2.33301 -50.001 -7s-29.667 -10.334 -45 -17.001v-304
c0 -11.333 0.833008 -20.5 2.5 -27.5s4.83398 -12.333 9.50098 -16s10.667 -6.5 18 -8.5s16.666 -3.66699 27.999 -5v-61h-285v61c11.333 1.33301 20.666 3 27.999 5s13.333 4.83301 18 8.5s7.83398 9 9.50098 16s2.5 16.167 2.5 27.5v258
c0 25.333 -5.16699 43.333 -15.5 54s-28.166 16 -53.499 16c-19.333 0 -36.166 -2.33301 -50.499 -7s-29.166 -10.334 -44.499 -17.001v-304c0 -11.333 0.833008 -20.5 2.5 -27.5s4.66699 -12.333 9 -16s10.166 -6.5 17.499 -8.5s16.666 -3.66699 27.999 -5v-61h-290v61
c10.667 1.33301 20.167 3 28.5 5s15 4.83301 20 8.5s8.83301 9 11.5 16s4 16.167 4 27.5v301l-59 54v33l196 54h32v-108c10.667 12 22.167 24.167 34.5 36.5s26 23.5 41 33.5s31.333 18.167 49 24.5s37.5 9.5 59.5 9.5c33.333 0 63 -8.66699 89 -26
s43.667 -44.666 53 -81.999c10.667 11.333 22.834 23.333 36.501 36s28.667 24.334 45 35.001s34.166 19.5 53.499 26.5s40.333 10.5 63 10.5c44.667 0 79.5 -12.667 104.5 -38s37.5 -66.666 37.5 -123.999v-276c0 -11.333 1.16699 -20.5 3.5 -27.5
s6.16602 -12.333 11.499 -16s12 -6.5 20 -8.5s17.667 -3.66699 29 -5v-61h-290z" />
    <glyph glyph-name="n" unicode="n" horiz-adv-x="694" 
d="M440 376c0 23.333 -4.83105 40.834 -14.498 52.501s-27.167 17.5 -52.5 17.5c-20.667 0 -39.834 -2.33301 -57.501 -7s-33.834 -10.334 -48.501 -17.001v-304c0 -11.333 1 -20.5 3 -27.5s5.33301 -12.333 10 -16s10.834 -6.5 18.501 -8.5s17.167 -3.66699 28.5 -5v-61
h-293v61c10.667 1.33301 20.167 3 28.5 5s15 4.83301 20 8.5s8.83301 9 11.5 16s4 16.167 4 27.5v301l-59 54v33l196 54h32v-108c10.667 12 22.5 24.167 35.5 36.5s27.5 23.5 43.5 33.5s33.5 18.167 52.5 24.5s39.167 9.5 60.5 9.5c48 0 85 -13.167 111 -39.5
s39 -67.833 39 -124.5v-274c0 -11.333 1.16699 -20.5 3.5 -27.5s6.16602 -12.333 11.499 -16s12 -6.5 20 -8.5s17.667 -3.66699 29 -5v-61h-292v61c11.333 1.33301 20.833 3 28.5 5s13.667 4.83301 18 8.5s7.5 9 9.5 16s3 16.167 3 27.5v258z" />
    <glyph glyph-name="o" unicode="o" horiz-adv-x="624" 
d="M321 57c15.333 0 29 4.66797 41 14.001s22 22.5 30 39.5s14 37 18 60s6 48.5 6 76.5c0 34 -2.5 65.833 -7.5 95.5s-12.333 55.5 -22 77.5s-21.5 39.167 -35.5 51.5s-30 18.5 -48 18.5c-16 0 -30 -4.66699 -42 -14s-22 -22.5 -30 -39.5s-14 -37.167 -18 -60.5
s-6 -49 -6 -77c0 -34 2.5 -65.833 7.5 -95.5s12.333 -55.334 22 -77.001s21.667 -38.667 36 -51s30.5 -18.5 48.5 -18.5zM305 -9.99902c-41.333 0 -78.6699 7.00195 -112.003 21.002s-61.666 33.167 -84.999 57.5s-41.5 53.166 -54.5 86.499s-19.5 69.666 -19.5 108.999
c0 44.667 7.16699 85 21.5 121s34.333 66.667 60 92s55.834 44.833 90.501 58.5s72.334 20.5 113.001 20.5s77.834 -7 111.501 -21s62.167 -33.167 85.5 -57.5s41.5 -53.166 54.5 -86.499s19.5 -69.333 19.5 -108c0 -44.667 -7.33301 -85 -22 -121
s-34.667 -66.833 -60 -92.5s-55.333 -45.334 -90 -59.001s-72.334 -20.5 -113.001 -20.5z" />
    <glyph glyph-name="p" unicode="p" horiz-adv-x="666" 
d="M259 -79c0 -11.333 1.16797 -20.5 3.50098 -27.5s6 -12.333 11 -16s11.5 -6.5 19.5 -8.5s17.667 -3.66699 29 -5v-61h-296v61c11.333 1.33301 21 3 29 5s14.667 4.83301 20 8.5s9.16602 9 11.499 16s3.5 16.167 3.5 27.5v498l-59 54v33l197 54h31v-99
c16.667 28 38.334 50.833 65.001 68.5s59 26.5 97 26.5c32 0 61 -5.83301 87 -17.5s48 -28.5 66 -50.5s32 -48.667 42 -80s15 -67 15 -107c0 -48.667 -7 -92.167 -21 -130.5s-33.5 -70.833 -58.5 -97.5s-54.333 -47.167 -88 -61.5s-70.167 -21.5 -109.5 -21.5
c-20.667 0 -39.334 2.66699 -56.001 8s-29.667 12.333 -39 21v-98zM341.001 54c18.667 0 35.334 4.83301 50.001 14.5s27.167 23.167 37.5 40.5s18.166 38 23.499 62s8 50.333 8 79c0 61.333 -11.5 110 -34.5 146s-54.5 54 -94.5 54c-27.333 0 -51.333 -6.66699 -72 -20
v-265c0 -36 6.33301 -63.5 19 -82.5s33.667 -28.5 63 -28.5z" />
    <glyph glyph-name="q" unicode="q" horiz-adv-x="645" 
d="M311 556c69.333 0 123.668 -20.666 163.001 -61.999l48 63h60l-6 -121v-515c0 -11.333 1.16699 -20.5 3.5 -27.5s6.16602 -12.333 11.499 -16s12 -6.5 20 -8.5s17.667 -3.66699 29 -5v-61h-297v61c11.333 1.33301 21 3 29 5s14.667 4.83301 20 8.5s9.16602 9 11.499 16
s3.5 16.167 3.5 27.5v165c-16.667 -28.667 -38 -51.834 -64 -69.501s-60 -26.5 -102 -26.5c-30.667 0 -58.667 5.83301 -84 17.5s-47.166 28.5 -65.499 50.5s-32.5 48.667 -42.5 80s-15 67 -15 107c0 48.667 7 92.167 21 130.5s33.333 70.833 58 97.5s54 47.167 88 61.5
s70.667 21.5 110 21.5zM325.002 494.001c-19.333 0 -36.333 -5 -51 -15s-27 -23.833 -37 -41.5s-17.667 -38.667 -23 -63s-8 -50.833 -8 -79.5c0 -60 11.333 -108.167 34 -144.5s54.667 -54.5 96 -54.5c13.333 0 26 1.83301 38 5.5s23 8.5 33 14.5v271
c0 36.667 -6.33301 63.667 -19 81s-33.667 26 -63 26z" />
    <glyph glyph-name="r" unicode="r" horiz-adv-x="471" 
d="M267 388c11.333 32.667 22.334 59.8301 33.001 81.4971s22 38.834 34 51.501s24.667 21.667 38 27s28.666 8 45.999 8c10.667 0 19.334 -1.16699 26.001 -3.5s12.667 -5.16602 18 -8.49902v-145h-24c-31.333 0 -61.5 -2.5 -90.5 -7.5s-55.833 -17.833 -80.5 -38.5v-236
c0 -11.333 1.5 -20.166 4.5 -26.499s7.83301 -11.333 14.5 -15s15.167 -6.5 25.5 -8.5s23.166 -4 38.499 -6v-61h-316v61c10.667 1.33301 20.167 3 28.5 5s15 4.83301 20 8.5s8.83301 9 11.5 16s4 16.167 4 27.5v301l-59 54v33l195 54h33v-172z" />
    <glyph glyph-name="s" unicode="s" horiz-adv-x="503" 
d="M249 -10c-42.667 0 -81.168 5.16699 -115.501 15.5s-63.166 23.833 -86.499 40.5l-6 124h76c9.33301 -39.333 24.833 -68.833 46.5 -88.5s51.834 -29.5 90.501 -29.5c26 0 47.167 5.16699 63.5 15.5s24.5 25.833 24.5 46.5c0 10.667 -2 20 -6 28s-10.5 15 -19.5 21
s-21 11.5 -36 16.5s-33.833 10.167 -56.5 15.5c-60.667 14.667 -106.167 35.667 -136.5 63s-45.5 66.333 -45.5 117c0 58 18.667 102.667 56 134s88.333 47 153 47c35.333 0 68.333 -4.16699 99 -12.5s57 -19.5 79 -33.5v-113h-74
c-7.33301 30.667 -19.666 54.5 -36.999 71.5s-42 25.5 -74 25.5c-24 0 -42.333 -5.83301 -55 -17.5s-19 -26.167 -19 -43.5c0 -10 1.5 -18.667 4.5 -26s8.66699 -14 17 -20s19.666 -11.5 33.999 -16.5s32.833 -9.83301 55.5 -14.5c26.667 -6 51.5 -13.5 74.5 -22.5
s42.667 -20.5 59 -34.5s29.166 -30.833 38.499 -50.5s14 -43.5 14 -71.5c0 -59.333 -19.167 -105.333 -57.5 -138s-91.833 -49 -160.5 -49z" />
    <glyph glyph-name="t" unicode="t" horiz-adv-x="412" 
d="M247 546h137v-71h-137v-316c0 -24.667 5.16699 -42.5 15.5 -53.5s27.166 -16.5 50.499 -16.5c26.667 0 52.334 6.66699 77.001 20l18 -46c-23.333 -23.333 -49.833 -41.333 -79.5 -54s-62.5 -19 -98.5 -19c-50 0 -88 12.167 -114 36.5s-39 62.5 -39 114.5v334h-68v50
c32.667 12 65.5 31.167 98.5 57.5s62.167 55.5 87.5 87.5h52v-124z" />
    <glyph glyph-name="u" unicode="u" horiz-adv-x="675" 
d="M415 88c-9.33301 -11.333 -20.335 -22.8359 -33.002 -34.5029s-26.667 -22.167 -42 -31.5s-32.333 -17 -51 -23s-39 -9 -61 -9c-44 0 -79.667 13.5 -107 40.5s-41 69.833 -41 128.5v240c0 15.333 -2.66699 27.833 -8 37.5s-16.666 16.167 -33.999 19.5l-15 5v52l196 43
h31v-380c0 -54.667 22.333 -82 67 -82c20 0 37.667 2.33301 53 7s30.333 10.334 45 17.001v281c0 15.333 -2.66699 27.833 -8 37.5s-16.666 16.167 -33.999 19.5l-14 5v52l194 43h32v-418c0 -17.333 2.66699 -30.166 8 -38.499s16.333 -13.166 33 -14.499h24v-62l-201 -33
h-34v98z" />
    <glyph glyph-name="v" unicode="v" horiz-adv-x="607" 
d="M602 486c-18 -6.66699 -30.667 -12.335 -38 -17.002s-13.333 -12.334 -18 -23.001l-212 -451h-50l-222 451c-2.66699 5.33301 -5.5 9.83301 -8.5 13.5s-6.5 6.83398 -10.5 9.50098s-9 5.33398 -15 8.00098s-13.667 5.66699 -23 9v60h316v-60
c-26 -3.33301 -43.833 -7.16602 -53.5 -11.499s-14.5 -12.5 -14.5 -24.5c0 -7.33301 2.66699 -17.666 8 -30.999l93 -218l96 218c3.33301 8 5.5 14.167 6.5 18.5s1.5 8.5 1.5 12.5c0 12 -5 20.167 -15 24.5s-27.667 8.16602 -53 11.499v60h212v-60z" />
    <glyph glyph-name="w" unicode="w" horiz-adv-x="879" 
d="M727 418c4.66699 12 6.99902 22.6641 6.99902 31.9971c0 12 -4.16699 20.333 -12.5 25s-21.166 8.33398 -38.499 11.001v60h191v-60c-18.667 -6.66699 -31.667 -12.167 -39 -16.5s-13.333 -12.166 -18 -23.499l-183 -451h-54l-131 322l-138 -322h-53l-197 451
c-4.66699 10.667 -10.5 18.5 -17.5 23.5s-19.833 10.5 -38.5 16.5v60h291v-60c-16.667 -2.66699 -28.334 -6.5 -35.001 -11.5s-10 -12.167 -10 -21.5c0 -5.33301 0.833008 -10.833 2.5 -16.5s4.16699 -12.167 7.5 -19.5l77 -200l76 183l-18 46
c-4.66699 11.333 -10 19.833 -16 25.5s-16.333 10.5 -31 14.5v60h273v-60c-19.333 -2.66699 -32.666 -6.16699 -39.999 -10.5s-11 -12.166 -11 -23.499c0 -5.33301 0.833008 -11 2.5 -17s3.5 -11.667 5.5 -17l72 -197z" />
    <glyph glyph-name="x" unicode="x" horiz-adv-x="607" 
d="M213 276l-134.998 170.001c-6.66699 8.66699 -13.167 16 -19.5 22s-17.5 12 -33.5 18v60h301v-60c-16.667 -2 -29.167 -4.66699 -37.5 -8s-12.5 -10 -12.5 -20c0 -6 1.66699 -11.5 5 -16.5s7.66602 -11.167 12.999 -18.5l57 -74l59 74c10.667 12.667 16 24 16 34
s-3.83301 16.5 -11.5 19.5s-19.167 6.16699 -34.5 9.5v60h200v-60c-14.667 -6.66699 -27.334 -13.167 -38.001 -19.5s-19.667 -13.833 -27 -22.5l-121 -150l147 -193c7.33301 -9.33301 15.5 -17.833 24.5 -25.5s21.167 -12.5 36.5 -14.5v-61h-310v61c19.333 2 33.333 5 42 9
s13 11.333 13 22c0 5.33301 -1.5 10.666 -4.5 15.999s-6.83301 10.666 -11.5 15.999l-77 98l-73 -98c-4 -5.33301 -7.33301 -10.666 -10 -15.999s-4 -10.666 -4 -15.999c0 -10 4 -16.833 12 -20.5s21.667 -7.16699 41 -10.5v-61h-215v61
c15.333 2.66699 28.5 7.66699 39.5 15s20.5 15.666 28.5 24.999z" />
    <glyph glyph-name="y" unicode="y" horiz-adv-x="610" 
d="M62 446c-5.33301 10.667 -11.498 18.333 -18.498 23s-19.833 10.334 -38.5 17.001v60h316v-60c-26 -3.33301 -44 -7.16602 -54 -11.499s-15 -12.5 -15 -24.5c0 -4 0.666992 -8.5 2 -13.5s4 -12.5 8 -22.5l94 -229l93 229c4 10.667 6.66699 18.334 8 23.001s2 9 2 13
c0 12 -4.66699 20.167 -14 24.5s-27 8.16602 -53 11.499v60h213v-60c-9.33301 -3.33301 -17 -6.16602 -23 -8.49902s-11.167 -5 -15.5 -8s-7.83301 -6.33301 -10.5 -10s-5.33398 -8.16699 -8.00098 -13.5l-229 -525c-19.333 -44 -40.5 -76.5 -63.5 -97.5
s-51.5 -31.5 -85.5 -31.5c-19.333 0 -36.333 3.66699 -51 11s-25.667 16.666 -33 27.999v85h58c17.333 0 32.166 0.666992 44.499 2s23 4.16602 32 8.49902s17 10.666 24 18.999s13.5 19.5 19.5 33.5l8 19z" />
    <glyph glyph-name="z" unicode="z" horiz-adv-x="560" 
d="M28 42l285.999 440.998h-99c-14 0 -25.667 -2.33301 -35 -7s-17.833 -12.167 -25.5 -22.5s-15.167 -24.166 -22.5 -41.499s-15.666 -38.666 -24.999 -63.999h-64v198h472v-45l-279 -437h93c16 0 29.667 2.16699 41 6.5s22 11.666 32 21.999s19.667 24.333 29 42
s20 39.834 32 66.501h64l-22 -201h-477v42z" />
    <glyph glyph-name="braceleft" unicode="{" horiz-adv-x="383" 
d="M50 331c24 5.33301 43.833 15.335 59.5 30.002s23.5 38 23.5 70v211c0 40 17.167 71.333 51.5 94s88.166 34 161.499 34v-38c-12 -1.33301 -23.667 -4.16602 -35 -8.49902s-21.5 -10.333 -30.5 -18s-16.167 -17.334 -21.5 -29.001s-8 -25.834 -8 -42.501v-207
c0 -34 -6.83301 -58.667 -20.5 -74s-37.167 -28 -70.5 -38c33.333 -10 56.833 -22.667 70.5 -38s20.5 -40 20.5 -74v-207c0 -16.667 2.66699 -30.834 8 -42.501s12.5 -21.334 21.5 -29.001s19.167 -13.667 30.5 -18s23 -7.16602 35 -8.49902v-39
c-73.333 0 -127.166 11.333 -161.499 34s-51.5 54 -51.5 94v212c0 32 -7.83301 55.333 -23.5 70s-35.5 24.667 -59.5 30v32z" />
    <glyph glyph-name="bar" unicode="|" horiz-adv-x="293" 
d="M193 -141h-93v911h93v-911z" />
    <glyph glyph-name="braceright" unicode="}" horiz-adv-x="383" 
d="M333 299c-24 -5.33301 -43.833 -15.335 -59.5 -30.002s-23.5 -38 -23.5 -70v-212c0 -40 -17.333 -71.333 -52 -94s-88.334 -34 -161.001 -34v39c12 1.33301 23.5 4.16602 34.5 8.49902s21 10.333 30 18s16.167 17.334 21.5 29.001s8 25.834 8 42.501v207
c0 34 6.83301 58.667 20.5 74s37.167 28 70.5 38c-33.333 10 -56.833 22.667 -70.5 38s-20.5 40 -20.5 74v207c0 16.667 -2.66699 30.834 -8 42.501s-12.5 21.334 -21.5 29.001s-19 13.667 -30 18s-22.5 7.16602 -34.5 8.49902v38c72.667 0 126.334 -11.333 161.001 -34
s52 -54 52 -94v-211c0 -32 7.83301 -55.333 23.5 -70s35.5 -24.667 59.5 -30v-32z" />
    <glyph glyph-name="asciitilde" unicode="~" horiz-adv-x="568" 
d="M518 422c-9.33301 -32 -19.667 -59 -31 -81s-24 -39.667 -38 -53s-29 -23 -45 -29s-32.667 -9 -50 -9c-14 0 -28.167 3.16699 -42.5 9.5s-28.333 13.5 -42 21.5s-27 15.167 -40 21.5s-25.5 9.5 -37.5 9.5c-32 0 -60.333 -20 -85 -60l-57 17c18 64 41 108.5 69 133.5
s59.667 37.5 95 37.5c14 0 28.167 -3.16699 42.5 -9.5s28.333 -13.5 42 -21.5s27 -15.167 40 -21.5s25.167 -9.5 36.5 -9.5c32.667 0 61 20 85 60z" />
    <glyph glyph-name="exclamdown" unicode="&#xa1;" horiz-adv-x="327" 
d="M67 453c0 13.333 2.50195 25.833 7.50195 37.5s12 22 21 31s19.167 16 30.5 21s23.666 7.5 36.999 7.5c27.333 0 50.166 -9.5 68.499 -28.5s27.5 -41.833 27.5 -68.5c0 -14 -2.5 -27.167 -7.5 -39.5s-11.833 -23 -20.5 -32s-18.834 -16 -30.501 -21
s-24.167 -7.5 -37.5 -7.5s-25.666 2.5 -36.999 7.5s-21.5 12 -30.5 21s-16 19.667 -21 32s-7.5 25.5 -7.5 39.5zM259.002 -162h-191l56 469h79z" />
    <glyph glyph-name="cent" unicode="&#xa2;" horiz-adv-x="586" 
d="M227 0c-56.667 14 -102.337 43.3311 -137.004 87.998s-52 101.667 -52 171c0 45.333 7.5 86.666 22.5 123.999s35.667 69.333 62 96s57.5 47.334 93.5 62.001s75 22.334 117 23.001l21 112h56l-22 -116c22.667 -2.66699 43.334 -7.5 62.001 -14.5s34.834 -16 48.501 -27
s24.334 -24 32.001 -39s11.5 -32.5 11.5 -52.5c0 -19.333 -4.66699 -34.333 -14 -45s-20.666 -18.667 -33.999 -24h-71v42c0 50.667 -15.667 82.334 -47 95.001l-71 -373c18 -5.33301 36.667 -8 56 -8c36 0 65.667 7.5 89 22.5s44.333 34.5 63 58.5l39 -20
c-17.333 -62.667 -47 -109.167 -89 -139.5s-94.333 -45.5 -157 -45.5c-4.66699 0 -9 0.166992 -13 0.5s-8 0.5 -12 0.5l-20 -106h-55zM188.997 318.998c0 -79.333 22 -136.333 66 -171l67 356h-1c-18.667 0 -36 -4 -52 -12s-30 -19.833 -42 -35.5s-21.333 -35 -28 -58
s-10 -49.5 -10 -79.5z" />
    <glyph glyph-name="sterling" unicode="&#xa3;" horiz-adv-x="660" 
d="M98 365l95 0.000976562l3 45c4.66699 84.667 26.667 148.334 66 191.001s94 64 164 64c24.667 0 47.667 -2 69 -6s39.833 -10.667 55.5 -20s28 -21.5 37 -36.5s13.5 -33.167 13.5 -54.5c0 -17.333 -4 -31.833 -12 -43.5s-17.333 -19.834 -28 -24.501h-90v53
c0 24.667 -3.5 43.834 -10.5 57.501s-19.5 20.5 -37.5 20.5c-18.667 0 -32.167 -8.66699 -40.5 -26s-14.166 -40 -17.499 -68l-16 -152h148v-52h-153l-5 -51c-2 -20.667 -4.83301 -40.334 -8.5 -59.001s-7.83398 -34 -12.501 -46c12 -4 25.167 -8.16699 39.5 -12.5
s29 -8 44 -11s30.167 -5.5 45.5 -7.5s29.666 -3 42.999 -3c30 0 51.167 6 63.5 18s18.5 34 18.5 66l39 8c4.66699 -9.33301 8.66699 -20.333 12 -33s5 -28.334 5 -47.001c0 -46 -12.833 -81.667 -38.5 -107s-62.5 -38 -110.5 -38c-21.333 0 -41.833 2.66699 -61.5 8
s-38.167 12 -55.5 20s-33.166 16.833 -47.499 26.5s-26.833 19.167 -37.5 28.5c-16 -26.667 -37.833 -47.167 -65.5 -61.5s-57.5 -21.5 -89.5 -21.5c-36 0 -63.833 9.33301 -83.5 28s-29.5 43.667 -29.5 75c0 34 10.333 60.333 31 79s47 28 79 28
c9.33301 0 19.5 -0.833008 30.5 -2.5s21.833 -4.5 32.5 -8.5l8 124h-92v52zM117 42.001c35.333 0 54.998 28.335 58.998 85.002c-8.66699 5.33301 -17.667 9.66602 -27 12.999s-19.666 5 -30.999 5c-17.333 0 -30.166 -5 -38.499 -15s-12.5 -22.333 -12.5 -37
c0 -16.667 4.66699 -29.334 14 -38.001s21.333 -13 36 -13z" />
    <glyph glyph-name="yen" unicode="&#xa5;" horiz-adv-x="674" 
d="M99 363l83.999 -0.000976562l-116 197c-7.33301 12.667 -15 21.167 -23 25.5s-18.667 7.83301 -32 10.5v59h314v-59c-27.333 -1.33301 -45.333 -4.66602 -54 -9.99902s-13 -14.333 -13 -27c0 -8.66699 1.83301 -17.167 5.5 -25.5s8.5 -18.166 14.5 -29.499l104 -190
l106 190c6.66699 12 11.834 22.333 15.501 31s5.5 16.667 5.5 24c0 12.667 -5.16699 21.667 -15.5 27s-27.833 8.66602 -52.5 9.99902v59h221v-59c-14 -2.66699 -25 -6.16699 -33 -10.5s-15.667 -12.833 -23 -25.5l-113 -197h92v-52h-122l-38 -65h160v-51h-164v-70
c0 -25.333 6 -42.333 18 -51s34 -13.667 66 -15v-59h-335v59c32.667 1.33301 55.167 6.33301 67.5 15s18.5 25.667 18.5 51v70h-158v51h154l-39 65h-115v52z" />
    <glyph glyph-name="section" unicode="&#xa7;" horiz-adv-x="529" 
d="M229 -203c-48 0 -86.833 9.99902 -116.5 29.999s-44.5 46.667 -44.5 80c0 17.333 4.33301 30.5 13 39.5s18.667 15.5 30 19.5h88v-32c0 -8.66699 0.833008 -18.167 2.5 -28.5s5 -20 10 -29s12 -16.5 21 -22.5s20.5 -9 34.5 -9c22 0 38 6.83301 48 20.5s15 29.167 15 46.5
c0 16.667 -5 34.667 -15 54s-22.833 39.666 -38.5 60.999l-51.5 67c-18.667 23.333 -36.667 47 -54 71c-34.667 48.667 -63.667 97.667 -87 147s-35 103 -35 161c0 36.667 6.33301 69.667 19 99s30.334 54.333 53.001 75s49.334 36.667 80.001 48s63.667 17 99 17
c23.333 0 44.833 -2.66699 64.5 -8s36.667 -12.666 51 -21.999s25.5 -20.833 33.5 -34.5s12 -28.5 12 -44.5c0 -17.333 -4.5 -30.5 -13.5 -39.5s-19.167 -15.5 -30.5 -19.5h-87v32c0 8.66699 -1 18 -3 28s-5.5 19.5 -10.5 28.5s-12 16.5 -21 22.5s-20.5 9 -34.5 9
c-21.333 0 -37 -6.83301 -47 -20.5s-15 -28.834 -15 -45.501c0 -17.333 5 -35.666 15 -54.999s22.667 -39.666 38 -60.999s32.333 -43.5 51 -66.5s36.667 -46.833 54 -71.5c17.333 -24 33.666 -48.167 48.999 -72.5s28.5 -49.166 39.5 -74.499s19.667 -51.333 26 -78
s9.5 -54.334 9.5 -83.001c0 -36.667 -6.5 -69.667 -19.5 -99s-30.833 -54.333 -53.5 -75s-49.334 -36.667 -80.001 -48s-63.667 -17 -99 -17zM391 -93.001c8 12.667 14.833 29.834 20.5 51.501s8.5 47.5 8.5 77.5c0 42.667 -11.5 87.834 -34.5 135.501
s-52.833 95.5 -89.5 143.5l-54 72c-18.667 25.333 -35.667 50.5 -51 75.5s-28 49.5 -38 73.5s-15 46 -15 66c-8 -12.667 -14.833 -29.834 -20.5 -51.501s-8.5 -47.5 -8.5 -77.5c0 -42.667 11.5 -87.834 34.5 -135.501s52.833 -95.5 89.5 -143.5l54 -72.5
c18.667 -25 35.667 -50 51 -75s28 -49.5 38 -73.5s15 -46 15 -66z" />
    <glyph glyph-name="dieresis" unicode="&#xa8;" 
d="M59 688c0 22.667 8 42.167 24 58.5s35.667 24.5 59 24.5s43.166 -8.16699 59.499 -24.5s24.5 -35.833 24.5 -58.5s-8.16699 -42.167 -24.5 -58.5s-36.166 -24.5 -59.499 -24.5s-43 8.16699 -59 24.5s-24 35.833 -24 58.5zM273 688c0 11.333 2.16699 22 6.5 32
s10.333 18.833 18 26.5s16.334 13.667 26.001 18s20.167 6.5 31.5 6.5c24 0 44.167 -8.16699 60.5 -24.5s24.5 -35.833 24.5 -58.5s-8.16699 -42.167 -24.5 -58.5s-36.5 -24.5 -60.5 -24.5c-11.333 0 -21.833 2.16699 -31.5 6.5s-18.334 10.333 -26.001 18
s-13.667 16.5 -18 26.5s-6.5 20.667 -6.5 32z" />
    <glyph glyph-name="copyright" unicode="&#xa9;" horiz-adv-x="796" 
d="M82 351c0 -44 7.66699 -85.667 23 -125s37 -73.5 65 -102.5s61.333 -52 100 -69s81.334 -25.5 128.001 -25.5s89.334 8.5 128.001 25.5s72 40 100 69s49.667 63.167 65 102.5s23 81 23 125s-7.66699 85.667 -23 125s-37 73.5 -65 102.5s-61.333 52 -100 69
s-81.334 25.5 -128.001 25.5s-89.334 -8.5 -128.001 -25.5s-72 -40 -100 -69s-49.667 -63.167 -65 -102.5s-23 -81 -23 -125zM40 351c0 50 8.83301 96.833 26.5 140.5s42.334 81.834 74.001 114.501s69.5 58.5 113.5 77.5s92 28.5 144 28.5s100 -9.5 144 -28.5
s81.833 -44.833 113.5 -77.5s56.334 -70.834 74.001 -114.501s26.5 -90.5 26.5 -140.5s-8.83301 -96.833 -26.5 -140.5s-42.334 -81.834 -74.001 -114.501s-69.5 -58.5 -113.5 -77.5s-92 -28.5 -144 -28.5s-100 9.5 -144 28.5s-81.833 44.833 -113.5 77.5
s-56.334 70.834 -74.001 114.501s-26.5 90.5 -26.5 140.5zM424 190c12.667 0 23.335 2.66992 32.002 8.00293s16.167 12.5 22.5 21.5s11.833 19.667 16.5 32s9.33398 25.5 14.001 39.5h60l-9 -112c-18 -11.333 -39 -20.5 -63 -27.5s-51.333 -10.5 -82 -10.5
c-33.333 0 -63.166 5 -89.499 15s-48.5 24 -66.5 42s-31.833 39.5 -41.5 64.5s-14.5 52.167 -14.5 81.5c0 34 5.66699 64.5 17 91.5s26.666 50 45.999 69s42 33.667 68 44s53.667 15.5 83 15.5c30 0 56.667 -3.83301 80 -11.5s42.666 -17.834 57.999 -30.501v-96h-59
c-6 25.333 -14.833 47 -26.5 65s-29.167 27 -52.5 27c-18 0 -32.833 -4.33301 -44.5 -13s-20.834 -20.334 -27.501 -35.001s-11.334 -32 -14.001 -52s-4 -41 -4 -63c0 -23.333 2 -45 6 -65s10 -37.333 18 -52s18.167 -26.334 30.5 -35.001s26.5 -13 42.5 -13z" />
    <glyph glyph-name="ordfeminine" unicode="&#xaa;" horiz-adv-x="470" 
d="M205 391c9.33301 0 17.833 1.33301 25.5 4s16.167 7 25.5 13v115l-50 -20c-16 -7.33301 -27.833 -15.5 -35.5 -24.5s-11.5 -20.833 -11.5 -35.5c0 -17.333 4.33301 -30.333 13 -39s19.667 -13 33 -13zM378 574c0 -10 -0.163086 -22.334 -0.496094 -37.001
s-0.5 -29.5 -0.5 -44.5s-0.166992 -28.667 -0.5 -41s-0.5 -20.833 -0.5 -25.5c0 -27.333 8.66699 -41 26 -41c3.33301 0 7.66602 0.333008 12.999 1s10.666 1.66699 15.999 3l7 -33c-12.667 -12 -27.167 -21.833 -43.5 -29.5s-33.5 -11.5 -51.5 -11.5
c-22.667 0 -40.834 6.33301 -54.501 19s-23.834 27.667 -30.501 45c-13.333 -17.333 -30.666 -32 -51.999 -44s-44.333 -18 -69 -18c-30.667 0 -55 9 -73 27s-27 42 -27 72c0 16 2.66699 29.833 8 41.5s12.5 21.5 21.5 29.5s19.333 14.833 31 20.5s23.834 10.5 36.501 14.5
l122 39v44c0 24 -3.33301 42.167 -10 54.5s-18.334 18.5 -35.001 18.5c-14.667 0 -25.334 -4 -32.001 -12s-10 -19 -10 -33c0 -15.333 2 -31.333 6 -48l-88 -13c-19.333 8.66699 -29 25.334 -29 50.001c0 33.333 15 58.333 45 75s68.667 25 116 25c52 0 91.5 -11 118.5 -33
s40.5 -60.333 40.5 -115z" />
    <glyph glyph-name="guillemotleft" unicode="&#xab;" horiz-adv-x="547" 
d="M37 281l177 198h79l-113 -203l113 -203h-79l-177 198v10zM253 281l177 198h80l-115 -203l115 -203h-80l-177 198v10z" />
    <glyph glyph-name="registered" unicode="&#xae;" horiz-adv-x="555" 
d="M254 581v-90h10c31.333 0 47 15.333 47 46c0 29.333 -15.667 44 -47 44h-10zM280 608c34.667 0 59.6631 -6.99902 74.9961 -20.999s23 -30.667 23 -50c0 -18 -5.66699 -32.667 -17 -44s-23.666 -18.666 -36.999 -21.999l44 -56
c10.667 -14.667 21.334 -22.334 32.001 -23.001v-22h-61c-5.33301 3.33301 -10.666 8 -15.999 14s-10.666 12.667 -15.999 20l-41 62h-12v-49c0 -9.33301 1.5 -15.833 4.5 -19.5s9.83301 -5.5 20.5 -5.5v-22h-113v22c11.333 0 18.666 1.83301 21.999 5.5s5 10.167 5 19.5
v143c0 10.667 -1.66699 17.167 -5 19.5s-10.666 4.16602 -21.999 5.49902v23h114zM86.9961 484.001c0 -26 4.66699 -50.667 14 -74s22.5 -43.833 39.5 -61.5s37.167 -31.667 60.5 -42s48.666 -15.5 75.999 -15.5c28 0 53.667 5.16699 77 15.5s43.5 24.333 60.5 42
s30.167 38.167 39.5 61.5s14 48 14 74s-4.66699 50.667 -14 74s-22.5 44 -39.5 62s-37.167 32.167 -60.5 42.5s-49 15.5 -77 15.5c-27.333 0 -52.666 -5.16699 -75.999 -15.5s-43.5 -24.5 -60.5 -42.5s-30.167 -38.667 -39.5 -62s-14 -48 -14 -74zM49.9961 484.001
c0 31.333 5.66699 60.833 17 88.5s27 51.834 47 72.501s43.833 37 71.5 49s58.167 18 91.5 18s64 -6 92 -18s52 -28.333 72 -49s35.667 -44.834 47 -72.501s17 -57.167 17 -88.5s-5.66699 -60.833 -17 -88.5s-27 -51.667 -47 -72s-44 -36.5 -72 -48.5s-58.667 -18 -92 -18
s-63.833 6 -91.5 18s-51.5 28.167 -71.5 48.5s-35.667 44.333 -47 72s-17 57.167 -17 88.5z" />
    <glyph glyph-name="macron" unicode="&#xaf;" 
d="M101 718h298v-93h-298v93z" />
    <glyph glyph-name="degree" unicode="&#xb0;" horiz-adv-x="374" 
d="M96 553c0 -28 8.16699 -51.167 24.5 -69.5s38.5 -27.5 66.5 -27.5s50.167 9.16699 66.5 27.5s24.5 41.5 24.5 69.5s-8.16699 51.167 -24.5 69.5s-38.5 27.5 -66.5 27.5s-50.167 -9.16699 -66.5 -27.5s-24.5 -41.5 -24.5 -69.5zM26 553c0 22.667 4.16699 43.667 12.5 63
s19.666 36.166 33.999 50.499s31.333 25.5 51 33.5s40.834 12 63.501 12s43.667 -4 63 -12s36.333 -19.167 51 -33.5s26.167 -31.166 34.5 -50.499s12.5 -40.333 12.5 -63s-4.16699 -43.667 -12.5 -63s-19.833 -36.166 -34.5 -50.499s-31.667 -25.5 -51 -33.5
s-40.333 -12 -63 -12s-43.834 4 -63.501 12s-36.667 19.167 -51 33.5s-25.666 31.166 -33.999 50.499s-12.5 40.333 -12.5 63z" />
    <glyph glyph-name="plusminus" unicode="&#xb1;" horiz-adv-x="596" 
d="M341 565v-136h180v-86h-180v-137h-87v137h-179v86h179v136h87zM75 155h446v-86h-446v86z" />
    <glyph glyph-name="twosuperior" unicode="&#xb2;" horiz-adv-x="442" 
d="M274 388c10.667 0 19.3301 0.500977 25.9971 1.50098s12.834 3.5 18.501 7.5s11.334 9.5 17.001 16.5s12.5 16.5 20.5 28.5h37l-13 -155h-355v42l124 112c32 28 55.5 52.667 70.5 74s22.5 45 22.5 71c0 21.333 -6.16699 38.166 -18.5 50.499s-30.166 18.5 -53.499 18.5
c-21.333 0 -40.333 -5.66699 -57 -17s-30.667 -23.666 -42 -36.999l-30 32c8 14.667 18 29 30 43s26 26.333 42 37s33.833 19.167 53.5 25.5s41.167 9.5 64.5 9.5c42.667 0 77.167 -11.333 103.5 -34s39.5 -54.667 39.5 -96c0 -24.667 -6 -47.334 -18 -68.001
s-27.833 -40.167 -47.5 -58.5s-42.167 -36 -67.5 -53l-78 -50.5h111z" />
    <glyph glyph-name="threesuperior" unicode="&#xb3;" horiz-adv-x="434" 
d="M253 537c40 -1.33301 72.502 -12.4971 97.502 -33.4971s37.5 -49.167 37.5 -84.5c0 -23.333 -5 -43.833 -15 -61.5s-23.833 -32.334 -41.5 -44.001s-38 -20.5 -61 -26.5s-47.5 -9 -73.5 -9c-56 0 -97 9.5 -123 28.5s-39 41.167 -39 66.5c0 14.667 3.33301 26.167 10 34.5
s13.667 14.166 21 17.499h80v-24c0 -25.333 4.66699 -45 14 -59s23.666 -21 42.999 -21c37.333 0 56 25 56 75c0 30 -7.66699 52.833 -23 68.5s-37 23.5 -65 23.5h-19l-9 29c33.333 13.333 57 26.166 71 38.499s21 27.5 21 45.5c0 14.667 -5 26.834 -15 36.501
s-24.667 14.5 -44 14.5c-21.333 0 -38.833 -5 -52.5 -15s-25.167 -21.333 -34.5 -34l-34 23c14 32.667 36.167 60.5 66.5 83.5s68.166 34.5 113.499 34.5c40 0 71.667 -9.33301 95 -28s35 -44.334 35 -77.001c0 -29.333 -11.167 -52.5 -33.5 -69.5
s-48.5 -27.833 -78.5 -32.5z" />
    <glyph glyph-name="acute" unicode="&#xb4;" 
d="M371 765l-154 -162h-85l69 162h170z" />
    <glyph glyph-name="paragraph" unicode="&#xb6;" horiz-adv-x="659" 
d="M323 200c-44.667 0 -84 6.66504 -118 19.998s-62.667 31.5 -86 54.5s-41 49.833 -53 80.5s-18 63 -18 97s6 66.167 18 96.5s29.667 56.833 53 79.5s52 40.667 86 54s73.333 20 118 20h307v-63c-19.333 0 -35.5 -1 -48.5 -3s-23.5 -5.66699 -31.5 -11
s-13.667 -12.666 -17 -21.999s-5 -21.666 -5 -36.999v-763h-69v844h-66v-844h-70v397zM323 649.998c-20 -2 -37.167 -8.83203 -51.5 -20.499s-26 -26.5 -35 -44.5s-15.667 -38.5 -20 -61.5s-6.5 -46.833 -6.5 -71.5s2.16699 -48.5 6.5 -71.5s11 -43.833 20 -62.5
s20.667 -33.834 35 -45.501s31.5 -18.5 51.5 -20.5v398z" />
    <glyph glyph-name="periodcentered" unicode="&#xb7;" horiz-adv-x="303" 
d="M51 304c0 30 9.66699 54.333 29 73s43 28 71 28c14 0 27.167 -2.5 39.5 -7.5s23 -12 32 -21s16.167 -19.667 21.5 -32s8 -25.833 8 -40.5s-2.66699 -28 -8 -40s-12.5 -22.5 -21.5 -31.5s-19.667 -16 -32 -21s-25.5 -7.5 -39.5 -7.5c-28 0 -51.667 9.33301 -71 28
s-29 42.667 -29 72z" />
    <glyph glyph-name="onesuperior" unicode="&#xb9;" horiz-adv-x="388" 
d="M269 748v-367c0 -10 1 -17.833 3 -23.5s6 -10 12 -13s14 -5.16699 24 -6.5s23 -2.33301 39 -3v-48h-292v48c18 0.666992 32.333 1.66699 43 3s18.667 3.5 24 6.5s8.66602 7.33301 9.99902 13s2 13.5 2 23.5v228h-79v44l28 6c18.667 4 35 8.66699 49 14
s26.333 11.5 37 18.5s20.334 15.167 29.001 24.5s17.667 20 27 32h44z" />
    <glyph glyph-name="ordmasculine" unicode="&#xba;" horiz-adv-x="470" 
d="M242 363c22 0 38.333 12.833 49 38.5s16 59.5 16 101.5c0 52 -6.83301 93.333 -20.5 124s-32.834 46 -57.501 46c-21.333 0 -37.666 -12.833 -48.999 -38.5s-17 -59.5 -17 -101.5c0 -52 7.16699 -93.333 21.5 -124s33.5 -46 57.5 -46zM230 315
c-30 0 -57.333 4.83301 -82 14.5s-45.667 23 -63 40s-30.666 37.5 -39.999 61.5s-14 50.667 -14 80c0 32 5 61 15 87s24.333 48.167 43 66.5s40.834 32.333 66.501 42s54.167 14.5 85.5 14.5c30 0 57.333 -4.83301 82 -14.5s45.5 -23 62.5 -40s30.167 -37.667 39.5 -62
s14 -50.833 14 -79.5c0 -32 -5 -61 -15 -87s-24.333 -48.167 -43 -66.5s-40.834 -32.333 -66.501 -42s-53.834 -14.5 -84.501 -14.5z" />
    <glyph glyph-name="guillemotright" unicode="&#xbb;" horiz-adv-x="547" 
d="M293 271l-175 -198h-81l114 203l-114 203h81l175 -198v-10zM510 271l-177 -198h-79l114 203l-114 203h79l177 -198v-10z" />
    <glyph glyph-name="onequarter" unicode="&#xbc;" horiz-adv-x="948" 
d="M678 102v184l-144 -184h144zM678 -71v118h-215v45l232 297h117v-287h86v-55h-86v-118h-134zM267 748l-0.00195312 -367c0 -10 1 -17.833 3 -23.5s6 -10 12 -13s14 -5.16699 24 -6.5s23 -2.33301 39 -3v-48h-292v48c18 0.666992 32.167 1.66699 42.5 3s18.333 3.5 24 6.5
s9.16699 7.33301 10.5 13s2 13.5 2 23.5v228h-79v44l28 6c18.667 4 34.834 8.66699 48.501 14s25.834 11.5 36.501 18.5s20.5 15.167 29.5 24.5s18.167 20 27.5 32h44zM672.998 741h74l-450 -741h-73z" />
    <glyph glyph-name="onehalf" unicode="&#xbd;" horiz-adv-x="942" 
d="M269 748v-367c0 -10 1 -17.833 3 -23.5s6 -10 12 -13s14 -5.16699 24 -6.5s23 -2.33301 39 -3v-48h-292v48c18 0.666992 32.333 1.66699 43 3s18.667 3.5 24 6.5s8.66602 7.33301 9.99902 13s2 13.5 2 23.5v228h-79v44l28 6c18.667 4 35 8.66699 49 14
s26.333 11.5 37 18.5s20.334 15.167 29.001 24.5s17.667 20 27 32h44zM675 741h74l-450 -741h-73zM774 30c10.667 0 19.332 0.500977 25.999 1.50098s12.834 3.33301 18.501 7s11.334 9.16699 17.001 16.5s12.5 17 20.5 29h37l-13 -155h-355v42l125 112
c31.333 28 54.666 52.667 69.999 74s23 44.666 23 69.999c0 21.333 -6.33301 38.333 -19 51s-30.667 19 -54 19c-21.333 0 -40.333 -5.66699 -57 -17s-30.667 -23.666 -42 -36.999l-30 31c8 15.333 18 30 30 44s26 26.333 42 37s33.833 19.167 53.5 25.5
s41.167 9.5 64.5 9.5c43.333 0 78 -11.333 104 -34s39 -55 39 -97c0 -24.667 -6 -47.334 -18 -68.001s-27.833 -40.167 -47.5 -58.5s-42 -35.833 -67 -52.5l-77.5 -50h110z" />
    <glyph glyph-name="threequarters" unicode="&#xbe;" horiz-adv-x="967" 
d="M253 537c40 -1.33301 72.502 -12.4971 97.502 -33.4971s37.5 -49.167 37.5 -84.5c0 -23.333 -5 -43.833 -15 -61.5s-23.833 -32.334 -41.5 -44.001s-38 -20.5 -61 -26.5s-47.5 -9 -73.5 -9c-56 0 -97 9.5 -123 28.5s-39 41.167 -39 66.5c0 14.667 3.33301 26.167 10 34.5
s13.667 14.166 21 17.499h80v-24c0 -25.333 4.66699 -45 14 -59s23.666 -21 42.999 -21c37.333 0 56 25 56 75c0 30 -7.66699 52.833 -23 68.5s-37 23.5 -65 23.5h-19l-9 29c33.333 13.333 57 26.166 71 38.499s21 27.5 21 45.5c0 14.667 -5 26.834 -15 36.501
s-24.667 14.5 -44 14.5c-21.333 0 -38.833 -5 -52.5 -15s-25.167 -21.333 -34.5 -34l-34 23c14 32.667 36.167 60.5 66.5 83.5s68.166 34.5 113.499 34.5c40 0 71.667 -9.33301 95 -28s35 -44.334 35 -77.001c0 -29.333 -11.167 -52.5 -33.5 -69.5
s-48.5 -27.833 -78.5 -32.5zM696.002 102.003v184l-144 -184h144zM696.002 -70.9971v118h-215v45l232 297h118v-287h86v-55h-86v-118h-135zM691.002 741.003h74l-450 -741h-73z" />
    <glyph glyph-name="questiondown" unicode="&#xbf;" horiz-adv-x="472" 
d="M175 -38c0 -23.333 6.33105 -40.834 18.998 -52.501s29.334 -17.5 50.001 -17.5c26.667 0 45.334 8.16699 56.001 24.5s16 36.5 16 60.5v50h104c12.667 -7.33301 21.834 -16.333 27.501 -27s8.5 -22.667 8.5 -36c0 -20 -5 -38.333 -15 -55s-24.167 -31 -42.5 -43
s-40.5 -21.333 -66.5 -28s-55.333 -10 -88 -10c-68 0 -120.833 13.667 -158.5 41s-56.5 69.333 -56.5 126c0 40.667 10 74.5 30 101.5s49 51.833 87 74.5c16.667 9.33301 30.167 18.5 40.5 27.5s18.5 17.833 24.5 26.5s10.167 17.667 12.5 27s3.5 19.333 3.5 30v27h49
c14 -9.33301 26.667 -22.666 38 -39.999s17 -37.333 17 -60c0 -23.333 -5 -45 -15 -65s-26.667 -39.333 -50 -58l-34 -27.5c-10.667 -9 -20.334 -18.333 -29.001 -28s-15.5 -20 -20.5 -31s-7.5 -23.5 -7.5 -37.5zM347.998 450.999c0 -14 -2.5 -27 -7.5 -39
s-11.667 -22.5 -20 -31.5s-18.333 -16 -30 -21s-24.167 -7.5 -37.5 -7.5c-27.333 0 -50.166 9.5 -68.499 28.5s-27.5 42.5 -27.5 70.5c0 26.667 9.16699 49.5 27.5 68.5s41.166 28.5 68.499 28.5c26.667 0 49.167 -9.5 67.5 -28.5s27.5 -41.833 27.5 -68.5z" />
    <glyph glyph-name="Agrave" unicode="&#xc0;" horiz-adv-x="751" 
d="M448 217l-253.999 0.00683594l-27 -70c-2.66699 -7.33301 -5 -14.5 -7 -21.5s-3 -13.167 -3 -18.5c0 -8 1 -14.5 3 -19.5s5.66699 -9.33301 11 -13s13 -6.33398 23 -8.00098s22.667 -2.83398 38 -3.50098v-63h-225v63c13.333 2.66699 24.833 6.16699 34.5 10.5
s17.167 13.166 22.5 26.499l212 527l-34 78h186l258 -605c5.33301 -12.667 12.666 -21.334 21.999 -26.001s21.333 -8.33398 36 -11.001v-63h-331v63c30 1.33301 50 5.16602 60 11.499s15 17.166 15 32.499c0 10.667 -3.66699 24 -11 40zM219.001 281.007h203l-103 254z
M336.001 909.007l73 -156h-89l-156 156h172z" />
    <glyph glyph-name="Aacute" unicode="&#xc1;" horiz-adv-x="751" 
d="M448 217l-253.999 0.00683594l-27 -70c-2.66699 -7.33301 -5 -14.5 -7 -21.5s-3 -13.167 -3 -18.5c0 -8 1 -14.5 3 -19.5s5.66699 -9.33301 11 -13s13 -6.33398 23 -8.00098s22.667 -2.83398 38 -3.50098v-63h-225v63c13.333 2.66699 24.833 6.16699 34.5 10.5
s17.167 13.166 22.5 26.499l212 527l-34 78h186l258 -605c5.33301 -12.667 12.666 -21.334 21.999 -26.001s21.333 -8.33398 36 -11.001v-63h-331v63c30 1.33301 50 5.16602 60 11.499s15 17.166 15 32.499c0 10.667 -3.66699 24 -11 40zM219.001 281.007h203l-103 254z
M545.001 909.007l-156 -156h-89l73 156h172z" />
    <glyph glyph-name="Acircumflex" unicode="&#xc2;" horiz-adv-x="751" 
d="M448 217l-253.999 0.00683594l-27 -70c-2.66699 -7.33301 -5 -14.5 -7 -21.5s-3 -13.167 -3 -18.5c0 -8 1 -14.5 3 -19.5s5.66699 -9.33301 11 -13s13 -6.33398 23 -8.00098s22.667 -2.83398 38 -3.50098v-63h-225v63c13.333 2.66699 24.833 6.16699 34.5 10.5
s17.167 13.166 22.5 26.499l212 527l-34 78h186l258 -605c5.33301 -12.667 12.666 -21.334 21.999 -26.001s21.333 -8.33398 36 -11.001v-63h-331v63c30 1.33301 50 5.16602 60 11.499s15 17.166 15 32.499c0 10.667 -3.66699 24 -11 40zM219.001 281.007h203l-103 254z
M553.001 751.007h-86l-116 82l-116 -82h-86l141 167h122z" />
    <glyph glyph-name="Atilde" unicode="&#xc3;" horiz-adv-x="751" 
d="M448 217l-253.999 0.00683594l-27 -70c-2.66699 -7.33301 -5 -14.5 -7 -21.5s-3 -13.167 -3 -18.5c0 -8 1 -14.5 3 -19.5s5.66699 -9.33301 11 -13s13 -6.33398 23 -8.00098s22.667 -2.83398 38 -3.50098v-63h-225v63c13.333 2.66699 24.833 6.16699 34.5 10.5
s17.167 13.166 22.5 26.499l212 527l-34 78h186l258 -605c5.33301 -12.667 12.666 -21.334 21.999 -26.001s21.333 -8.33398 36 -11.001v-63h-331v63c30 1.33301 50 5.16602 60 11.499s15 17.166 15 32.499c0 10.667 -3.66699 24 -11 40zM219.001 281.007h203l-103 254z
M556.001 887.007c-13.333 -30 -25.1719 -54.333 -35.5049 -73s-20.666 -33.167 -30.999 -43.5s-21 -17.333 -32 -21s-23.5 -5.5 -37.5 -5.5s-27.333 3.16699 -40 9.5s-24.667 13.5 -36 21.5s-22.166 15.167 -32.499 21.5s-20.166 9.5 -29.499 9.5
c-15.333 0 -27.666 -5.33301 -36.999 -16s-18.666 -24 -27.999 -40l-56 12c13.333 30 25.333 54.333 36 73s21 33.167 31 43.5s20.667 17.333 32 21s24 5.5 38 5.5c16 0 30.333 -3.33301 43 -10s24.5 -13.834 35.5 -21.501l30.5 -21.5c9.33301 -6.66699 19 -10 29 -10
c14.667 0 26.667 5.33301 36 16s19 24.334 29 41.001z" />
    <glyph glyph-name="Adieresis" unicode="&#xc4;" horiz-adv-x="751" 
d="M448 217l-253.999 0.00683594l-27 -70c-2.66699 -7.33301 -5 -14.5 -7 -21.5s-3 -13.167 -3 -18.5c0 -8 1 -14.5 3 -19.5s5.66699 -9.33301 11 -13s13 -6.33398 23 -8.00098s22.667 -2.83398 38 -3.50098v-63h-225v63c13.333 2.66699 24.833 6.16699 34.5 10.5
s17.167 13.166 22.5 26.499l212 527l-34 78h186l258 -605c5.33301 -12.667 12.666 -21.334 21.999 -26.001s21.333 -8.33398 36 -11.001v-63h-331v63c30 1.33301 50 5.16602 60 11.499s15 17.166 15 32.499c0 10.667 -3.66699 24 -11 40zM219.001 281.007h203l-103 254z
M160.001 831.007c0 22.667 8 42.167 24 58.5s35.667 24.5 59 24.5s43.166 -8.16699 59.499 -24.5s24.5 -35.833 24.5 -58.5s-8.16699 -42.167 -24.5 -58.5s-36.166 -24.5 -59.499 -24.5s-43 8.16699 -59 24.5s-24 35.833 -24 58.5zM376.001 831.007
c0 11.333 2.16699 22 6.5 32s10.333 18.833 18 26.5s16.334 13.667 26.001 18s20.167 6.5 31.5 6.5c24 0 44.167 -8.16699 60.5 -24.5s24.5 -35.833 24.5 -58.5s-8.16699 -42.167 -24.5 -58.5s-36.5 -24.5 -60.5 -24.5c-11.333 0 -21.833 2.16699 -31.5 6.5
s-18.334 10.333 -26.001 18s-13.667 16.5 -18 26.5s-6.5 20.667 -6.5 32z" />
    <glyph glyph-name="Aring" unicode="&#xc5;" horiz-adv-x="751" 
d="M448 217l-253.999 0.00683594l-27 -70c-2.66699 -7.33301 -5 -14.5 -7 -21.5s-3 -13.167 -3 -18.5c0 -8 1 -14.5 3 -19.5s5.66699 -9.33301 11 -13s13 -6.33398 23 -8.00098s22.667 -2.83398 38 -3.50098v-63h-225v63c13.333 2.66699 24.833 6.16699 34.5 10.5
s17.167 13.166 22.5 26.499l212 527l-34 78h186l258 -605c5.33301 -12.667 12.666 -21.334 21.999 -26.001s21.333 -8.33398 36 -11.001v-63h-331v63c30 1.33301 50 5.16602 60 11.499s15 17.166 15 32.499c0 10.667 -3.66699 24 -11 40zM219.001 281.007h203l-103 254z
M242.001 841.007c0 28 10.167 51.5 30.5 70.5s46.5 28.5 78.5 28.5s58.167 -9.5 78.5 -28.5s30.5 -42.5 30.5 -70.5s-10.167 -51.5 -30.5 -70.5s-46.5 -28.5 -78.5 -28.5s-58.167 9.5 -78.5 28.5s-30.5 42.5 -30.5 70.5zM398.001 841.007c0 13.333 -4 24.333 -12 33
s-19.667 13 -35 13s-27 -4.33301 -35 -13s-12 -19.667 -12 -33s4 -24.333 12 -33s19.667 -13 35 -13s27 4.33301 35 13s12 19.667 12 33z" />
    <glyph glyph-name="AE" unicode="&#xc6;" horiz-adv-x="1057" 
d="M408 600c-5.33301 13.333 -14.165 22.834 -26.498 28.501s-33.166 9.16699 -62.499 10.5v63h674v-187h-68c-8 20.667 -16 38.667 -24 54s-17 28 -27 38s-22 17.5 -36 22.5s-31 7.5 -51 7.5h-116v-242h94c22 0 38.167 5.83301 48.5 17.5s18.166 32.5 23.499 62.5h59v-228
h-59c-5.33301 30 -13.166 50.833 -23.499 62.5s-26.5 17.5 -48.5 17.5h-94v-195c0 -27.333 7 -45.333 21 -54s35.333 -13 64 -13h40c18 0 33.833 2.33301 47.5 7s26.667 12.5 39 23.5s24.666 25.167 36.999 42.5s26.5 38.666 42.5 63.999h67l-31 -202h-588v63
c16.667 0.666992 30.5 2 41.5 4s19.667 5.5 26 10.5s10.666 11.833 12.999 20.5s3.5 20 3.5 34v113h-240l-56 -83c-8.66699 -12 -14.667 -22.833 -18 -32.5s-5 -18.167 -5 -25.5c0 -8 1.16699 -14.5 3.5 -19.5s6.33301 -9 12 -12s13.5 -5.16699 23.5 -6.5
s22.667 -2.33301 38 -3v-63h-245v63c13.333 2.66699 24.166 6.5 32.499 11.5s16.833 13.5 25.5 25.5zM298.001 309.001h196v286z" />
    <glyph glyph-name="Ccedilla" unicode="&#xc7;" horiz-adv-x="699" 
d="M280 -185c36 0 64.168 3.33301 84.501 10s30.5 17 30.5 31c0 13.333 -8.16699 22.5 -24.5 27.5s-36.833 8.16699 -61.5 9.5l40 99c-50 4.66699 -94.333 16.334 -133 35.001s-71.334 43.167 -98.001 73.5s-47 65.5 -61 105.5s-21 83.667 -21 131c0 58 9.5 110 28.5 156
s45 85.333 78 118s71.5 57.667 115.5 75s91.333 26 142 26c50 0 95.333 -6.5 136 -19.5s73.667 -30.5 99 -52.5v-161h-84c-12.667 51.333 -30.667 91.5 -54 120.5s-56.666 43.5 -99.999 43.5c-31.333 0 -57.833 -7.66699 -79.5 -23s-39.167 -35.833 -52.5 -61.5
s-22.833 -55.167 -28.5 -88.5s-8.5 -68 -8.5 -104c0 -44.667 3.83301 -85.5 11.5 -122.5s19.167 -68.833 34.5 -95.5s34.5 -47.5 57.5 -62.5s49.833 -22.5 80.5 -22.5c43.333 0 77 14.833 101 44.5s45 74.5 63 134.5h85l-18 -188c-30.667 -20 -66.5 -35.667 -107.5 -47
s-87.833 -17 -140.5 -17l-12 -35c30 -2.66699 54 -9.83398 72 -21.501s27 -30.167 27 -55.5c0 -18 -5.33301 -33.833 -16 -47.5s-24.834 -25 -42.501 -34s-38.167 -15.833 -61.5 -20.5s-47.333 -7 -72 -7z" />
    <glyph glyph-name="Egrave" unicode="&#xc8;" horiz-adv-x="678" 
d="M335 909l73 -156h-89l-156 156h172zM458 247c-5.33301 30 -13.167 50.834 -23.5 62.501s-26.5 17.5 -48.5 17.5h-93v-195c0 -27.333 6.83301 -45.333 20.5 -54s34.834 -13 63.501 -13h40c18.667 0 34.834 2.33301 48.501 7s26.667 12.5 39 23.5
s24.666 25.167 36.999 42.5s26.5 38.666 42.5 63.999h66l-31 -202h-587v63c16.667 0.666992 30.334 2 41.001 4s19.167 5.5 25.5 10.5s10.666 11.833 12.999 20.5s3.5 20 3.5 34v438c0 14 -1.16699 25.167 -3.5 33.5s-6.66602 15 -12.999 20s-14.833 8.66699 -25.5 11
s-24.334 3.83301 -41.001 4.5v63h582v-187h-68c-8 20.667 -15.833 38.667 -23.5 54s-16.667 28 -27 38s-22.333 17.5 -36 22.5s-30.5 7.5 -50.5 7.5h-116v-242h93c22 0 38.167 5.83301 48.5 17.5s18.166 32.5 23.499 62.5h60v-228h-60z" />
    <glyph glyph-name="Eacute" unicode="&#xc9;" horiz-adv-x="678" 
d="M543 909l-156 -156h-89l73 156h172zM458 247c-5.33301 30 -13.167 50.834 -23.5 62.501s-26.5 17.5 -48.5 17.5h-93v-195c0 -27.333 6.83301 -45.333 20.5 -54s34.834 -13 63.501 -13h40c18.667 0 34.834 2.33301 48.501 7s26.667 12.5 39 23.5
s24.666 25.167 36.999 42.5s26.5 38.666 42.5 63.999h66l-31 -202h-587v63c16.667 0.666992 30.334 2 41.001 4s19.167 5.5 25.5 10.5s10.666 11.833 12.999 20.5s3.5 20 3.5 34v438c0 14 -1.16699 25.167 -3.5 33.5s-6.66602 15 -12.999 20s-14.833 8.66699 -25.5 11
s-24.334 3.83301 -41.001 4.5v63h582v-187h-68c-8 20.667 -15.833 38.667 -23.5 54s-16.667 28 -27 38s-22.333 17.5 -36 22.5s-30.5 7.5 -50.5 7.5h-116v-242h93c22 0 38.167 5.83301 48.5 17.5s18.166 32.5 23.499 62.5h60v-228h-60z" />
    <glyph glyph-name="Ecircumflex" unicode="&#xca;" horiz-adv-x="678" 
d="M458 247c-5.33301 30 -13.167 50.834 -23.5 62.501s-26.5 17.5 -48.5 17.5h-93v-195c0 -27.333 6.83301 -45.333 20.5 -54s34.834 -13 63.501 -13h40c18.667 0 34.834 2.33301 48.501 7s26.667 12.5 39 23.5s24.666 25.167 36.999 42.5s26.5 38.666 42.5 63.999h66
l-31 -202h-587v63c16.667 0.666992 30.334 2 41.001 4s19.167 5.5 25.5 10.5s10.666 11.833 12.999 20.5s3.5 20 3.5 34v438c0 14 -1.16699 25.167 -3.5 33.5s-6.66602 15 -12.999 20s-14.833 8.66699 -25.5 11s-24.334 3.83301 -41.001 4.5v63h582v-187h-68
c-8 20.667 -15.833 38.667 -23.5 54s-16.667 28 -27 38s-22.333 17.5 -36 22.5s-30.5 7.5 -50.5 7.5h-116v-242h93c22 0 38.167 5.83301 48.5 17.5s18.166 32.5 23.499 62.5h60v-228h-60zM551.999 751.001h-86l-116 82l-116 -82h-86l141 167h122z" />
    <glyph glyph-name="Edieresis" unicode="&#xcb;" horiz-adv-x="678" 
d="M159 831c0 22.667 8 42.167 24 58.5s35.667 24.5 59 24.5s43.166 -8.16699 59.499 -24.5s24.5 -35.833 24.5 -58.5s-8.16699 -42.167 -24.5 -58.5s-36.166 -24.5 -59.499 -24.5s-43 8.16699 -59 24.5s-24 35.833 -24 58.5zM375 831c0 11.333 2.16699 22 6.5 32
s10.333 18.833 18 26.5s16.334 13.667 26.001 18s20.167 6.5 31.5 6.5c24 0 44.167 -8.16699 60.5 -24.5s24.5 -35.833 24.5 -58.5s-8.16699 -42.167 -24.5 -58.5s-36.5 -24.5 -60.5 -24.5c-11.333 0 -21.833 2.16699 -31.5 6.5s-18.334 10.333 -26.001 18
s-13.667 16.5 -18 26.5s-6.5 20.667 -6.5 32zM458 247c-5.33301 30 -13.167 50.834 -23.5 62.501s-26.5 17.5 -48.5 17.5h-93v-195c0 -27.333 6.83301 -45.333 20.5 -54s34.834 -13 63.501 -13h40c18.667 0 34.834 2.33301 48.501 7s26.667 12.5 39 23.5
s24.666 25.167 36.999 42.5s26.5 38.666 42.5 63.999h66l-31 -202h-587v63c16.667 0.666992 30.334 2 41.001 4s19.167 5.5 25.5 10.5s10.666 11.833 12.999 20.5s3.5 20 3.5 34v438c0 14 -1.16699 25.167 -3.5 33.5s-6.66602 15 -12.999 20s-14.833 8.66699 -25.5 11
s-24.334 3.83301 -41.001 4.5v63h582v-187h-68c-8 20.667 -15.833 38.667 -23.5 54s-16.667 28 -27 38s-22.333 17.5 -36 22.5s-30.5 7.5 -50.5 7.5h-116v-242h93c22 0 38.167 5.83301 48.5 17.5s18.166 32.5 23.499 62.5h60v-228h-60z" />
    <glyph glyph-name="Igrave" unicode="&#xcc;" horiz-adv-x="408" 
d="M32 0v63c16.667 0.666992 30.334 2 41.001 4s19.167 5.5 25.5 10.5s10.666 11.833 12.999 20.5s3.5 20 3.5 34v438c0 14 -1.16699 25.167 -3.5 33.5s-6.66602 15 -12.999 20s-14.833 8.66699 -25.5 11s-24.334 3.83301 -41.001 4.5v63h344v-63
c-16.667 -0.666992 -30.334 -2.16699 -41.001 -4.5s-19.167 -6 -25.5 -11s-10.666 -11.667 -12.999 -20s-3.5 -19.5 -3.5 -33.5v-438c0 -14 1.16699 -25.333 3.5 -34s6.66602 -15.5 12.999 -20.5s14.833 -8.5 25.5 -10.5s24.334 -3.33301 41.001 -4v-63h-344zM189 909
l73 -156h-89l-156 156h172z" />
    <glyph glyph-name="Iacute" unicode="&#xcd;" horiz-adv-x="408" 
d="M32 0v63c16.667 0.666992 30.334 2 41.001 4s19.167 5.5 25.5 10.5s10.666 11.833 12.999 20.5s3.5 20 3.5 34v438c0 14 -1.16699 25.167 -3.5 33.5s-6.66602 15 -12.999 20s-14.833 8.66699 -25.5 11s-24.334 3.83301 -41.001 4.5v63h344v-63
c-16.667 -0.666992 -30.334 -2.16699 -41.001 -4.5s-19.167 -6 -25.5 -11s-10.666 -11.667 -12.999 -20s-3.5 -19.5 -3.5 -33.5v-438c0 -14 1.16699 -25.333 3.5 -34s6.66602 -15.5 12.999 -20.5s14.833 -8.5 25.5 -10.5s24.334 -3.33301 41.001 -4v-63h-344zM397 909
l-156 -156h-89l73 156h172z" />
    <glyph glyph-name="Icircumflex" unicode="&#xce;" horiz-adv-x="408" 
d="M32 0v63c16.667 0.666992 30.334 2 41.001 4s19.167 5.5 25.5 10.5s10.666 11.833 12.999 20.5s3.5 20 3.5 34v438c0 14 -1.16699 25.167 -3.5 33.5s-6.66602 15 -12.999 20s-14.833 8.66699 -25.5 11s-24.334 3.83301 -41.001 4.5v63h344v-63
c-16.667 -0.666992 -30.334 -2.16699 -41.001 -4.5s-19.167 -6 -25.5 -11s-10.666 -11.667 -12.999 -20s-3.5 -19.5 -3.5 -33.5v-438c0 -14 1.16699 -25.333 3.5 -34s6.66602 -15.5 12.999 -20.5s14.833 -8.5 25.5 -10.5s24.334 -3.33301 41.001 -4v-63h-344zM406 751h-86
l-116 82l-116 -82h-86l141 167h122z" />
    <glyph glyph-name="Idieresis" unicode="&#xcf;" horiz-adv-x="408" 
d="M32 0v63c16.667 0.666992 30.334 2 41.001 4s19.167 5.5 25.5 10.5s10.666 11.833 12.999 20.5s3.5 20 3.5 34v438c0 14 -1.16699 25.167 -3.5 33.5s-6.66602 15 -12.999 20s-14.833 8.66699 -25.5 11s-24.334 3.83301 -41.001 4.5v63h344v-63
c-16.667 -0.666992 -30.334 -2.16699 -41.001 -4.5s-19.167 -6 -25.5 -11s-10.666 -11.667 -12.999 -20s-3.5 -19.5 -3.5 -33.5v-438c0 -14 1.16699 -25.333 3.5 -34s6.66602 -15.5 12.999 -20.5s14.833 -8.5 25.5 -10.5s24.334 -3.33301 41.001 -4v-63h-344zM13 831
c0 22.667 8 42.167 24 58.5s35.667 24.5 59 24.5s43.166 -8.16699 59.499 -24.5s24.5 -35.833 24.5 -58.5s-8.16699 -42.167 -24.5 -58.5s-36.166 -24.5 -59.499 -24.5s-43 8.16699 -59 24.5s-24 35.833 -24 58.5zM229 831c0 11.333 2.16699 22 6.5 32
s10.333 18.833 18 26.5s16.334 13.667 26.001 18s20.167 6.5 31.5 6.5c24 0 44.167 -8.16699 60.5 -24.5s24.5 -35.833 24.5 -58.5s-8.16699 -42.167 -24.5 -58.5s-36.5 -24.5 -60.5 -24.5c-11.333 0 -21.833 2.16699 -31.5 6.5s-18.334 10.333 -26.001 18
s-13.667 16.5 -18 26.5s-6.5 20.667 -6.5 32z" />
    <glyph glyph-name="Eth" unicode="&#xd0;" horiz-adv-x="801" 
d="M39 395l84.0049 -0.000976562v175c0 14 -1.16699 25.167 -3.5 33.5s-6.66602 15 -12.999 20s-14.833 8.66699 -25.5 11s-24.334 3.83301 -41.001 4.5v63h321c65.333 0 123.166 -7.83301 173.499 -23.5s92.666 -38.167 126.999 -67.5s60.333 -64.833 78 -106.5
s26.5 -88.5 26.5 -140.5c0 -57.333 -8.83301 -108.666 -26.5 -153.999s-42.834 -83.5 -75.501 -114.5s-71.834 -54.667 -117.501 -71s-96.834 -24.5 -153.501 -24.5h-353v63c16.667 0.666992 30.334 2 41.001 4s19.167 5.5 25.5 10.5s10.666 11.833 12.999 20.5
s3.5 20 3.5 34v197h-84v66zM301.005 634.999l-0.000976562 -240h131v-66h-131v-192c0 -29.333 5.83301 -48.333 17.5 -57s30.834 -13 57.501 -13h11c60 0 106.333 23.167 139 69.5s49 117.833 49 214.5c0 42 -5 80.333 -15 115s-25 64.5 -45 89.5s-44.833 44.5 -74.5 58.5
s-64.5 21 -104.5 21h-35z" />
    <glyph glyph-name="Ntilde" unicode="&#xd1;" horiz-adv-x="784" 
d="M598 887c-13.333 -30 -25.1719 -54.333 -35.5049 -73s-20.666 -33.167 -30.999 -43.5s-21 -17.333 -32 -21s-23.5 -5.5 -37.5 -5.5s-27.333 3.16699 -40 9.5s-24.667 13.5 -36 21.5s-22.166 15.167 -32.499 21.5s-20.166 9.5 -29.499 9.5
c-15.333 0 -27.666 -5.33301 -36.999 -16s-18.666 -24 -27.999 -40l-56 12c13.333 30 25.333 54.333 36 73s21 33.167 31 43.5s20.667 17.333 32 21s24 5.5 38 5.5c16 0 30.333 -3.33301 43 -10s24.5 -13.834 35.5 -21.501l30.5 -21.5c9.33301 -6.66699 19 -10 29 -10
c14.667 0 26.667 5.33301 36 16s19 24.334 29 41.001zM114.994 587c-8 10.667 -15 19.165 -21 25.498s-12 11.333 -18 15s-12.5 6.33398 -19.5 8.00098s-15.167 2.83398 -24.5 3.50098v63h251l315 -409v277c0 27.333 -7 45.333 -21 54s-37.333 13.667 -70 15v63h257v-63
c-16.667 -0.666992 -30.334 -2.16699 -41.001 -4.5s-19.167 -6 -25.5 -11s-10.666 -11.667 -12.999 -20s-3.5 -19.5 -3.5 -33.5v-570h-73l-409 513v-381c0 -27.333 6.83301 -45.333 20.5 -54s37.167 -13.667 70.5 -15v-63h-258v63c16.667 0.666992 30.334 2 41.001 4
s19.167 5.5 25.5 10.5s10.666 11.833 12.999 20.5s3.5 20 3.5 34v455z" />
    <glyph glyph-name="Ograve" unicode="&#xd2;" horiz-adv-x="762" 
d="M373 909l73 -156h-89l-156 156h172zM393 60c25.333 0 47.166 7.16699 65.499 21.5s33.333 34 45 59s20.167 54.5 25.5 88.5s8 70.333 8 109c0 44 -3.33301 84.5 -10 121.5s-16.834 69 -30.501 96s-31.167 48.167 -52.5 63.5s-46.333 23 -75 23
c-25.333 0 -47.166 -7.16699 -65.499 -21.5s-33.333 -34 -45 -59s-20.167 -54.5 -25.5 -88.5s-8 -70.333 -8 -109c0 -44 3.33301 -84.667 10 -122s16.834 -69.5 30.501 -96.5s31 -48 52 -63s46.167 -22.5 75.5 -22.5zM389 712c54 0 102.001 -9.33203 144.001 -27.999
s77.333 -43.834 106 -75.501s50.5 -68.5 65.5 -110.5s22.5 -86.333 22.5 -133c0 -57.333 -9 -109.166 -27 -155.499s-42.833 -85.833 -74.5 -118.5s-69.167 -57.667 -112.5 -75s-90 -26 -140 -26c-54 0 -102 9.33301 -144 28s-77.333 43.834 -106 75.501
s-50.334 68.5 -65.001 110.5s-22 86.333 -22 133c0 57.333 9 109.166 27 155.499s42.833 85.666 74.5 117.999s69 57.333 112 75s89.5 26.5 139.5 26.5z" />
    <glyph glyph-name="Oacute" unicode="&#xd3;" horiz-adv-x="762" 
d="M581 909l-156 -156h-89l73 156h172zM393 60c25.333 0 47.166 7.16699 65.499 21.5s33.333 34 45 59s20.167 54.5 25.5 88.5s8 70.333 8 109c0 44 -3.33301 84.5 -10 121.5s-16.834 69 -30.501 96s-31.167 48.167 -52.5 63.5s-46.333 23 -75 23
c-25.333 0 -47.166 -7.16699 -65.499 -21.5s-33.333 -34 -45 -59s-20.167 -54.5 -25.5 -88.5s-8 -70.333 -8 -109c0 -44 3.33301 -84.667 10 -122s16.834 -69.5 30.501 -96.5s31 -48 52 -63s46.167 -22.5 75.5 -22.5zM389 712c54 0 102.001 -9.33203 144.001 -27.999
s77.333 -43.834 106 -75.501s50.5 -68.5 65.5 -110.5s22.5 -86.333 22.5 -133c0 -57.333 -9 -109.166 -27 -155.499s-42.833 -85.833 -74.5 -118.5s-69.167 -57.667 -112.5 -75s-90 -26 -140 -26c-54 0 -102 9.33301 -144 28s-77.333 43.834 -106 75.501
s-50.334 68.5 -65.001 110.5s-22 86.333 -22 133c0 57.333 9 109.166 27 155.499s42.833 85.666 74.5 117.999s69 57.333 112 75s89.5 26.5 139.5 26.5z" />
    <glyph glyph-name="Ocircumflex" unicode="&#xd4;" horiz-adv-x="762" 
d="M393 60c25.333 0 47.166 7.16699 65.499 21.5s33.333 34 45 59s20.167 54.5 25.5 88.5s8 70.333 8 109c0 44 -3.33301 84.5 -10 121.5s-16.834 69 -30.501 96s-31.167 48.167 -52.5 63.5s-46.333 23 -75 23c-25.333 0 -47.166 -7.16699 -65.499 -21.5
s-33.333 -34 -45 -59s-20.167 -54.5 -25.5 -88.5s-8 -70.333 -8 -109c0 -44 3.33301 -84.667 10 -122s16.834 -69.5 30.501 -96.5s31 -48 52 -63s46.167 -22.5 75.5 -22.5zM389 712c54 0 102.001 -9.33203 144.001 -27.999s77.333 -43.834 106 -75.501
s50.5 -68.5 65.5 -110.5s22.5 -86.333 22.5 -133c0 -57.333 -9 -109.166 -27 -155.499s-42.833 -85.833 -74.5 -118.5s-69.167 -57.667 -112.5 -75s-90 -26 -140 -26c-54 0 -102 9.33301 -144 28s-77.333 43.834 -106 75.501s-50.334 68.5 -65.001 110.5s-22 86.333 -22 133
c0 57.333 9 109.166 27 155.499s42.833 85.666 74.5 117.999s69 57.333 112 75s89.5 26.5 139.5 26.5zM590.001 751.001h-86l-116 82l-116 -82h-86l141 167h122z" />
    <glyph glyph-name="Otilde" unicode="&#xd5;" horiz-adv-x="762" 
d="M585 887c-13.333 -30 -25.1719 -54.333 -35.5049 -73s-20.666 -33.167 -30.999 -43.5s-21 -17.333 -32 -21s-23.5 -5.5 -37.5 -5.5s-27.333 3.16699 -40 9.5s-24.667 13.5 -36 21.5s-22.166 15.167 -32.499 21.5s-20.166 9.5 -29.499 9.5
c-15.333 0 -27.666 -5.33301 -36.999 -16s-18.666 -24 -27.999 -40l-56 12c13.333 30 25.333 54.333 36 73s21 33.167 31 43.5s20.667 17.333 32 21s24 5.5 38 5.5c16 0 30.333 -3.33301 43 -10s24.5 -13.834 35.5 -21.501l30.5 -21.5c9.33301 -6.66699 19 -10 29 -10
c14.667 0 26.667 5.33301 36 16s19 24.334 29 41.001zM392.994 60c25.333 0 47.166 7.16699 65.499 21.5s33.333 34 45 59s20.167 54.5 25.5 88.5s8 70.333 8 109c0 44 -3.33301 84.5 -10 121.5s-16.834 69 -30.501 96s-31.167 48.167 -52.5 63.5s-46.333 23 -75 23
c-25.333 0 -47.166 -7.16699 -65.499 -21.5s-33.333 -34 -45 -59s-20.167 -54.5 -25.5 -88.5s-8 -70.333 -8 -109c0 -44 3.33301 -84.667 10 -122s16.834 -69.5 30.501 -96.5s31 -48 52 -63s46.167 -22.5 75.5 -22.5zM388.994 712c54 0 102.001 -9.33203 144.001 -27.999
s77.333 -43.834 106 -75.501s50.5 -68.5 65.5 -110.5s22.5 -86.333 22.5 -133c0 -57.333 -9 -109.166 -27 -155.499s-42.833 -85.833 -74.5 -118.5s-69.167 -57.667 -112.5 -75s-90 -26 -140 -26c-54 0 -102 9.33301 -144 28s-77.333 43.834 -106 75.501
s-50.334 68.5 -65.001 110.5s-22 86.333 -22 133c0 57.333 9 109.166 27 155.499s42.833 85.666 74.5 117.999s69 57.333 112 75s89.5 26.5 139.5 26.5z" />
    <glyph glyph-name="Odieresis" unicode="&#xd6;" horiz-adv-x="762" 
d="M196 831c0 22.667 8 42.167 24 58.5s35.667 24.5 59 24.5s43.166 -8.16699 59.499 -24.5s24.5 -35.833 24.5 -58.5s-8.16699 -42.167 -24.5 -58.5s-36.166 -24.5 -59.499 -24.5s-43 8.16699 -59 24.5s-24 35.833 -24 58.5zM412 831c0 11.333 2.16699 22 6.5 32
s10.333 18.833 18 26.5s16.334 13.667 26.001 18s20.167 6.5 31.5 6.5c24 0 44.167 -8.16699 60.5 -24.5s24.5 -35.833 24.5 -58.5s-8.16699 -42.167 -24.5 -58.5s-36.5 -24.5 -60.5 -24.5c-11.333 0 -21.833 2.16699 -31.5 6.5s-18.334 10.333 -26.001 18
s-13.667 16.5 -18 26.5s-6.5 20.667 -6.5 32zM393 60c25.333 0 47.166 7.16699 65.499 21.5s33.333 34 45 59s20.167 54.5 25.5 88.5s8 70.333 8 109c0 44 -3.33301 84.5 -10 121.5s-16.834 69 -30.501 96s-31.167 48.167 -52.5 63.5s-46.333 23 -75 23
c-25.333 0 -47.166 -7.16699 -65.499 -21.5s-33.333 -34 -45 -59s-20.167 -54.5 -25.5 -88.5s-8 -70.333 -8 -109c0 -44 3.33301 -84.667 10 -122s16.834 -69.5 30.501 -96.5s31 -48 52 -63s46.167 -22.5 75.5 -22.5zM389 712c54 0 102.001 -9.33203 144.001 -27.999
s77.333 -43.834 106 -75.501s50.5 -68.5 65.5 -110.5s22.5 -86.333 22.5 -133c0 -57.333 -9 -109.166 -27 -155.499s-42.833 -85.833 -74.5 -118.5s-69.167 -57.667 -112.5 -75s-90 -26 -140 -26c-54 0 -102 9.33301 -144 28s-77.333 43.834 -106 75.501
s-50.334 68.5 -65.001 110.5s-22 86.333 -22 133c0 57.333 9 109.166 27 155.499s42.833 85.666 74.5 117.999s69 57.333 112 75s89.5 26.5 139.5 26.5z" />
    <glyph glyph-name="multiply" unicode="&#xd7;" horiz-adv-x="518" 
d="M65 444l60 61l134 -136l133 136l61 -61l-135 -134l135 -133l-61 -60l-133 134l-134 -134l-60 60l134 133z" />
    <glyph glyph-name="Oslash" unicode="&#xd8;" horiz-adv-x="767" 
d="M598 648c42.667 -32 75.167 -72.832 97.5 -122.499s33.5 -103.167 33.5 -160.5s-9 -109.166 -27 -155.499s-42.833 -85.833 -74.5 -118.5s-69 -57.667 -112 -75s-89.5 -26 -139.5 -26c-55.333 0 -104.333 9.66699 -147 29l-50 -85l-57 30l51 87
c-44 32 -77.5 73 -100.5 123s-34.5 104.333 -34.5 163c0 57.333 9 109.166 27 155.499s42.833 85.666 74.5 117.999s69 57.333 112 75s89.5 26.5 139.5 26.5c56 0 106.667 -10.333 152 -31l45 77l57 -30zM224 364.001c0 -75.333 8.33301 -136.667 25 -184l237 405
c-28 38 -66 57 -114 57c-25.333 0 -47.333 -7.16699 -66 -21.5s-34 -34 -46 -59s-21 -54.5 -27 -88.5s-9 -70.333 -9 -109zM395 60c25.333 0 47.333 7.16699 66 21.5s34 34 46 59s21 54.5 27 88.5s9 70.333 9 109c0 70 -7.66699 129 -23 177l-236 -402
c27.333 -35.333 64.333 -53 111 -53z" />
    <glyph glyph-name="Ugrave" unicode="&#xd9;" horiz-adv-x="773" 
d="M404 909l73 -156h-89l-156 156h172zM280 264c0 -54.667 10.5029 -97.833 31.5029 -129.5s57.5 -47.5 109.5 -47.5c24.667 0 47 2.83301 67 8.5s37.167 15.667 51.5 30s25.5 33.333 33.5 57s12 53.5 12 89.5v298c0 27.333 -6.83301 45.333 -20.5 54
s-36.834 13.667 -69.501 15v63h261v-63c-16.667 -0.666992 -30.334 -2.16699 -41.001 -4.5s-19.167 -6 -25.5 -11s-10.833 -11.667 -13.5 -20s-4 -19.5 -4 -33.5v-325c0 -43.333 -7.16699 -81 -21.5 -113s-34 -58.5 -59 -79.5s-54 -36.667 -87 -47s-68.5 -15.5 -106.5 -15.5
c-94 0 -167.167 21.167 -219.5 63.5s-78.5 106.5 -78.5 192.5v324c0 14 -1.16699 25.167 -3.5 33.5s-6.5 15 -12.5 20s-14.333 8.66699 -25 11s-24.334 3.83301 -41.001 4.5v63h343v-63c-16 -0.666992 -29.333 -2.16699 -40 -4.5s-19 -6 -25 -11s-10.167 -11.667 -12.5 -20
s-3.5 -19.5 -3.5 -33.5v-306z" />
    <glyph glyph-name="Uacute" unicode="&#xda;" horiz-adv-x="773" 
d="M612 909l-156 -156h-89l73 156h172zM280 264c0 -54.667 10.5029 -97.833 31.5029 -129.5s57.5 -47.5 109.5 -47.5c24.667 0 47 2.83301 67 8.5s37.167 15.667 51.5 30s25.5 33.333 33.5 57s12 53.5 12 89.5v298c0 27.333 -6.83301 45.333 -20.5 54
s-36.834 13.667 -69.501 15v63h261v-63c-16.667 -0.666992 -30.334 -2.16699 -41.001 -4.5s-19.167 -6 -25.5 -11s-10.833 -11.667 -13.5 -20s-4 -19.5 -4 -33.5v-325c0 -43.333 -7.16699 -81 -21.5 -113s-34 -58.5 -59 -79.5s-54 -36.667 -87 -47s-68.5 -15.5 -106.5 -15.5
c-94 0 -167.167 21.167 -219.5 63.5s-78.5 106.5 -78.5 192.5v324c0 14 -1.16699 25.167 -3.5 33.5s-6.5 15 -12.5 20s-14.333 8.66699 -25 11s-24.334 3.83301 -41.001 4.5v63h343v-63c-16 -0.666992 -29.333 -2.16699 -40 -4.5s-19 -6 -25 -11s-10.167 -11.667 -12.5 -20
s-3.5 -19.5 -3.5 -33.5v-306z" />
    <glyph glyph-name="Ucircumflex" unicode="&#xdb;" horiz-adv-x="773" 
d="M280 264c0 -54.667 10.5029 -97.833 31.5029 -129.5s57.5 -47.5 109.5 -47.5c24.667 0 47 2.83301 67 8.5s37.167 15.667 51.5 30s25.5 33.333 33.5 57s12 53.5 12 89.5v298c0 27.333 -6.83301 45.333 -20.5 54s-36.834 13.667 -69.501 15v63h261v-63
c-16.667 -0.666992 -30.334 -2.16699 -41.001 -4.5s-19.167 -6 -25.5 -11s-10.833 -11.667 -13.5 -20s-4 -19.5 -4 -33.5v-325c0 -43.333 -7.16699 -81 -21.5 -113s-34 -58.5 -59 -79.5s-54 -36.667 -87 -47s-68.5 -15.5 -106.5 -15.5c-94 0 -167.167 21.167 -219.5 63.5
s-78.5 106.5 -78.5 192.5v324c0 14 -1.16699 25.167 -3.5 33.5s-6.5 15 -12.5 20s-14.333 8.66699 -25 11s-24.334 3.83301 -41.001 4.5v63h343v-63c-16 -0.666992 -29.333 -2.16699 -40 -4.5s-19 -6 -25 -11s-10.167 -11.667 -12.5 -20s-3.5 -19.5 -3.5 -33.5v-306z
M621.003 751.001h-86l-116 82l-116 -82h-86l141 167h122z" />
    <glyph glyph-name="Udieresis" unicode="&#xdc;" horiz-adv-x="773" 
d="M228 831c0 22.667 8 42.167 24 58.5s35.667 24.5 59 24.5s43.166 -8.16699 59.499 -24.5s24.5 -35.833 24.5 -58.5s-8.16699 -42.167 -24.5 -58.5s-36.166 -24.5 -59.499 -24.5s-43 8.16699 -59 24.5s-24 35.833 -24 58.5zM444 831c0 11.333 2.16699 22 6.5 32
s10.333 18.833 18 26.5s16.334 13.667 26.001 18s20.167 6.5 31.5 6.5c24 0 44.167 -8.16699 60.5 -24.5s24.5 -35.833 24.5 -58.5s-8.16699 -42.167 -24.5 -58.5s-36.5 -24.5 -60.5 -24.5c-11.333 0 -21.833 2.16699 -31.5 6.5s-18.334 10.333 -26.001 18
s-13.667 16.5 -18 26.5s-6.5 20.667 -6.5 32zM280 264c0 -54.667 10.5029 -97.833 31.5029 -129.5s57.5 -47.5 109.5 -47.5c24.667 0 47 2.83301 67 8.5s37.167 15.667 51.5 30s25.5 33.333 33.5 57s12 53.5 12 89.5v298c0 27.333 -6.83301 45.333 -20.5 54
s-36.834 13.667 -69.501 15v63h261v-63c-16.667 -0.666992 -30.334 -2.16699 -41.001 -4.5s-19.167 -6 -25.5 -11s-10.833 -11.667 -13.5 -20s-4 -19.5 -4 -33.5v-325c0 -43.333 -7.16699 -81 -21.5 -113s-34 -58.5 -59 -79.5s-54 -36.667 -87 -47s-68.5 -15.5 -106.5 -15.5
c-94 0 -167.167 21.167 -219.5 63.5s-78.5 106.5 -78.5 192.5v324c0 14 -1.16699 25.167 -3.5 33.5s-6.5 15 -12.5 20s-14.333 8.66699 -25 11s-24.334 3.83301 -41.001 4.5v63h343v-63c-16 -0.666992 -29.333 -2.16699 -40 -4.5s-19 -6 -25 -11s-10.167 -11.667 -12.5 -20
s-3.5 -19.5 -3.5 -33.5v-306z" />
    <glyph glyph-name="Yacute" unicode="&#xdd;" horiz-adv-x="701" 
d="M515 542c7.33301 12.667 12.998 23.6699 16.998 33.0029s6 17.666 6 24.999c0 13.333 -5.66699 22.833 -17 28.5s-29.666 9.16699 -54.999 10.5v63h229v-63c-14 -2.66699 -25.5 -6.16699 -34.5 -10.5s-17.167 -13.166 -24.5 -26.499l-195 -341v-129
c0 -27.333 6.33301 -45.333 19 -54s35.667 -13.667 69 -15v-63h-352v63c32.667 1.33301 55.5 6.33301 68.5 15s19.5 26.667 19.5 54v130l-201 340c-7.33301 13.333 -15.166 22.166 -23.499 26.499s-19.5 7.83301 -33.5 10.5v63h329v-63
c-27.333 -1.33301 -45.833 -4.83301 -55.5 -10.5s-14.5 -15.167 -14.5 -28.5c0 -8.66699 2 -17.334 6 -26.001s9.33301 -19.334 16 -32.001l112 -201zM571.998 909.003l-156 -156h-89l73 156h172z" />
    <glyph glyph-name="Thorn" unicode="&#xde;" horiz-adv-x="677" 
d="M293 215h31c46.667 0 83.5 10.5 110.5 31.5s40.5 56.833 40.5 107.5c0 46 -14.5 79.833 -43.5 101.5s-66.5 32.5 -112.5 32.5h-26v-273zM367 554c48.667 0 90.8311 -4.83398 126.498 -14.501s65.334 -23.334 89.001 -41.001s41.334 -38.667 53.001 -63
s17.5 -51.166 17.5 -80.499c0 -134.667 -94 -202 -282 -202h-78v-21c0 -27.333 9.33301 -45.166 28 -53.499s48.667 -13.5 90 -15.5v-63h-379v63c16.667 0.666992 30.334 2 41.001 4s19.167 5.5 25.5 10.5s10.666 11.833 12.999 20.5s3.5 20 3.5 34v438
c0 14 -1.16699 25.167 -3.5 33.5s-6.66602 15 -12.999 20s-14.833 8.66699 -25.5 11s-24.334 3.83301 -41.001 4.5v63h344v-63c-16.667 -0.666992 -30.334 -2.16699 -41.001 -4.5s-19.167 -6 -25.5 -11s-10.666 -11.667 -12.999 -20s-3.5 -19.5 -3.5 -33.5v-16h74z" />
    <glyph glyph-name="germandbls" unicode="&#xdf;" horiz-adv-x="752" 
d="M487 443c0 -12 5.66895 -22.8301 17.002 -32.4971s33 -23.167 65 -40.5c21.333 -12 41.166 -24.167 59.499 -36.5s34.166 -26 47.499 -41s23.666 -32.167 30.999 -51.5s11 -42 11 -68c0 -28.667 -5.33301 -54.334 -16 -77.001s-25.334 -41.834 -44.001 -57.501
s-41 -27.667 -67 -36s-54.333 -12.5 -85 -12.5c-37.333 0 -69.5 5.33301 -96.5 16s-50.167 25 -69.5 43l-6 123h76c6.66699 -39.333 18.334 -69.166 35.001 -89.499s37.667 -30.5 63 -30.5c21.333 0 38.166 5.5 50.499 16.5s18.5 26.167 18.5 45.5
c0 10.667 -1.66699 20.334 -5 29.001s-8.66602 17.167 -15.999 25.5s-17.166 16.666 -29.499 24.999s-27.833 18.166 -46.5 29.499c-41.333 24 -72.5 47.5 -93.5 70.5s-31.5 52.167 -31.5 87.5c0 16.667 3.16699 31.334 9.5 44.001s14.5 24.667 24.5 36s20.5 22.5 31.5 33.5
s21.5 22.667 31.5 35s18.167 25.833 24.5 40.5s9.5 31.667 9.5 51c0 28 -7.5 50.833 -22.5 68.5s-38.167 26.5 -69.5 26.5c-38 0 -68.167 -13.833 -90.5 -41.5s-33.5 -66.167 -33.5 -115.5v-559h-232v61c11.333 1.33301 21 3 29 5s14.667 4.83301 20 8.5
s9.16602 9 11.499 16s3.5 16.167 3.5 27.5v349h-76v57l76 19c6 40 18 74.333 36 103s40 52.167 66 70.5s55 31.666 87 39.999s65 12.5 99 12.5c30.667 0 59.667 -3 87 -9s51.166 -15.167 71.499 -27.5s36.333 -27.833 48 -46.5s17.5 -40.334 17.5 -65.001
c0 -17.333 -3.16699 -32.5 -9.5 -45.5s-14.166 -24.5 -23.499 -34.5s-19.5 -18.833 -30.5 -26.5s-21.167 -15.167 -30.5 -22.5s-17.166 -14.833 -23.499 -22.5s-9.5 -16.5 -9.5 -26.5z" />
    <glyph glyph-name="agrave" unicode="&#xe0;" horiz-adv-x="580" 
d="M267 94c12.667 0 23.501 1.49805 32.501 4.49805s18.5 7.83301 28.5 14.5v168l-76 -30c-34 -13.333 -51 -38.666 -51 -75.999c0 -25.333 5.66699 -45.166 17 -59.499s27.666 -21.5 48.999 -21.5zM495.001 347.998l0.000976562 -17.4971v-37.5
c0 -14.667 -0.166992 -30.334 -0.5 -47.001s-0.5 -32.334 -0.5 -47.001v-38v-19c0 -16 2.16699 -29.167 6.5 -39.5s13.166 -15.5 26.499 -15.5c4 0 10.333 0.5 19 1.5s16.667 2.5 24 4.5l8 -45c-17.333 -16.667 -38 -30.5 -62 -41.5s-49 -16.5 -75 -16.5
c-28.667 0 -52 8.33301 -70 25s-31.333 38.667 -40 66c-8 -10.667 -17.167 -21.334 -27.5 -32.001s-22 -20.167 -35 -28.5s-27.5 -15 -43.5 -20s-34 -7.5 -54 -7.5c-43.333 0 -77.5 12.667 -102.5 38s-37.5 59.333 -37.5 102c0 22 3.83301 41 11.5 57
s17.834 29.5 30.501 40.5s27.167 20.333 43.5 28s33.166 14.5 50.499 20.5l161 56v59c0 37.333 -4.83301 64 -14.5 80s-26.5 24 -50.5 24c-19.333 0 -33.666 -6 -42.999 -18s-14 -27.667 -14 -47c0 -11.333 0.5 -22.166 1.5 -32.499s3.16699 -21.166 6.5 -32.499l-111 -17
c-13.333 5.33301 -23 14 -29 26s-9 25.667 -9 41c0 23.333 5.33301 43.666 16 60.999s25.5 31.666 44.5 42.999s41.667 19.833 68 25.5s55.166 8.5 86.499 8.5c34.667 0 65.334 -3.33301 92.001 -10s49.167 -18 67.5 -34s32.166 -37.333 41.499 -64s14 -60 14 -100z
M276.002 765.001l68 -162h-84l-154 162h170z" />
    <glyph glyph-name="aacute" unicode="&#xe1;" horiz-adv-x="580" 
d="M267 94c12.667 0 23.501 1.49805 32.501 4.49805s18.5 7.83301 28.5 14.5v168l-76 -30c-34 -13.333 -51 -38.666 -51 -75.999c0 -25.333 5.66699 -45.166 17 -59.499s27.666 -21.5 48.999 -21.5zM495.001 347.998l0.000976562 -17.4971v-37.5
c0 -14.667 -0.166992 -30.334 -0.5 -47.001s-0.5 -32.334 -0.5 -47.001v-38v-19c0 -16 2.16699 -29.167 6.5 -39.5s13.166 -15.5 26.499 -15.5c4 0 10.333 0.5 19 1.5s16.667 2.5 24 4.5l8 -45c-17.333 -16.667 -38 -30.5 -62 -41.5s-49 -16.5 -75 -16.5
c-28.667 0 -52 8.33301 -70 25s-31.333 38.667 -40 66c-8 -10.667 -17.167 -21.334 -27.5 -32.001s-22 -20.167 -35 -28.5s-27.5 -15 -43.5 -20s-34 -7.5 -54 -7.5c-43.333 0 -77.5 12.667 -102.5 38s-37.5 59.333 -37.5 102c0 22 3.83301 41 11.5 57
s17.834 29.5 30.501 40.5s27.167 20.333 43.5 28s33.166 14.5 50.499 20.5l161 56v59c0 37.333 -4.83301 64 -14.5 80s-26.5 24 -50.5 24c-19.333 0 -33.666 -6 -42.999 -18s-14 -27.667 -14 -47c0 -11.333 0.5 -22.166 1.5 -32.499s3.16699 -21.166 6.5 -32.499l-111 -17
c-13.333 5.33301 -23 14 -29 26s-9 25.667 -9 41c0 23.333 5.33301 43.666 16 60.999s25.5 31.666 44.5 42.999s41.667 19.833 68 25.5s55.166 8.5 86.499 8.5c34.667 0 65.334 -3.33301 92.001 -10s49.167 -18 67.5 -34s32.166 -37.333 41.499 -64s14 -60 14 -100z
M468.002 765.001l-154 -162h-85l69 162h170z" />
    <glyph glyph-name="acircumflex" unicode="&#xe2;" horiz-adv-x="580" 
d="M267 94c12.667 0 23.501 1.49805 32.501 4.49805s18.5 7.83301 28.5 14.5v168l-76 -30c-34 -13.333 -51 -38.666 -51 -75.999c0 -25.333 5.66699 -45.166 17 -59.499s27.666 -21.5 48.999 -21.5zM495.001 347.998l0.000976562 -17.4971v-37.5
c0 -14.667 -0.166992 -30.334 -0.5 -47.001s-0.5 -32.334 -0.5 -47.001v-38v-19c0 -16 2.16699 -29.167 6.5 -39.5s13.166 -15.5 26.499 -15.5c4 0 10.333 0.5 19 1.5s16.667 2.5 24 4.5l8 -45c-17.333 -16.667 -38 -30.5 -62 -41.5s-49 -16.5 -75 -16.5
c-28.667 0 -52 8.33301 -70 25s-31.333 38.667 -40 66c-8 -10.667 -17.167 -21.334 -27.5 -32.001s-22 -20.167 -35 -28.5s-27.5 -15 -43.5 -20s-34 -7.5 -54 -7.5c-43.333 0 -77.5 12.667 -102.5 38s-37.5 59.333 -37.5 102c0 22 3.83301 41 11.5 57
s17.834 29.5 30.501 40.5s27.167 20.333 43.5 28s33.166 14.5 50.499 20.5l161 56v59c0 37.333 -4.83301 64 -14.5 80s-26.5 24 -50.5 24c-19.333 0 -33.666 -6 -42.999 -18s-14 -27.667 -14 -47c0 -11.333 0.5 -22.166 1.5 -32.499s3.16699 -21.166 6.5 -32.499l-111 -17
c-13.333 5.33301 -23 14 -29 26s-9 25.667 -9 41c0 23.333 5.33301 43.666 16 60.999s25.5 31.666 44.5 42.999s41.667 19.833 68 25.5s55.166 8.5 86.499 8.5c34.667 0 65.334 -3.33301 92.001 -10s49.167 -18 67.5 -34s32.166 -37.333 41.499 -64s14 -60 14 -100z
M487.002 596.001h-86l-114 85l-114 -85h-86l139 170h122z" />
    <glyph glyph-name="atilde" unicode="&#xe3;" horiz-adv-x="580" 
d="M267 94c12.667 0 23.501 1.49805 32.501 4.49805s18.5 7.83301 28.5 14.5v168l-76 -30c-34 -13.333 -51 -38.666 -51 -75.999c0 -25.333 5.66699 -45.166 17 -59.499s27.666 -21.5 48.999 -21.5zM495.001 347.998l0.000976562 -17.4971v-37.5
c0 -14.667 -0.166992 -30.334 -0.5 -47.001s-0.5 -32.334 -0.5 -47.001v-38v-19c0 -16 2.16699 -29.167 6.5 -39.5s13.166 -15.5 26.499 -15.5c4 0 10.333 0.5 19 1.5s16.667 2.5 24 4.5l8 -45c-17.333 -16.667 -38 -30.5 -62 -41.5s-49 -16.5 -75 -16.5
c-28.667 0 -52 8.33301 -70 25s-31.333 38.667 -40 66c-8 -10.667 -17.167 -21.334 -27.5 -32.001s-22 -20.167 -35 -28.5s-27.5 -15 -43.5 -20s-34 -7.5 -54 -7.5c-43.333 0 -77.5 12.667 -102.5 38s-37.5 59.333 -37.5 102c0 22 3.83301 41 11.5 57
s17.834 29.5 30.501 40.5s27.167 20.333 43.5 28s33.166 14.5 50.499 20.5l161 56v59c0 37.333 -4.83301 64 -14.5 80s-26.5 24 -50.5 24c-19.333 0 -33.666 -6 -42.999 -18s-14 -27.667 -14 -47c0 -11.333 0.5 -22.166 1.5 -32.499s3.16699 -21.166 6.5 -32.499l-111 -17
c-13.333 5.33301 -23 14 -29 26s-9 25.667 -9 41c0 23.333 5.33301 43.666 16 60.999s25.5 31.666 44.5 42.999s41.667 19.833 68 25.5s55.166 8.5 86.499 8.5c34.667 0 65.334 -3.33301 92.001 -10s49.167 -18 67.5 -34s32.166 -37.333 41.499 -64s14 -60 14 -100z
M493.002 755.001c-13.333 -30 -25.1719 -54.333 -35.5049 -73s-20.666 -33.167 -30.999 -43.5s-21 -17.333 -32 -21s-23.5 -5.5 -37.5 -5.5s-27.333 3.16699 -40 9.5s-24.667 13.5 -36 21.5s-22.166 15.167 -32.499 21.5s-20.166 9.5 -29.499 9.5
c-15.333 0 -27.666 -5.33301 -36.999 -16s-18.666 -24 -27.999 -40l-56 11c13.333 30 25.333 54.5 36 73.5s21 33.667 31 44s20.667 17.333 32 21s24 5.5 38 5.5c16 0 30.333 -3.33301 43 -10s24.5 -13.834 35.5 -21.501l30.5 -21.5c9.33301 -6.66699 19 -10 29 -10
c14.667 0 26.667 5.33301 36 16s19 24.334 29 41.001z" />
    <glyph glyph-name="adieresis" unicode="&#xe4;" horiz-adv-x="580" 
d="M267 94c12.667 0 23.501 1.49805 32.501 4.49805s18.5 7.83301 28.5 14.5v168l-76 -30c-34 -13.333 -51 -38.666 -51 -75.999c0 -25.333 5.66699 -45.166 17 -59.499s27.666 -21.5 48.999 -21.5zM495.001 347.998l0.000976562 -17.4971v-37.5
c0 -14.667 -0.166992 -30.334 -0.5 -47.001s-0.5 -32.334 -0.5 -47.001v-38v-19c0 -16 2.16699 -29.167 6.5 -39.5s13.166 -15.5 26.499 -15.5c4 0 10.333 0.5 19 1.5s16.667 2.5 24 4.5l8 -45c-17.333 -16.667 -38 -30.5 -62 -41.5s-49 -16.5 -75 -16.5
c-28.667 0 -52 8.33301 -70 25s-31.333 38.667 -40 66c-8 -10.667 -17.167 -21.334 -27.5 -32.001s-22 -20.167 -35 -28.5s-27.5 -15 -43.5 -20s-34 -7.5 -54 -7.5c-43.333 0 -77.5 12.667 -102.5 38s-37.5 59.333 -37.5 102c0 22 3.83301 41 11.5 57
s17.834 29.5 30.501 40.5s27.167 20.333 43.5 28s33.166 14.5 50.499 20.5l161 56v59c0 37.333 -4.83301 64 -14.5 80s-26.5 24 -50.5 24c-19.333 0 -33.666 -6 -42.999 -18s-14 -27.667 -14 -47c0 -11.333 0.5 -22.166 1.5 -32.499s3.16699 -21.166 6.5 -32.499l-111 -17
c-13.333 5.33301 -23 14 -29 26s-9 25.667 -9 41c0 23.333 5.33301 43.666 16 60.999s25.5 31.666 44.5 42.999s41.667 19.833 68 25.5s55.166 8.5 86.499 8.5c34.667 0 65.334 -3.33301 92.001 -10s49.167 -18 67.5 -34s32.166 -37.333 41.499 -64s14 -60 14 -100z
M97.002 688.001c0 22.667 8 42.167 24 58.5s35.667 24.5 59 24.5s43.166 -8.16699 59.499 -24.5s24.5 -35.833 24.5 -58.5s-8.16699 -42.167 -24.5 -58.5s-36.166 -24.5 -59.499 -24.5s-43 8.16699 -59 24.5s-24 35.833 -24 58.5zM311.002 688.001
c0 11.333 2.16699 22 6.5 32s10.333 18.833 18 26.5s16.334 13.667 26.001 18s20.167 6.5 31.5 6.5c24 0 44.167 -8.16699 60.5 -24.5s24.5 -35.833 24.5 -58.5s-8.16699 -42.167 -24.5 -58.5s-36.5 -24.5 -60.5 -24.5c-11.333 0 -21.833 2.16699 -31.5 6.5
s-18.334 10.333 -26.001 18s-13.667 16.5 -18 26.5s-6.5 20.667 -6.5 32z" />
    <glyph glyph-name="aring" unicode="&#xe5;" horiz-adv-x="580" 
d="M267 94c12.667 0 23.501 1.49805 32.501 4.49805s18.5 7.83301 28.5 14.5v168l-76 -30c-34 -13.333 -51 -38.666 -51 -75.999c0 -25.333 5.66699 -45.166 17 -59.499s27.666 -21.5 48.999 -21.5zM495.001 347.998l0.000976562 -17.4971v-37.5
c0 -14.667 -0.166992 -30.334 -0.5 -47.001s-0.5 -32.334 -0.5 -47.001v-38v-19c0 -16 2.16699 -29.167 6.5 -39.5s13.166 -15.5 26.499 -15.5c4 0 10.333 0.5 19 1.5s16.667 2.5 24 4.5l8 -45c-17.333 -16.667 -38 -30.5 -62 -41.5s-49 -16.5 -75 -16.5
c-28.667 0 -52 8.33301 -70 25s-31.333 38.667 -40 66c-8 -10.667 -17.167 -21.334 -27.5 -32.001s-22 -20.167 -35 -28.5s-27.5 -15 -43.5 -20s-34 -7.5 -54 -7.5c-43.333 0 -77.5 12.667 -102.5 38s-37.5 59.333 -37.5 102c0 22 3.83301 41 11.5 57
s17.834 29.5 30.501 40.5s27.167 20.333 43.5 28s33.166 14.5 50.499 20.5l161 56v59c0 37.333 -4.83301 64 -14.5 80s-26.5 24 -50.5 24c-19.333 0 -33.666 -6 -42.999 -18s-14 -27.667 -14 -47c0 -11.333 0.5 -22.166 1.5 -32.499s3.16699 -21.166 6.5 -32.499l-111 -17
c-13.333 5.33301 -23 14 -29 26s-9 25.667 -9 41c0 23.333 5.33301 43.666 16 60.999s25.5 31.666 44.5 42.999s41.667 19.833 68 25.5s55.166 8.5 86.499 8.5c34.667 0 65.334 -3.33301 92.001 -10s49.167 -18 67.5 -34s32.166 -37.333 41.499 -64s14 -60 14 -100z
M175.002 694.001c0 28 10.167 51.5 30.5 70.5s46.5 28.5 78.5 28.5s58.167 -9.5 78.5 -28.5s30.5 -42.5 30.5 -70.5s-10.167 -51.5 -30.5 -70.5s-46.5 -28.5 -78.5 -28.5s-58.167 9.5 -78.5 28.5s-30.5 42.5 -30.5 70.5zM331.002 694.001c0 13.333 -4 24.333 -12 33
s-19.667 13 -35 13s-27 -4.33301 -35 -13s-12 -19.667 -12 -33s4 -24.333 12 -33s19.667 -13 35 -13s27 4.33301 35 13s12 19.667 12 33z" />
    <glyph glyph-name="ae" unicode="&#xe6;" horiz-adv-x="852" 
d="M600 556c35.333 0 66.4932 -5.99512 93.4932 -17.9951s49.5 -28.333 67.5 -49s31.667 -44.834 41 -72.501s14 -57.167 14 -88.5v-37h-333c0 -52.667 14.667 -94.334 44 -125.001s67.333 -46 114 -46c33.333 0 61.833 6.16699 85.5 18.5s44.167 29.833 61.5 52.5l30 -19
c-13.333 -54.667 -39.5 -98.667 -78.5 -132s-89.833 -50 -152.5 -50c-47.333 0 -89.166 9.66699 -125.499 29s-65.166 46.666 -86.499 81.999c-25.333 -38 -55 -65.5 -89 -82.5s-69 -25.5 -105 -25.5c-23.333 0 -44.166 3.66699 -62.499 11s-34 17.166 -47 29.499
s-23 27 -30 44s-10.5 35.5 -10.5 55.5c0 22 3.83301 41 11.5 57s18 29.833 31 41.5s28 21.167 45 28.5s35.167 13.666 54.5 18.999l169 47l5 21c-1.33301 50 -8.33301 87.667 -21 113s-33.667 38 -63 38c-19.333 0 -33.666 -6 -42.999 -18s-14 -27.667 -14 -47
c0 -11.333 0.5 -22.166 1.5 -32.499s3.16699 -21.166 6.5 -32.499l-111 -17c-13.333 5.33301 -23 14 -29 26s-9 25.667 -9 41c0 23.333 5.33301 43.666 16 60.999s25.167 31.666 43.5 42.999s39.833 19.833 64.5 25.5s51.334 8.5 80.001 8.5
c42.667 0 76.667 -5.33301 102 -16s45.333 -26.667 60 -48c22.667 20.667 48.334 36.5 77.001 47.5s59.334 16.5 92.001 16.5zM582.993 491.005c-15.333 0 -28.666 -3.83398 -39.999 -11.501s-21 -18 -29 -31s-14.333 -28.167 -19 -45.5s-8 -35.666 -10 -54.999h184
c-0.666992 42.667 -7.83398 77.167 -21.501 103.5s-35.167 39.5 -64.5 39.5zM335.993 270.004l-81.999 -22.999c-35.333 -10.667 -53 -37.334 -53 -80.001c0 -20.667 5.66699 -38 17 -52s27.666 -21 48.999 -21c34 0 65.667 11 95 33c-17.333 38 -26 80.667 -26 128v15z" />
    <glyph glyph-name="ccedilla" unicode="&#xe7;" horiz-adv-x="535" 
d="M174 -185c36 0 64.1719 3.33594 84.5049 10.0029s30.5 17 30.5 31c0 13.333 -8.16699 22.5 -24.5 27.5s-36.833 8.16699 -61.5 9.5l40 99c-30.667 4 -58.834 13 -84.501 27s-47.667 32.167 -66 54.5s-32.666 48.666 -42.999 78.999s-15.5 63.833 -15.5 100.5
c0 42.667 6.66699 82.5 20 119.5s32.166 69.167 56.499 96.5s53.666 48.666 87.999 63.999s72.833 23 115.5 23c26 0 50.5 -3 73.5 -9s43.167 -15 60.5 -27s31 -26.833 41 -44.5s15 -37.834 15 -60.501c0 -20 -4 -36.167 -12 -48.5s-18 -21.166 -30 -26.499h-88v49
c0 29.333 -5.16699 53.333 -15.5 72s-29.5 28 -57.5 28c-15.333 0 -30 -3.66699 -44 -11s-26.167 -18.166 -36.5 -32.499s-18.5 -31.833 -24.5 -52.5s-9 -44 -9 -70c0 -30.667 3.16699 -58.5 9.5 -83.5s16 -46.5 29 -64.5s29 -32 48 -42s41.167 -15 66.5 -15
c29.333 0 55.666 6.66699 78.999 20s43.666 31.666 60.999 54.999l31 -21c-16.667 -62 -44 -107.5 -82 -136.5s-84.667 -44.167 -140 -45.5l-12 -35c30 -2.66699 54 -9.83398 72 -21.501s27 -30.167 27 -55.5c0 -18 -5.33301 -33.833 -16 -47.5s-24.834 -25 -42.501 -34
s-38.167 -15.833 -61.5 -20.5s-47.333 -7 -72 -7z" />
    <glyph glyph-name="egrave" unicode="&#xe8;" horiz-adv-x="553" 
d="M301 556c35.333 0 66.501 -5.99707 93.501 -17.9971s49.5 -28.333 67.5 -49s31.667 -44.834 41 -72.501s14 -57.167 14 -88.5v-37h-333c0 -52.667 14.667 -94.334 44 -125.001s67.333 -46 114 -46c33.333 0 61.833 6.16699 85.5 18.5s44.167 29.833 61.5 52.5l30 -19
c-13.333 -54.667 -39.5 -98.667 -78.5 -132s-89.833 -50 -152.5 -50c-37.333 0 -71.5 6.33301 -102.5 19s-57.667 30.5 -80 53.5s-39.833 50.833 -52.5 83.5s-19 69 -19 109c0 45.333 7 86.5 21 123.5s33 68.667 57 95s52.167 46.666 84.5 60.999s67.166 21.5 104.499 21.5z
M284.001 491.003c-15.333 0 -28.666 -3.83398 -39.999 -11.501s-21 -18 -29 -31s-14.333 -28.167 -19 -45.5s-8 -35.666 -10 -54.999h184c-0.666992 42.667 -7.83398 77.167 -21.501 103.5s-35.167 39.5 -64.5 39.5zM279.001 765.002l68 -162h-84l-154 162h170z" />
    <glyph glyph-name="eacute" unicode="&#xe9;" horiz-adv-x="553" 
d="M479 765l-154 -162h-85l69 162h170zM301 556c35.333 0 66.501 -5.99707 93.501 -17.9971s49.5 -28.333 67.5 -49s31.667 -44.834 41 -72.501s14 -57.167 14 -88.5v-37h-333c0 -52.667 14.667 -94.334 44 -125.001s67.333 -46 114 -46c33.333 0 61.833 6.16699 85.5 18.5
s44.167 29.833 61.5 52.5l30 -19c-13.333 -54.667 -39.5 -98.667 -78.5 -132s-89.833 -50 -152.5 -50c-37.333 0 -71.5 6.33301 -102.5 19s-57.667 30.5 -80 53.5s-39.833 50.833 -52.5 83.5s-19 69 -19 109c0 45.333 7 86.5 21 123.5s33 68.667 57 95
s52.167 46.666 84.5 60.999s67.166 21.5 104.499 21.5zM284.001 491.003c-15.333 0 -28.666 -3.83398 -39.999 -11.501s-21 -18 -29 -31s-14.333 -28.167 -19 -45.5s-8 -35.666 -10 -54.999h184c-0.666992 42.667 -7.83398 77.167 -21.501 103.5s-35.167 39.5 -64.5 39.5z
" />
    <glyph glyph-name="ecircumflex" unicode="&#xea;" horiz-adv-x="553" 
d="M496 596h-86l-114 85l-114 -85h-86l139 170h122zM301 556c35.333 0 66.501 -5.99707 93.501 -17.9971s49.5 -28.333 67.5 -49s31.667 -44.834 41 -72.501s14 -57.167 14 -88.5v-37h-333c0 -52.667 14.667 -94.334 44 -125.001s67.333 -46 114 -46
c33.333 0 61.833 6.16699 85.5 18.5s44.167 29.833 61.5 52.5l30 -19c-13.333 -54.667 -39.5 -98.667 -78.5 -132s-89.833 -50 -152.5 -50c-37.333 0 -71.5 6.33301 -102.5 19s-57.667 30.5 -80 53.5s-39.833 50.833 -52.5 83.5s-19 69 -19 109c0 45.333 7 86.5 21 123.5
s33 68.667 57 95s52.167 46.666 84.5 60.999s67.166 21.5 104.499 21.5zM284.001 491.003c-15.333 0 -28.666 -3.83398 -39.999 -11.501s-21 -18 -29 -31s-14.333 -28.167 -19 -45.5s-8 -35.666 -10 -54.999h184c-0.666992 42.667 -7.83398 77.167 -21.501 103.5
s-35.167 39.5 -64.5 39.5z" />
    <glyph glyph-name="edieresis" unicode="&#xeb;" horiz-adv-x="553" 
d="M106 688c0 22.667 8 42.167 24 58.5s35.667 24.5 59 24.5s43.166 -8.16699 59.499 -24.5s24.5 -35.833 24.5 -58.5s-8.16699 -42.167 -24.5 -58.5s-36.166 -24.5 -59.499 -24.5s-43 8.16699 -59 24.5s-24 35.833 -24 58.5zM320 688c0 11.333 2.16699 22 6.5 32
s10.333 18.833 18 26.5s16.334 13.667 26.001 18s20.167 6.5 31.5 6.5c24 0 44.167 -8.16699 60.5 -24.5s24.5 -35.833 24.5 -58.5s-8.16699 -42.167 -24.5 -58.5s-36.5 -24.5 -60.5 -24.5c-11.333 0 -21.833 2.16699 -31.5 6.5s-18.334 10.333 -26.001 18
s-13.667 16.5 -18 26.5s-6.5 20.667 -6.5 32zM301 556c35.333 0 66.501 -5.99707 93.501 -17.9971s49.5 -28.333 67.5 -49s31.667 -44.834 41 -72.501s14 -57.167 14 -88.5v-37h-333c0 -52.667 14.667 -94.334 44 -125.001s67.333 -46 114 -46
c33.333 0 61.833 6.16699 85.5 18.5s44.167 29.833 61.5 52.5l30 -19c-13.333 -54.667 -39.5 -98.667 -78.5 -132s-89.833 -50 -152.5 -50c-37.333 0 -71.5 6.33301 -102.5 19s-57.667 30.5 -80 53.5s-39.833 50.833 -52.5 83.5s-19 69 -19 109c0 45.333 7 86.5 21 123.5
s33 68.667 57 95s52.167 46.666 84.5 60.999s67.166 21.5 104.499 21.5zM284.001 491.003c-15.333 0 -28.666 -3.83398 -39.999 -11.501s-21 -18 -29 -31s-14.333 -28.167 -19 -45.5s-8 -35.666 -10 -54.999h184c-0.666992 42.667 -7.83398 77.167 -21.501 103.5
s-35.167 39.5 -64.5 39.5z" />
    <glyph glyph-name="igrave" unicode="&#xec;" horiz-adv-x="357" 
d="M267 118c0 -11.333 1.16797 -20.5 3.50098 -27.5s6.16602 -12.333 11.499 -16s12 -6.5 20 -8.5s17.667 -3.66699 29 -5v-61h-297v61c10.667 1.33301 20.167 3 28.5 5s15 4.83301 20 8.5s8.83301 9 11.5 16s4 16.167 4 27.5v304l-59 55v29l196 51h32v-439zM161.001 765
l68 -162h-84l-154 162h170z" />
    <glyph glyph-name="iacute" unicode="&#xed;" horiz-adv-x="357" 
d="M371 765l-154 -162h-85l69 162h170zM267 118c0 -11.333 1.16797 -20.5 3.50098 -27.5s6.16602 -12.333 11.499 -16s12 -6.5 20 -8.5s17.667 -3.66699 29 -5v-61h-297v61c10.667 1.33301 20.167 3 28.5 5s15 4.83301 20 8.5s8.83301 9 11.5 16s4 16.167 4 27.5v304l-59 55
v29l196 51h32v-439z" />
    <glyph glyph-name="icircumflex" unicode="&#xee;" horiz-adv-x="357" 
d="M382 596h-86l-114 85l-114 -85h-86l139 170h122zM267 118c0 -11.333 1.16797 -20.5 3.50098 -27.5s6.16602 -12.333 11.499 -16s12 -6.5 20 -8.5s17.667 -3.66699 29 -5v-61h-297v61c10.667 1.33301 20.167 3 28.5 5s15 4.83301 20 8.5s8.83301 9 11.5 16
s4 16.167 4 27.5v304l-59 55v29l196 51h32v-439z" />
    <glyph glyph-name="idieresis" unicode="&#xef;" horiz-adv-x="357" 
d="M-8 688c0 22.667 8 42.167 24 58.5s35.667 24.5 59 24.5s43.166 -8.16699 59.499 -24.5s24.5 -35.833 24.5 -58.5s-8.16699 -42.167 -24.5 -58.5s-36.166 -24.5 -59.499 -24.5s-43 8.16699 -59 24.5s-24 35.833 -24 58.5zM206 688c0 11.333 2.16699 22 6.5 32
s10.333 18.833 18 26.5s16.334 13.667 26.001 18s20.167 6.5 31.5 6.5c24 0 44.167 -8.16699 60.5 -24.5s24.5 -35.833 24.5 -58.5s-8.16699 -42.167 -24.5 -58.5s-36.5 -24.5 -60.5 -24.5c-11.333 0 -21.833 2.16699 -31.5 6.5s-18.334 10.333 -26.001 18
s-13.667 16.5 -18 26.5s-6.5 20.667 -6.5 32zM267 118c0 -11.333 1.16797 -20.5 3.50098 -27.5s6.16602 -12.333 11.499 -16s12 -6.5 20 -8.5s17.667 -3.66699 29 -5v-61h-297v61c10.667 1.33301 20.167 3 28.5 5s15 4.83301 20 8.5s8.83301 9 11.5 16s4 16.167 4 27.5v304
l-59 55v29l196 51h32v-439z" />
    <glyph glyph-name="eth" unicode="&#xf0;" horiz-adv-x="618" 
d="M140 614l128.995 50c-44 32.667 -94 57 -150 73l21 39c45.333 -7.33301 86.5 -17.333 123.5 -30s70.833 -27.667 101.5 -45l117 45l18 -43l-87 -34c30.667 -22 56.834 -46.5 78.501 -73.5s39.334 -55.167 53.001 -84.5s23.667 -59.666 30 -90.999
s9.5 -62.666 9.5 -93.999c0 -52 -6.16699 -98.667 -18.5 -140s-30.5 -76.5 -54.5 -105.5s-53.333 -51.333 -88 -67s-74 -23.5 -118 -23.5c-41.333 0 -78.666 7 -111.999 21s-61.666 33.167 -84.999 57.5s-41.5 53.166 -54.5 86.499s-19.5 69.666 -19.5 108.999
c0 43.333 7 81.833 21 115.5s32.833 62 56.5 85s50.667 40.5 81 52.5s61.833 18 94.5 18c28 0 51.5 -4.66699 70.5 -14s35.5 -21.333 49.5 -36c-9.33301 25.333 -22.166 50.333 -38.499 75s-35.833 47.667 -58.5 69l-152 -58zM320.995 57c15.333 0 29 4.66699 41 14
s22 22.5 30 39.5s14 37 18 60s6 48.5 6 76.5c0 34 -2.5 65.5 -7.5 94.5s-12.333 53.833 -22 74.5s-21.5 36.834 -35.5 48.501s-30 17.5 -48 17.5c-32 0 -56 -16.5 -72 -49.5s-24 -77.5 -24 -133.5c0 -34 2.5 -65.833 7.5 -95.5s12.333 -55.334 22 -77.001
s21.667 -38.667 36 -51s30.5 -18.5 48.5 -18.5z" />
    <glyph glyph-name="ntilde" unicode="&#xf1;" horiz-adv-x="694" 
d="M440 376c0 23.333 -4.83105 40.834 -14.498 52.501s-27.167 17.5 -52.5 17.5c-20.667 0 -39.834 -2.33301 -57.501 -7s-33.834 -10.334 -48.501 -17.001v-304c0 -11.333 1 -20.5 3 -27.5s5.33301 -12.333 10 -16s10.834 -6.5 18.501 -8.5s17.167 -3.66699 28.5 -5v-61
h-293v61c10.667 1.33301 20.167 3 28.5 5s15 4.83301 20 8.5s8.83301 9 11.5 16s4 16.167 4 27.5v301l-59 54v33l196 54h32v-108c10.667 12 22.5 24.167 35.5 36.5s27.5 23.5 43.5 33.5s33.5 18.167 52.5 24.5s39.167 9.5 60.5 9.5c48 0 85 -13.167 111 -39.5
s39 -67.833 39 -124.5v-274c0 -11.333 1.16699 -20.5 3.5 -27.5s6.16602 -12.333 11.499 -16s12 -6.5 20 -8.5s17.667 -3.66699 29 -5v-61h-292v61c11.333 1.33301 20.833 3 28.5 5s13.667 4.83301 18 8.5s7.5 9 9.5 16s3 16.167 3 27.5v258zM555.002 755.001
c-13.333 -30 -25.1719 -54.333 -35.5049 -73s-20.666 -33.167 -30.999 -43.5s-21 -17.333 -32 -21s-23.5 -5.5 -37.5 -5.5s-27.333 3.16699 -40 9.5s-24.667 13.5 -36 21.5s-22.166 15.167 -32.499 21.5s-20.166 9.5 -29.499 9.5c-15.333 0 -27.666 -5.33301 -36.999 -16
s-18.666 -24 -27.999 -40l-56 11c13.333 30 25.333 54.5 36 73.5s21 33.667 31 44s20.667 17.333 32 21s24 5.5 38 5.5c16 0 30.333 -3.33301 43 -10s24.5 -13.834 35.5 -21.501l30.5 -21.5c9.33301 -6.66699 19 -10 29 -10c14.667 0 26.667 5.33301 36 16
s19 24.334 29 41.001z" />
    <glyph glyph-name="ograve" unicode="&#xf2;" horiz-adv-x="624" 
d="M321 57c15.333 0 29 4.66797 41 14.001s22 22.5 30 39.5s14 37 18 60s6 48.5 6 76.5c0 34 -2.5 65.833 -7.5 95.5s-12.333 55.5 -22 77.5s-21.5 39.167 -35.5 51.5s-30 18.5 -48 18.5c-16 0 -30 -4.66699 -42 -14s-22 -22.5 -30 -39.5s-14 -37.167 -18 -60.5
s-6 -49 -6 -77c0 -34 2.5 -65.833 7.5 -95.5s12.333 -55.334 22 -77.001s21.667 -38.667 36 -51s30.5 -18.5 48.5 -18.5zM305 -9.99902c-41.333 0 -78.6699 7.00195 -112.003 21.002s-61.666 33.167 -84.999 57.5s-41.5 53.166 -54.5 86.499s-19.5 69.666 -19.5 108.999
c0 44.667 7.16699 85 21.5 121s34.333 66.667 60 92s55.834 44.833 90.501 58.5s72.334 20.5 113.001 20.5s77.834 -7 111.501 -21s62.167 -33.167 85.5 -57.5s41.5 -53.166 54.5 -86.499s19.5 -69.333 19.5 -108c0 -44.667 -7.33301 -85 -22 -121
s-34.667 -66.833 -60 -92.5s-55.333 -45.334 -90 -59.001s-72.334 -20.5 -113.001 -20.5zM294.996 765.003l68 -162h-84l-154 162h170z" />
    <glyph glyph-name="oacute" unicode="&#xf3;" horiz-adv-x="624" 
d="M505 765l-154 -162h-85l69 162h170zM321 57c15.333 0 29 4.66797 41 14.001s22 22.5 30 39.5s14 37 18 60s6 48.5 6 76.5c0 34 -2.5 65.833 -7.5 95.5s-12.333 55.5 -22 77.5s-21.5 39.167 -35.5 51.5s-30 18.5 -48 18.5c-16 0 -30 -4.66699 -42 -14s-22 -22.5 -30 -39.5
s-14 -37.167 -18 -60.5s-6 -49 -6 -77c0 -34 2.5 -65.833 7.5 -95.5s12.333 -55.334 22 -77.001s21.667 -38.667 36 -51s30.5 -18.5 48.5 -18.5zM305 -9.99902c-41.333 0 -78.6699 7.00195 -112.003 21.002s-61.666 33.167 -84.999 57.5s-41.5 53.166 -54.5 86.499
s-19.5 69.666 -19.5 108.999c0 44.667 7.16699 85 21.5 121s34.333 66.667 60 92s55.834 44.833 90.501 58.5s72.334 20.5 113.001 20.5s77.834 -7 111.501 -21s62.167 -33.167 85.5 -57.5s41.5 -53.166 54.5 -86.499s19.5 -69.333 19.5 -108
c0 -44.667 -7.33301 -85 -22 -121s-34.667 -66.833 -60 -92.5s-55.333 -45.334 -90 -59.001s-72.334 -20.5 -113.001 -20.5z" />
    <glyph glyph-name="ocircumflex" unicode="&#xf4;" horiz-adv-x="624" 
d="M516 596h-86l-114 85l-114 -85h-86l139 170h122zM321 57c15.333 0 29 4.66797 41 14.001s22 22.5 30 39.5s14 37 18 60s6 48.5 6 76.5c0 34 -2.5 65.833 -7.5 95.5s-12.333 55.5 -22 77.5s-21.5 39.167 -35.5 51.5s-30 18.5 -48 18.5c-16 0 -30 -4.66699 -42 -14
s-22 -22.5 -30 -39.5s-14 -37.167 -18 -60.5s-6 -49 -6 -77c0 -34 2.5 -65.833 7.5 -95.5s12.333 -55.334 22 -77.001s21.667 -38.667 36 -51s30.5 -18.5 48.5 -18.5zM305 -9.99902c-41.333 0 -78.6699 7.00195 -112.003 21.002s-61.666 33.167 -84.999 57.5
s-41.5 53.166 -54.5 86.499s-19.5 69.666 -19.5 108.999c0 44.667 7.16699 85 21.5 121s34.333 66.667 60 92s55.834 44.833 90.501 58.5s72.334 20.5 113.001 20.5s77.834 -7 111.501 -21s62.167 -33.167 85.5 -57.5s41.5 -53.166 54.5 -86.499s19.5 -69.333 19.5 -108
c0 -44.667 -7.33301 -85 -22 -121s-34.667 -66.833 -60 -92.5s-55.333 -45.334 -90 -59.001s-72.334 -20.5 -113.001 -20.5z" />
    <glyph glyph-name="otilde" unicode="&#xf5;" horiz-adv-x="624" 
d="M321 57c15.333 0 29 4.66797 41 14.001s22 22.5 30 39.5s14 37 18 60s6 48.5 6 76.5c0 34 -2.5 65.833 -7.5 95.5s-12.333 55.5 -22 77.5s-21.5 39.167 -35.5 51.5s-30 18.5 -48 18.5c-16 0 -30 -4.66699 -42 -14s-22 -22.5 -30 -39.5s-14 -37.167 -18 -60.5
s-6 -49 -6 -77c0 -34 2.5 -65.833 7.5 -95.5s12.333 -55.334 22 -77.001s21.667 -38.667 36 -51s30.5 -18.5 48.5 -18.5zM305 -9.99902c-41.333 0 -78.6699 7.00195 -112.003 21.002s-61.666 33.167 -84.999 57.5s-41.5 53.166 -54.5 86.499s-19.5 69.666 -19.5 108.999
c0 44.667 7.16699 85 21.5 121s34.333 66.667 60 92s55.834 44.833 90.501 58.5s72.334 20.5 113.001 20.5s77.834 -7 111.501 -21s62.167 -33.167 85.5 -57.5s41.5 -53.166 54.5 -86.499s19.5 -69.333 19.5 -108c0 -44.667 -7.33301 -85 -22 -121
s-34.667 -66.833 -60 -92.5s-55.333 -45.334 -90 -59.001s-72.334 -20.5 -113.001 -20.5zM513.996 755.003c-13.333 -30 -25.1719 -54.333 -35.5049 -73s-20.666 -33.167 -30.999 -43.5s-21 -17.333 -32 -21s-23.5 -5.5 -37.5 -5.5s-27.333 3.16699 -40 9.5
s-24.667 13.5 -36 21.5s-22.166 15.167 -32.499 21.5s-20.166 9.5 -29.499 9.5c-15.333 0 -27.666 -5.33301 -36.999 -16s-18.666 -24 -27.999 -40l-56 11c13.333 30 25.333 54.5 36 73.5s21 33.667 31 44s20.667 17.333 32 21s24 5.5 38 5.5c16 0 30.333 -3.33301 43 -10
s24.5 -13.834 35.5 -21.501l30.5 -21.5c9.33301 -6.66699 19 -10 29 -10c14.667 0 26.667 5.33301 36 16s19 24.334 29 41.001z" />
    <glyph glyph-name="odieresis" unicode="&#xf6;" horiz-adv-x="624" 
d="M126 688c0 22.667 8 42.167 24 58.5s35.667 24.5 59 24.5s43.166 -8.16699 59.499 -24.5s24.5 -35.833 24.5 -58.5s-8.16699 -42.167 -24.5 -58.5s-36.166 -24.5 -59.499 -24.5s-43 8.16699 -59 24.5s-24 35.833 -24 58.5zM340 688c0 11.333 2.16699 22 6.5 32
s10.333 18.833 18 26.5s16.334 13.667 26.001 18s20.167 6.5 31.5 6.5c24 0 44.167 -8.16699 60.5 -24.5s24.5 -35.833 24.5 -58.5s-8.16699 -42.167 -24.5 -58.5s-36.5 -24.5 -60.5 -24.5c-11.333 0 -21.833 2.16699 -31.5 6.5s-18.334 10.333 -26.001 18
s-13.667 16.5 -18 26.5s-6.5 20.667 -6.5 32zM321 57c15.333 0 29 4.66797 41 14.001s22 22.5 30 39.5s14 37 18 60s6 48.5 6 76.5c0 34 -2.5 65.833 -7.5 95.5s-12.333 55.5 -22 77.5s-21.5 39.167 -35.5 51.5s-30 18.5 -48 18.5c-16 0 -30 -4.66699 -42 -14
s-22 -22.5 -30 -39.5s-14 -37.167 -18 -60.5s-6 -49 -6 -77c0 -34 2.5 -65.833 7.5 -95.5s12.333 -55.334 22 -77.001s21.667 -38.667 36 -51s30.5 -18.5 48.5 -18.5zM305 -9.99902c-41.333 0 -78.6699 7.00195 -112.003 21.002s-61.666 33.167 -84.999 57.5
s-41.5 53.166 -54.5 86.499s-19.5 69.666 -19.5 108.999c0 44.667 7.16699 85 21.5 121s34.333 66.667 60 92s55.834 44.833 90.501 58.5s72.334 20.5 113.001 20.5s77.834 -7 111.501 -21s62.167 -33.167 85.5 -57.5s41.5 -53.166 54.5 -86.499s19.5 -69.333 19.5 -108
c0 -44.667 -7.33301 -85 -22 -121s-34.667 -66.833 -60 -92.5s-55.333 -45.334 -90 -59.001s-72.334 -20.5 -113.001 -20.5z" />
    <glyph glyph-name="divide" unicode="&#xf7;" horiz-adv-x="596" 
d="M70 357h455v-87h-455v87zM230 132c0 19.333 6.5 35.333 19.5 48s28.5 19 46.5 19c19.333 0 35.666 -6.33301 48.999 -19s20 -28.667 20 -48s-6.66699 -35.666 -20 -48.999s-29.666 -20 -48.999 -20c-18 0 -33.5 6.66699 -46.5 20s-19.5 29.666 -19.5 48.999zM230 496
c0 18.667 6.5 34.5 19.5 47.5s28.5 19.5 46.5 19.5c19.333 0 35.666 -6.5 48.999 -19.5s20 -28.833 20 -47.5s-6.66699 -34.834 -20 -48.501s-29.666 -20.5 -48.999 -20.5c-18 0 -33.5 6.83301 -46.5 20.5s-19.5 29.834 -19.5 48.501z" />
    <glyph glyph-name="oslash" unicode="&#xf8;" horiz-adv-x="624" 
d="M481 507c34.667 -24.667 61.499 -56.332 80.499 -94.999s28.5 -81.667 28.5 -129c0 -44.667 -7.33301 -85 -22 -121s-34.667 -66.833 -60 -92.5s-55.333 -45.334 -90 -59.001s-72.334 -20.5 -113.001 -20.5c-42 0 -81 7.66699 -117 23l-52 -88l-48 26l53 89
c-34 24.667 -60.333 56.167 -79 94.5s-28 81.5 -28 129.5c0 44.667 7.16699 85 21.5 121s34.333 66.667 60 92s55.834 44.833 90.501 58.5s72.334 20.5 113.001 20.5c42 0 80.333 -7.66699 115 -23l44 73l47 -26zM320.999 57.002c15.333 0 29.168 4.66699 41.501 14
s22.666 22.5 30.999 39.5s14.833 37 19.5 60s7 48.5 7 76.5c0 26.667 -1.16699 51.167 -3.5 73.5s-5.5 42.5 -9.5 60.5l-166 -280c19.333 -29.333 46 -44 80 -44zM203.001 299.002c0 -52.667 3.99805 -97.333 11.998 -134l167 280c-19.333 30 -45.666 45 -78.999 45
c-16 0 -30.167 -4.66699 -42.5 -14s-22.666 -22.5 -30.999 -39.5s-14.833 -37.167 -19.5 -60.5s-7 -49 -7 -77z" />
    <glyph glyph-name="ugrave" unicode="&#xf9;" horiz-adv-x="675" 
d="M415 88c-9.33301 -11.333 -20.335 -22.8359 -33.002 -34.5029s-26.667 -22.167 -42 -31.5s-32.333 -17 -51 -23s-39 -9 -61 -9c-44 0 -79.667 13.5 -107 40.5s-41 69.833 -41 128.5v240c0 15.333 -2.66699 27.833 -8 37.5s-16.666 16.167 -33.999 19.5l-15 5v52l196 43
h31v-380c0 -54.667 22.333 -82 67 -82c20 0 37.667 2.33301 53 7s30.333 10.334 45 17.001v281c0 15.333 -2.66699 27.833 -8 37.5s-16.666 16.167 -33.999 19.5l-14 5v52l194 43h32v-418c0 -17.333 2.66699 -30.166 8 -38.499s16.333 -13.166 33 -14.499h24v-62l-201 -33
h-34v98zM322.998 764.997l68 -162h-84l-154 162h170z" />
    <glyph glyph-name="uacute" unicode="&#xfa;" horiz-adv-x="675" 
d="M533 765l-154 -162h-85l69 162h170zM415 88c-9.33301 -11.333 -20.335 -22.8359 -33.002 -34.5029s-26.667 -22.167 -42 -31.5s-32.333 -17 -51 -23s-39 -9 -61 -9c-44 0 -79.667 13.5 -107 40.5s-41 69.833 -41 128.5v240c0 15.333 -2.66699 27.833 -8 37.5
s-16.666 16.167 -33.999 19.5l-15 5v52l196 43h31v-380c0 -54.667 22.333 -82 67 -82c20 0 37.667 2.33301 53 7s30.333 10.334 45 17.001v281c0 15.333 -2.66699 27.833 -8 37.5s-16.666 16.167 -33.999 19.5l-14 5v52l194 43h32v-418c0 -17.333 2.66699 -30.166 8 -38.499
s16.333 -13.166 33 -14.499h24v-62l-201 -33h-34v98z" />
    <glyph glyph-name="ucircumflex" unicode="&#xfb;" horiz-adv-x="675" 
d="M544 596h-86l-114 85l-114 -85h-86l139 170h122zM415 88c-9.33301 -11.333 -20.335 -22.8359 -33.002 -34.5029s-26.667 -22.167 -42 -31.5s-32.333 -17 -51 -23s-39 -9 -61 -9c-44 0 -79.667 13.5 -107 40.5s-41 69.833 -41 128.5v240c0 15.333 -2.66699 27.833 -8 37.5
s-16.666 16.167 -33.999 19.5l-15 5v52l196 43h31v-380c0 -54.667 22.333 -82 67 -82c20 0 37.667 2.33301 53 7s30.333 10.334 45 17.001v281c0 15.333 -2.66699 27.833 -8 37.5s-16.666 16.167 -33.999 19.5l-14 5v52l194 43h32v-418c0 -17.333 2.66699 -30.166 8 -38.499
s16.333 -13.166 33 -14.499h24v-62l-201 -33h-34v98z" />
    <glyph glyph-name="udieresis" unicode="&#xfc;" horiz-adv-x="675" 
d="M145 688c0 22.667 8 42.167 24 58.5s35.667 24.5 59 24.5s43.166 -8.16699 59.499 -24.5s24.5 -35.833 24.5 -58.5s-8.16699 -42.167 -24.5 -58.5s-36.166 -24.5 -59.499 -24.5s-43 8.16699 -59 24.5s-24 35.833 -24 58.5zM359 688c0 11.333 2.16699 22 6.5 32
s10.333 18.833 18 26.5s16.334 13.667 26.001 18s20.167 6.5 31.5 6.5c24 0 44.167 -8.16699 60.5 -24.5s24.5 -35.833 24.5 -58.5s-8.16699 -42.167 -24.5 -58.5s-36.5 -24.5 -60.5 -24.5c-11.333 0 -21.833 2.16699 -31.5 6.5s-18.334 10.333 -26.001 18
s-13.667 16.5 -18 26.5s-6.5 20.667 -6.5 32zM415 88c-9.33301 -11.333 -20.335 -22.8359 -33.002 -34.5029s-26.667 -22.167 -42 -31.5s-32.333 -17 -51 -23s-39 -9 -61 -9c-44 0 -79.667 13.5 -107 40.5s-41 69.833 -41 128.5v240c0 15.333 -2.66699 27.833 -8 37.5
s-16.666 16.167 -33.999 19.5l-15 5v52l196 43h31v-380c0 -54.667 22.333 -82 67 -82c20 0 37.667 2.33301 53 7s30.333 10.334 45 17.001v281c0 15.333 -2.66699 27.833 -8 37.5s-16.666 16.167 -33.999 19.5l-14 5v52l194 43h32v-418c0 -17.333 2.66699 -30.166 8 -38.499
s16.333 -13.166 33 -14.499h24v-62l-201 -33h-34v98z" />
    <glyph glyph-name="yacute" unicode="&#xfd;" horiz-adv-x="610" 
d="M62 446c-5.33301 10.667 -11.498 18.333 -18.498 23s-19.833 10.334 -38.5 17.001v60h316v-60c-26 -3.33301 -44 -7.16602 -54 -11.499s-15 -12.5 -15 -24.5c0 -4 0.666992 -8.5 2 -13.5s4 -12.5 8 -22.5l94 -229l93 229c4 10.667 6.66699 18.334 8 23.001s2 9 2 13
c0 12 -4.66699 20.167 -14 24.5s-27 8.16602 -53 11.499v60h213v-60c-9.33301 -3.33301 -17 -6.16602 -23 -8.49902s-11.167 -5 -15.5 -8s-7.83301 -6.33301 -10.5 -10s-5.33398 -8.16699 -8.00098 -13.5l-229 -525c-19.333 -44 -40.5 -76.5 -63.5 -97.5
s-51.5 -31.5 -85.5 -31.5c-19.333 0 -36.333 3.66699 -51 11s-25.667 16.666 -33 27.999v85h58c17.333 0 32.166 0.666992 44.499 2s23 4.16602 32 8.49902s17 10.666 24 18.999s13.5 19.5 19.5 33.5l8 19zM536.002 764.999l-154 -162h-85l69 162h170z" />
    <glyph glyph-name="thorn" unicode="&#xfe;" horiz-adv-x="649" 
d="M242 165c0 -36 6.16699 -63.5 18.5 -82.5s33.5 -28.5 63.5 -28.5c18.667 0 35.334 4.83301 50.001 14.5s27.167 23.167 37.5 40.5s18.166 38 23.499 62s8 50.333 8 79c0 61.333 -11.5 110 -34.5 146s-54.5 54 -94.5 54c-27.333 0 -51.333 -6.66699 -72 -20v-265zM73 632
l-58.999 54v34l196 41h32v-300c16 28 37.333 50.833 64 68.5s59 26.5 97 26.5c65.333 0 117 -22.5 155 -67.5s57 -107.5 57 -187.5c0 -48.667 -7.16699 -92.167 -21.5 -130.5s-34 -70.833 -59 -97.5s-54.5 -47.167 -88.5 -61.5s-70.667 -21.5 -110 -21.5
c-20 0 -38.5 2.66699 -55.5 8s-30.167 12.333 -39.5 21v-98c0 -11.333 1.16699 -20.5 3.5 -27.5s6.16602 -12.333 11.499 -16s12 -6.5 20 -8.5s17.667 -3.66699 29 -5v-61h-297v61c11.333 1.33301 21 3 29 5s14.667 4.83301 20 8.5s9.33301 9 12 16s4 16.167 4 27.5v711z
" />
    <glyph glyph-name="ydieresis" unicode="&#xff;" horiz-adv-x="610" 
d="M62 446c-5.33301 10.667 -11.498 18.333 -18.498 23s-19.833 10.334 -38.5 17.001v60h316v-60c-26 -3.33301 -44 -7.16602 -54 -11.499s-15 -12.5 -15 -24.5c0 -4 0.666992 -8.5 2 -13.5s4 -12.5 8 -22.5l94 -229l93 229c4 10.667 6.66699 18.334 8 23.001s2 9 2 13
c0 12 -4.66699 20.167 -14 24.5s-27 8.16602 -53 11.499v60h213v-60c-9.33301 -3.33301 -17 -6.16602 -23 -8.49902s-11.167 -5 -15.5 -8s-7.83301 -6.33301 -10.5 -10s-5.33398 -8.16699 -8.00098 -13.5l-229 -525c-19.333 -44 -40.5 -76.5 -63.5 -97.5
s-51.5 -31.5 -85.5 -31.5c-19.333 0 -36.333 3.66699 -51 11s-25.667 16.666 -33 27.999v85h58c17.333 0 32.166 0.666992 44.499 2s23 4.16602 32 8.49902s17 10.666 24 18.999s13.5 19.5 19.5 33.5l8 19zM157.002 687.999c0 22.667 8 42.167 24 58.5s35.667 24.5 59 24.5
s43.166 -8.16699 59.499 -24.5s24.5 -35.833 24.5 -58.5s-8.16699 -42.167 -24.5 -58.5s-36.166 -24.5 -59.499 -24.5s-43 8.16699 -59 24.5s-24 35.833 -24 58.5zM371.002 687.999c0 11.333 2.16699 22 6.5 32s10.333 18.833 18 26.5s16.334 13.667 26.001 18
s20.167 6.5 31.5 6.5c24 0 44.167 -8.16699 60.5 -24.5s24.5 -35.833 24.5 -58.5s-8.16699 -42.167 -24.5 -58.5s-36.5 -24.5 -60.5 -24.5c-11.333 0 -21.833 2.16699 -31.5 6.5s-18.334 10.333 -26.001 18s-13.667 16.5 -18 26.5s-6.5 20.667 -6.5 32z" />
    <glyph glyph-name="Amacron" unicode="&#x100;" horiz-adv-x="751" 
d="M448 217l-253.999 0.00683594l-27 -70c-2.66699 -7.33301 -5 -14.5 -7 -21.5s-3 -13.167 -3 -18.5c0 -8 1 -14.5 3 -19.5s5.66699 -9.33301 11 -13s13 -6.33398 23 -8.00098s22.667 -2.83398 38 -3.50098v-63h-225v63c13.333 2.66699 24.833 6.16699 34.5 10.5
s17.167 13.166 22.5 26.499l212 527l-34 78h186l258 -605c5.33301 -12.667 12.666 -21.334 21.999 -26.001s21.333 -8.33398 36 -11.001v-63h-331v63c30 1.33301 50 5.16602 60 11.499s15 17.166 15 32.499c0 10.667 -3.66699 24 -11 40zM219.001 281.007h203l-103 254z
M196.001 860.007h310v-97h-310v97z" />
    <glyph glyph-name="amacron" unicode="&#x101;" horiz-adv-x="580" 
d="M267 94c12.667 0 23.501 1.49805 32.501 4.49805s18.5 7.83301 28.5 14.5v168l-76 -30c-34 -13.333 -51 -38.666 -51 -75.999c0 -25.333 5.66699 -45.166 17 -59.499s27.666 -21.5 48.999 -21.5zM495.001 347.998l0.000976562 -17.4971v-37.5
c0 -14.667 -0.166992 -30.334 -0.5 -47.001s-0.5 -32.334 -0.5 -47.001v-38v-19c0 -16 2.16699 -29.167 6.5 -39.5s13.166 -15.5 26.499 -15.5c4 0 10.333 0.5 19 1.5s16.667 2.5 24 4.5l8 -45c-17.333 -16.667 -38 -30.5 -62 -41.5s-49 -16.5 -75 -16.5
c-28.667 0 -52 8.33301 -70 25s-31.333 38.667 -40 66c-8 -10.667 -17.167 -21.334 -27.5 -32.001s-22 -20.167 -35 -28.5s-27.5 -15 -43.5 -20s-34 -7.5 -54 -7.5c-43.333 0 -77.5 12.667 -102.5 38s-37.5 59.333 -37.5 102c0 22 3.83301 41 11.5 57
s17.834 29.5 30.501 40.5s27.167 20.333 43.5 28s33.166 14.5 50.499 20.5l161 56v59c0 37.333 -4.83301 64 -14.5 80s-26.5 24 -50.5 24c-19.333 0 -33.666 -6 -42.999 -18s-14 -27.667 -14 -47c0 -11.333 0.5 -22.166 1.5 -32.499s3.16699 -21.166 6.5 -32.499l-111 -17
c-13.333 5.33301 -23 14 -29 26s-9 25.667 -9 41c0 23.333 5.33301 43.666 16 60.999s25.5 31.666 44.5 42.999s41.667 19.833 68 25.5s55.166 8.5 86.499 8.5c34.667 0 65.334 -3.33301 92.001 -10s49.167 -18 67.5 -34s32.166 -37.333 41.499 -64s14 -60 14 -100z
M137.002 718.001h298v-93h-298v93z" />
    <glyph glyph-name="Abreve" unicode="&#x102;" horiz-adv-x="751" 
d="M448 217l-253.999 0.00683594l-27 -70c-2.66699 -7.33301 -5 -14.5 -7 -21.5s-3 -13.167 -3 -18.5c0 -8 1 -14.5 3 -19.5s5.66699 -9.33301 11 -13s13 -6.33398 23 -8.00098s22.667 -2.83398 38 -3.50098v-63h-225v63c13.333 2.66699 24.833 6.16699 34.5 10.5
s17.167 13.166 22.5 26.499l212 527l-34 78h186l258 -605c5.33301 -12.667 12.666 -21.334 21.999 -26.001s21.333 -8.33398 36 -11.001v-63h-331v63c30 1.33301 50 5.16602 60 11.499s15 17.166 15 32.499c0 10.667 -3.66699 24 -11 40zM219.001 281.007h203l-103 254z
M351.001 748.007c-50 0 -88.833 14.833 -116.5 44.5s-41.5 70.834 -41.5 123.501h64c2 -16 6.16699 -29.167 12.5 -39.5s13.833 -18.5 22.5 -24.5s18.167 -10.333 28.5 -13s20.5 -4 30.5 -4s20.167 1.33301 30.5 4s19.833 7 28.5 13s16.167 14.167 22.5 24.5
s10.5 23.5 12.5 39.5h64c0 -52.667 -13.833 -93.834 -41.5 -123.501s-66.5 -44.5 -116.5 -44.5z" />
    <glyph glyph-name="abreve" unicode="&#x103;" horiz-adv-x="580" 
d="M267 94c12.667 0 23.501 1.49805 32.501 4.49805s18.5 7.83301 28.5 14.5v168l-76 -30c-34 -13.333 -51 -38.666 -51 -75.999c0 -25.333 5.66699 -45.166 17 -59.499s27.666 -21.5 48.999 -21.5zM495.001 347.998l0.000976562 -17.4971v-37.5
c0 -14.667 -0.166992 -30.334 -0.5 -47.001s-0.5 -32.334 -0.5 -47.001v-38v-19c0 -16 2.16699 -29.167 6.5 -39.5s13.166 -15.5 26.499 -15.5c4 0 10.333 0.5 19 1.5s16.667 2.5 24 4.5l8 -45c-17.333 -16.667 -38 -30.5 -62 -41.5s-49 -16.5 -75 -16.5
c-28.667 0 -52 8.33301 -70 25s-31.333 38.667 -40 66c-8 -10.667 -17.167 -21.334 -27.5 -32.001s-22 -20.167 -35 -28.5s-27.5 -15 -43.5 -20s-34 -7.5 -54 -7.5c-43.333 0 -77.5 12.667 -102.5 38s-37.5 59.333 -37.5 102c0 22 3.83301 41 11.5 57
s17.834 29.5 30.501 40.5s27.167 20.333 43.5 28s33.166 14.5 50.499 20.5l161 56v59c0 37.333 -4.83301 64 -14.5 80s-26.5 24 -50.5 24c-19.333 0 -33.666 -6 -42.999 -18s-14 -27.667 -14 -47c0 -11.333 0.5 -22.166 1.5 -32.499s3.16699 -21.166 6.5 -32.499l-111 -17
c-13.333 5.33301 -23 14 -29 26s-9 25.667 -9 41c0 23.333 5.33301 43.666 16 60.999s25.5 31.666 44.5 42.999s41.667 19.833 68 25.5s55.166 8.5 86.499 8.5c34.667 0 65.334 -3.33301 92.001 -10s49.167 -18 67.5 -34s32.166 -37.333 41.499 -64s14 -60 14 -100z
M281.002 601.001c-49.333 0 -87.499 14.833 -114.499 44.5s-40.5 71.5 -40.5 125.5h64c2 -16 6 -29.333 12 -40s13.167 -19.167 21.5 -25.5s17.5 -10.833 27.5 -13.5s20 -4 30 -4s20.167 1.33301 30.5 4s19.666 7.16699 27.999 13.5s15.5 14.833 21.5 25.5s10 24 12 40h64
c0 -54 -13.5 -95.833 -40.5 -125.5s-65.5 -44.5 -115.5 -44.5z" />
    <glyph glyph-name="Aogonek" unicode="&#x104;" horiz-adv-x="751" 
d="M448 217l-253.999 0.00390625l-27 -70c-2.66699 -7.33301 -5 -14.5 -7 -21.5s-3 -13.167 -3 -18.5c0 -8 1 -14.5 3 -19.5s5.66699 -9.33301 11 -13s13 -6.33398 23 -8.00098s22.667 -2.83398 38 -3.50098v-63h-225v63c13.333 2.66699 24.833 6.16699 34.5 10.5
s17.167 13.166 22.5 26.499l212 527l-34 78h186l258 -605c5.33301 -12.667 12.666 -21.334 21.999 -26.001s21.333 -8.33398 36 -11.001v-63h-298c-17.333 -9.33301 -31.5 -21.333 -42.5 -36s-16.5 -30.667 -16.5 -48c0 -16.667 3.83301 -29.667 11.5 -39
s19.167 -14 34.5 -14c11.333 0 22.833 1.5 34.5 4.5s25.167 9.16699 40.5 18.5l17 -26c-20.667 -23.333 -41.5 -41.333 -62.5 -54s-45.833 -19 -74.5 -19c-26 0 -49 8.66699 -69 26s-30 42 -30 74c0 30 10 57 30 81s53 46.667 99 68c26 12.667 44.167 23.834 54.5 33.501
s15.5 22.167 15.5 37.5c0 10.667 -3.66699 24 -11 40zM219.001 281.004h203l-103 254z" />
    <glyph glyph-name="aogonek" unicode="&#x105;" horiz-adv-x="580" 
d="M495 348l-0.000976562 -17.498v-37.5c0 -14.667 -0.166992 -30.334 -0.5 -47.001s-0.5 -32.334 -0.5 -47.001v-38v-19c0 -16 2.16699 -29.167 6.5 -39.5s13.166 -15.5 26.499 -15.5c4 0 10.333 0.5 19 1.5s16.667 2.5 24 4.5l8 -45
c-18.667 -11.333 -37.167 -22 -55.5 -32s-35 -20.5 -50 -31.5s-27.167 -23 -36.5 -36s-14 -27.833 -14 -44.5c0 -11.333 3.5 -21 10.5 -29s18.167 -12 33.5 -12c11.333 0 22.833 1.5 34.5 4.5s24.834 9.16699 39.501 18.5l18 -26
c-21.333 -23.333 -43.166 -41.666 -65.499 -54.999s-47.833 -20 -76.5 -20c-26 0 -48.333 7.33301 -67 22s-28 35.334 -28 62.001c0 28 8.5 52.167 25.5 72.5s38.5 38.166 64.5 53.499c-20 5.33301 -36.667 15.5 -50 30.5s-23.333 33.5 -30 55.5
c-8 -10.667 -17.167 -21.334 -27.5 -32.001s-22 -20.167 -35 -28.5s-27.5 -15 -43.5 -20s-34 -7.5 -54 -7.5c-43.333 0 -77.5 12.667 -102.5 38s-37.5 59.333 -37.5 102c0 22 3.83301 41 11.5 57s17.834 29.5 30.501 40.5s27.167 20.333 43.5 28s33.166 14.5 50.499 20.5
l161 56v59c0 37.333 -4.83301 64 -14.5 80s-26.5 24 -50.5 24c-19.333 0 -33.666 -6 -42.999 -18s-14 -27.667 -14 -47c0 -11.333 0.5 -22.166 1.5 -32.499s3.16699 -21.166 6.5 -32.499l-111 -17c-13.333 5.33301 -23 14 -29 26s-9 25.667 -9 41
c0 23.333 5.33301 43.666 16 60.999s25.5 31.666 44.5 42.999s41.667 19.833 68 25.5s55.166 8.5 86.499 8.5c34.667 0 65.334 -3.33301 92.001 -10s49.167 -18 67.5 -34s32.166 -37.333 41.499 -64s14 -60 14 -100zM266.999 94.002c12.667 0 23.501 1.49805 32.501 4.49805
s18.5 7.83301 28.5 14.5v168l-76 -30c-34 -13.333 -51 -38.666 -51 -75.999c0 -25.333 5.66699 -45.166 17 -59.499s27.666 -21.5 48.999 -21.5z" />
    <glyph glyph-name="Cacute" unicode="&#x106;" horiz-adv-x="699" 
d="M412 63c43.333 0 77.001 14.833 101.001 44.5s45 74.5 63 134.5h85l-18 -188c-30.667 -20 -66.5 -35.667 -107.5 -47s-87.833 -17 -140.5 -17c-56.667 0 -107.334 8.66699 -152.001 26s-82.334 41.333 -113.001 72s-54 67.167 -70 109.5s-24 88.833 -24 139.5
c0 58 9.5 110 28.5 156s45 85.333 78 118s71.5 57.667 115.5 75s91.333 26 142 26c50 0 95.333 -6.5 136 -19.5s73.667 -30.5 99 -52.5v-161h-84c-12.667 51.333 -30.667 91.5 -54 120.5s-56.666 43.5 -99.999 43.5c-31.333 0 -57.833 -7.66699 -79.5 -23
s-39.167 -35.833 -52.5 -61.5s-22.833 -55.167 -28.5 -88.5s-8.5 -68 -8.5 -104c0 -44.667 3.83301 -85.5 11.5 -122.5s19.167 -68.833 34.5 -95.5s34.5 -47.5 57.5 -62.5s49.833 -22.5 80.5 -22.5zM583.001 909l-156 -156h-89l73 156h172z" />
    <glyph glyph-name="cacute" unicode="&#x107;" horiz-adv-x="535" 
d="M489 765l-154 -162h-85l69 162h170zM187 323c0 -30.667 3.16992 -58.499 9.50293 -83.499s16 -46.5 29 -64.5s29 -32 48 -42s41.167 -15 66.5 -15c29.333 0 55.666 6.66699 78.999 20s43.666 31.666 60.999 54.999l31 -21c-17.333 -63.333 -45.666 -109.5 -84.999 -138.5
s-88 -43.5 -146 -43.5c-36 0 -69 6.16699 -99 18.5s-55.833 30 -77.5 53s-38.667 50.667 -51 83s-18.5 68.5 -18.5 108.5c0 42.667 6.66699 82.5 20 119.5s32.166 69.167 56.499 96.5s53.666 48.666 87.999 63.999s72.833 23 115.5 23c26 0 50.5 -3 73.5 -9
s43.167 -15 60.5 -27s31 -26.833 41 -44.5s15 -37.834 15 -60.501c0 -20 -4 -36.167 -12 -48.5s-18 -21.166 -30 -26.499h-88v49c0 29.333 -5.16699 53.333 -15.5 72s-29.5 28 -57.5 28c-15.333 0 -30 -3.66699 -44 -11s-26.167 -18.166 -36.5 -32.499
s-18.5 -31.833 -24.5 -52.5s-9 -44 -9 -70z" />
    <glyph glyph-name="Ccircumflex" unicode="&#x108;" horiz-adv-x="699" 
d="M412 63c43.333 0 77.001 14.833 101.001 44.5s45 74.5 63 134.5h85l-18 -188c-30.667 -20 -66.5 -35.667 -107.5 -47s-87.833 -17 -140.5 -17c-56.667 0 -107.334 8.66699 -152.001 26s-82.334 41.333 -113.001 72s-54 67.167 -70 109.5s-24 88.833 -24 139.5
c0 58 9.5 110 28.5 156s45 85.333 78 118s71.5 57.667 115.5 75s91.333 26 142 26c50 0 95.333 -6.5 136 -19.5s73.667 -30.5 99 -52.5v-161h-84c-12.667 51.333 -30.667 91.5 -54 120.5s-56.666 43.5 -99.999 43.5c-31.333 0 -57.833 -7.66699 -79.5 -23
s-39.167 -35.833 -52.5 -61.5s-22.833 -55.167 -28.5 -88.5s-8.5 -68 -8.5 -104c0 -44.667 3.83301 -85.5 11.5 -122.5s19.167 -68.833 34.5 -95.5s34.5 -47.5 57.5 -62.5s49.833 -22.5 80.5 -22.5zM596.001 751h-86l-116 82l-116 -82h-86l141 167h122z" />
    <glyph glyph-name="ccircumflex" unicode="&#x109;" horiz-adv-x="535" 
d="M498 596h-86l-114 85l-114 -85h-86l139 170h122zM187 323c0 -30.667 3.16992 -58.499 9.50293 -83.499s16 -46.5 29 -64.5s29 -32 48 -42s41.167 -15 66.5 -15c29.333 0 55.666 6.66699 78.999 20s43.666 31.666 60.999 54.999l31 -21
c-17.333 -63.333 -45.666 -109.5 -84.999 -138.5s-88 -43.5 -146 -43.5c-36 0 -69 6.16699 -99 18.5s-55.833 30 -77.5 53s-38.667 50.667 -51 83s-18.5 68.5 -18.5 108.5c0 42.667 6.66699 82.5 20 119.5s32.166 69.167 56.499 96.5s53.666 48.666 87.999 63.999
s72.833 23 115.5 23c26 0 50.5 -3 73.5 -9s43.167 -15 60.5 -27s31 -26.833 41 -44.5s15 -37.834 15 -60.501c0 -20 -4 -36.167 -12 -48.5s-18 -21.166 -30 -26.499h-88v49c0 29.333 -5.16699 53.333 -15.5 72s-29.5 28 -57.5 28c-15.333 0 -30 -3.66699 -44 -11
s-26.167 -18.166 -36.5 -32.499s-18.5 -31.833 -24.5 -52.5s-9 -44 -9 -70z" />
    <glyph glyph-name="Cdotaccent" unicode="&#x10a;" horiz-adv-x="699" 
d="M395 748c-29.333 0 -52.5 8.83301 -69.5 26.5s-25.5 38.5 -25.5 62.5s8.5 45 25.5 63s40.167 27 69.5 27s52.5 -9 69.5 -27s25.5 -39 25.5 -63s-8.5 -44.833 -25.5 -62.5s-40.167 -26.5 -69.5 -26.5zM412 63c43.333 0 77.001 14.833 101.001 44.5s45 74.5 63 134.5h85
l-18 -188c-30.667 -20 -66.5 -35.667 -107.5 -47s-87.833 -17 -140.5 -17c-56.667 0 -107.334 8.66699 -152.001 26s-82.334 41.333 -113.001 72s-54 67.167 -70 109.5s-24 88.833 -24 139.5c0 58 9.5 110 28.5 156s45 85.333 78 118s71.5 57.667 115.5 75s91.333 26 142 26
c50 0 95.333 -6.5 136 -19.5s73.667 -30.5 99 -52.5v-161h-84c-12.667 51.333 -30.667 91.5 -54 120.5s-56.666 43.5 -99.999 43.5c-31.333 0 -57.833 -7.66699 -79.5 -23s-39.167 -35.833 -52.5 -61.5s-22.833 -55.167 -28.5 -88.5s-8.5 -68 -8.5 -104
c0 -44.667 3.83301 -85.5 11.5 -122.5s19.167 -68.833 34.5 -95.5s34.5 -47.5 57.5 -62.5s49.833 -22.5 80.5 -22.5z" />
    <glyph glyph-name="cdotaccent" unicode="&#x10b;" horiz-adv-x="535" 
d="M187 323c0 -30.667 3.16992 -58.499 9.50293 -83.499s16 -46.5 29 -64.5s29 -32 48 -42s41.167 -15 66.5 -15c29.333 0 55.666 6.66699 78.999 20s43.666 31.666 60.999 54.999l31 -21c-17.333 -63.333 -45.666 -109.5 -84.999 -138.5s-88 -43.5 -146 -43.5
c-36 0 -69 6.16699 -99 18.5s-55.833 30 -77.5 53s-38.667 50.667 -51 83s-18.5 68.5 -18.5 108.5c0 42.667 6.66699 82.5 20 119.5s32.166 69.167 56.499 96.5s53.666 48.666 87.999 63.999s72.833 23 115.5 23c26 0 50.5 -3 73.5 -9s43.167 -15 60.5 -27
s31 -26.833 41 -44.5s15 -37.834 15 -60.501c0 -20 -4 -36.167 -12 -48.5s-18 -21.166 -30 -26.499h-88v49c0 29.333 -5.16699 53.333 -15.5 72s-29.5 28 -57.5 28c-15.333 0 -30 -3.66699 -44 -11s-26.167 -18.166 -36.5 -32.499s-18.5 -31.833 -24.5 -52.5s-9 -44 -9 -70z
M299.003 601.001c-30 0 -53.5 8.83301 -70.5 26.5s-25.5 38.5 -25.5 62.5s8.5 44.833 25.5 62.5s40.5 26.5 70.5 26.5c29.333 0 52.333 -8.83301 69 -26.5s25 -38.5 25 -62.5s-8.33301 -44.833 -25 -62.5s-39.667 -26.5 -69 -26.5z" />
    <glyph glyph-name="Ccaron" unicode="&#x10c;" horiz-adv-x="699" 
d="M412 63c43.333 0 77.001 14.833 101.001 44.5s45 74.5 63 134.5h85l-18 -188c-30.667 -20 -66.5 -35.667 -107.5 -47s-87.833 -17 -140.5 -17c-56.667 0 -107.334 8.66699 -152.001 26s-82.334 41.333 -113.001 72s-54 67.167 -70 109.5s-24 88.833 -24 139.5
c0 58 9.5 110 28.5 156s45 85.333 78 118s71.5 57.667 115.5 75s91.333 26 142 26c50 0 95.333 -6.5 136 -19.5s73.667 -30.5 99 -52.5v-161h-84c-12.667 51.333 -30.667 91.5 -54 120.5s-56.666 43.5 -99.999 43.5c-31.333 0 -57.833 -7.66699 -79.5 -23
s-39.167 -35.833 -52.5 -61.5s-22.833 -55.167 -28.5 -88.5s-8.5 -68 -8.5 -104c0 -44.667 3.83301 -85.5 11.5 -122.5s19.167 -68.833 34.5 -95.5s34.5 -47.5 57.5 -62.5s49.833 -22.5 80.5 -22.5zM455.001 754h-122l-141 167h86l116 -82l116 82h86z" />
    <glyph glyph-name="ccaron" unicode="&#x10d;" horiz-adv-x="535" 
d="M359 604h-122l-139 170h86l114 -85l114 85h86zM187 323c0 -30.667 3.16992 -58.499 9.50293 -83.499s16 -46.5 29 -64.5s29 -32 48 -42s41.167 -15 66.5 -15c29.333 0 55.666 6.66699 78.999 20s43.666 31.666 60.999 54.999l31 -21
c-17.333 -63.333 -45.666 -109.5 -84.999 -138.5s-88 -43.5 -146 -43.5c-36 0 -69 6.16699 -99 18.5s-55.833 30 -77.5 53s-38.667 50.667 -51 83s-18.5 68.5 -18.5 108.5c0 42.667 6.66699 82.5 20 119.5s32.166 69.167 56.499 96.5s53.666 48.666 87.999 63.999
s72.833 23 115.5 23c26 0 50.5 -3 73.5 -9s43.167 -15 60.5 -27s31 -26.833 41 -44.5s15 -37.834 15 -60.501c0 -20 -4 -36.167 -12 -48.5s-18 -21.166 -30 -26.499h-88v49c0 29.333 -5.16699 53.333 -15.5 72s-29.5 28 -57.5 28c-15.333 0 -30 -3.66699 -44 -11
s-26.167 -18.166 -36.5 -32.499s-18.5 -31.833 -24.5 -52.5s-9 -44 -9 -70z" />
    <glyph glyph-name="Dcaron" unicode="&#x10e;" horiz-adv-x="793" 
d="M452 754h-122l-141 167h86l116 -82l116 82h86zM293 635l-0.000976562 -498c0 -29.333 5.83301 -48.333 17.5 -57s30.834 -13 57.501 -13h11c60 0 106.333 23.167 139 69.5s49 117.833 49 214.5c0 42 -5 80.333 -15 115s-25 64.5 -45 89.5s-44.833 44.5 -74.5 58.5
s-64.5 21 -104.5 21h-35zM31.999 702l321.005 -0.000976562c65.333 0 123.166 -7.83301 173.499 -23.5s92.666 -38.167 126.999 -67.5s60.333 -64.833 78 -106.5s26.5 -88.5 26.5 -140.5c0 -57.333 -8.83301 -108.666 -26.5 -153.999s-42.834 -83.5 -75.501 -114.5
s-71.834 -54.667 -117.501 -71s-96.834 -24.5 -153.501 -24.5h-353v63c16.667 0.666992 30.334 2 41.001 4s19.167 5.5 25.5 10.5s10.666 11.833 12.999 20.5s3.5 20 3.5 34v438c0 14 -1.16699 25.167 -3.5 33.5s-6.66602 15 -12.999 20s-14.833 8.66699 -25.5 11
s-24.334 3.83301 -41.001 4.5v63z" />
    <glyph glyph-name="dcaron" unicode="&#x10f;" horiz-adv-x="680" 
d="M710 560h-68l15 205h144zM407 86c-16.667 -28.667 -38.002 -51.8369 -64.002 -69.5039s-60 -26.5 -102 -26.5c-30.667 0 -58.667 5.83301 -84 17.5s-47.166 28.5 -65.499 50.5s-32.5 48.667 -42.5 80s-15 67 -15 107c0 48.667 7 91.834 21 129.501s33.333 69.5 58 95.5
s53.834 45.833 87.501 59.5s70.167 20.5 109.5 20.5c21.333 0 40.5 -2.66699 57.5 -8s30.167 -12.666 39.5 -21.999v112l-59 54v34l197 41h31v-623c0 -17.333 2.66699 -30.166 8 -38.499s16.333 -13.166 33 -14.499h25v-62l-202 -33h-33v96zM324.998 487.997
c-19.333 0 -36.333 -4.66602 -51 -13.999s-27 -22.5 -37 -39.5s-17.667 -37.333 -23 -61s-8 -49.834 -8 -78.501c0 -60 11.333 -108.167 34 -144.5s54.667 -54.5 96 -54.5c13.333 0 26 1.83301 38 5.5s23 8.5 33 14.5v265c0 36 -6.33301 62.833 -19 80.5
s-33.667 26.5 -63 26.5z" />
    <glyph glyph-name="Dcroat" unicode="&#x110;" horiz-adv-x="801" 
d="M39 395l84.0049 -0.000976562v175c0 14 -1.16699 25.167 -3.5 33.5s-6.66602 15 -12.999 20s-14.833 8.66699 -25.5 11s-24.334 3.83301 -41.001 4.5v63h321c65.333 0 123.166 -7.83301 173.499 -23.5s92.666 -38.167 126.999 -67.5s60.333 -64.833 78 -106.5
s26.5 -88.5 26.5 -140.5c0 -57.333 -8.83301 -108.666 -26.5 -153.999s-42.834 -83.5 -75.501 -114.5s-71.834 -54.667 -117.501 -71s-96.834 -24.5 -153.501 -24.5h-353v63c16.667 0.666992 30.334 2 41.001 4s19.167 5.5 25.5 10.5s10.666 11.833 12.999 20.5
s3.5 20 3.5 34v197h-84v66zM301.005 634.999l-0.000976562 -240h131v-66h-131v-192c0 -29.333 5.83301 -48.333 17.5 -57s30.834 -13 57.501 -13h11c60 0 106.333 23.167 139 69.5s49 117.833 49 214.5c0 42 -5 80.333 -15 115s-25 64.5 -45 89.5s-44.833 44.5 -74.5 58.5
s-64.5 21 -104.5 21h-35z" />
    <glyph glyph-name="dcroat" unicode="&#x111;" horiz-adv-x="670" 
d="M576 578v-440.002c0 -17.333 2.66699 -30.166 8 -38.499s16.333 -13.166 33 -14.499h25v-62l-202 -33h-33v96c-16.667 -28.667 -38 -51.834 -64 -69.501s-60 -26.5 -102 -26.5c-30.667 0 -58.667 5.83301 -84 17.5s-47.166 28.5 -65.499 50.5s-32.5 48.667 -42.5 80
s-15 67 -15 107c0 48.667 7.33301 91 22 127s34.167 65.833 58.5 89.5s52.166 41.334 83.499 53.001s64 17.5 98 17.5c25.333 0 48 -3.66699 68 -11s34.333 -16.333 43 -27v84h-123v49h123v56h-59v43l197 35h31v-134h66v-49h-66zM325 469.998
c-38 0 -67.333 -14.833 -88 -44.5s-31 -73.167 -31 -130.5c0 -60 11.333 -108.167 34 -144.5s54.667 -54.5 96 -54.5c13.333 0 26 1.83301 38 5.5s23 8.5 33 14.5v247c0 36 -6.33301 62.833 -19 80.5s-33.667 26.5 -63 26.5z" />
    <glyph glyph-name="Emacron" unicode="&#x112;" horiz-adv-x="678" 
d="M195 860h310v-97h-310v97zM458 247c-5.33301 30 -13.167 50.834 -23.5 62.501s-26.5 17.5 -48.5 17.5h-93v-195c0 -27.333 6.83301 -45.333 20.5 -54s34.834 -13 63.501 -13h40c18.667 0 34.834 2.33301 48.501 7s26.667 12.5 39 23.5s24.666 25.167 36.999 42.5
s26.5 38.666 42.5 63.999h66l-31 -202h-587v63c16.667 0.666992 30.334 2 41.001 4s19.167 5.5 25.5 10.5s10.666 11.833 12.999 20.5s3.5 20 3.5 34v438c0 14 -1.16699 25.167 -3.5 33.5s-6.66602 15 -12.999 20s-14.833 8.66699 -25.5 11s-24.334 3.83301 -41.001 4.5v63
h582v-187h-68c-8 20.667 -15.833 38.667 -23.5 54s-16.667 28 -27 38s-22.333 17.5 -36 22.5s-30.5 7.5 -50.5 7.5h-116v-242h93c22 0 38.167 5.83301 48.5 17.5s18.166 32.5 23.499 62.5h60v-228h-60z" />
    <glyph glyph-name="emacron" unicode="&#x113;" horiz-adv-x="553" 
d="M301 556c35.333 0 66.501 -5.99707 93.501 -17.9971s49.5 -28.333 67.5 -49s31.667 -44.834 41 -72.501s14 -57.167 14 -88.5v-37h-333c0 -52.667 14.667 -94.334 44 -125.001s67.333 -46 114 -46c33.333 0 61.833 6.16699 85.5 18.5s44.167 29.833 61.5 52.5l30 -19
c-13.333 -54.667 -39.5 -98.667 -78.5 -132s-89.833 -50 -152.5 -50c-37.333 0 -71.5 6.33301 -102.5 19s-57.667 30.5 -80 53.5s-39.833 50.833 -52.5 83.5s-19 69 -19 109c0 45.333 7 86.5 21 123.5s33 68.667 57 95s52.167 46.666 84.5 60.999s67.166 21.5 104.499 21.5z
M284.001 491.003c-15.333 0 -28.666 -3.83398 -39.999 -11.501s-21 -18 -29 -31s-14.333 -28.167 -19 -45.5s-8 -35.666 -10 -54.999h184c-0.666992 42.667 -7.83398 77.167 -21.501 103.5s-35.167 39.5 -64.5 39.5zM144.001 718.002h298v-93h-298v93z" />
    <glyph glyph-name="Ebreve" unicode="&#x114;" horiz-adv-x="678" 
d="M350 748c-50 0 -88.833 14.833 -116.5 44.5s-41.5 70.834 -41.5 123.501h64c2 -16 6.16699 -29.167 12.5 -39.5s13.833 -18.5 22.5 -24.5s18.167 -10.333 28.5 -13s20.5 -4 30.5 -4s20.167 1.33301 30.5 4s19.833 7 28.5 13s16.167 14.167 22.5 24.5s10.5 23.5 12.5 39.5
h64c0 -52.667 -13.833 -93.834 -41.5 -123.501s-66.5 -44.5 -116.5 -44.5zM458 247c-5.33301 30 -13.167 50.834 -23.5 62.501s-26.5 17.5 -48.5 17.5h-93v-195c0 -27.333 6.83301 -45.333 20.5 -54s34.834 -13 63.501 -13h40c18.667 0 34.834 2.33301 48.501 7
s26.667 12.5 39 23.5s24.666 25.167 36.999 42.5s26.5 38.666 42.5 63.999h66l-31 -202h-587v63c16.667 0.666992 30.334 2 41.001 4s19.167 5.5 25.5 10.5s10.666 11.833 12.999 20.5s3.5 20 3.5 34v438c0 14 -1.16699 25.167 -3.5 33.5s-6.66602 15 -12.999 20
s-14.833 8.66699 -25.5 11s-24.334 3.83301 -41.001 4.5v63h582v-187h-68c-8 20.667 -15.833 38.667 -23.5 54s-16.667 28 -27 38s-22.333 17.5 -36 22.5s-30.5 7.5 -50.5 7.5h-116v-242h93c22 0 38.167 5.83301 48.5 17.5s18.166 32.5 23.499 62.5h60v-228h-60z" />
    <glyph glyph-name="ebreve" unicode="&#x115;" horiz-adv-x="553" 
d="M301 556c35.333 0 66.501 -5.99707 93.501 -17.9971s49.5 -28.333 67.5 -49s31.667 -44.834 41 -72.501s14 -57.167 14 -88.5v-37h-333c0 -52.667 14.667 -94.334 44 -125.001s67.333 -46 114 -46c33.333 0 61.833 6.16699 85.5 18.5s44.167 29.833 61.5 52.5l30 -19
c-13.333 -54.667 -39.5 -98.667 -78.5 -132s-89.833 -50 -152.5 -50c-37.333 0 -71.5 6.33301 -102.5 19s-57.667 30.5 -80 53.5s-39.833 50.833 -52.5 83.5s-19 69 -19 109c0 45.333 7 86.5 21 123.5s33 68.667 57 95s52.167 46.666 84.5 60.999s67.166 21.5 104.499 21.5z
M284.001 491.003c-15.333 0 -28.666 -3.83398 -39.999 -11.501s-21 -18 -29 -31s-14.333 -28.167 -19 -45.5s-8 -35.666 -10 -54.999h184c-0.666992 42.667 -7.83398 77.167 -21.501 103.5s-35.167 39.5 -64.5 39.5zM293.001 601.002
c-49.333 0 -87.499 14.833 -114.499 44.5s-40.5 71.5 -40.5 125.5h64c2 -16 6 -29.333 12 -40s13.167 -19.167 21.5 -25.5s17.5 -10.833 27.5 -13.5s20 -4 30 -4s20.167 1.33301 30.5 4s19.666 7.16699 27.999 13.5s15.5 14.833 21.5 25.5s10 24 12 40h64
c0 -54 -13.5 -95.833 -40.5 -125.5s-65.5 -44.5 -115.5 -44.5z" />
    <glyph glyph-name="Edotaccent" unicode="&#x116;" horiz-adv-x="678" 
d="M351 748c-29.333 0 -52.5 8.83301 -69.5 26.5s-25.5 38.5 -25.5 62.5s8.5 45 25.5 63s40.167 27 69.5 27s52.5 -9 69.5 -27s25.5 -39 25.5 -63s-8.5 -44.833 -25.5 -62.5s-40.167 -26.5 -69.5 -26.5zM458 247c-5.33301 30 -13.167 50.834 -23.5 62.501
s-26.5 17.5 -48.5 17.5h-93v-195c0 -27.333 6.83301 -45.333 20.5 -54s34.834 -13 63.501 -13h40c18.667 0 34.834 2.33301 48.501 7s26.667 12.5 39 23.5s24.666 25.167 36.999 42.5s26.5 38.666 42.5 63.999h66l-31 -202h-587v63c16.667 0.666992 30.334 2 41.001 4
s19.167 5.5 25.5 10.5s10.666 11.833 12.999 20.5s3.5 20 3.5 34v438c0 14 -1.16699 25.167 -3.5 33.5s-6.66602 15 -12.999 20s-14.833 8.66699 -25.5 11s-24.334 3.83301 -41.001 4.5v63h582v-187h-68c-8 20.667 -15.833 38.667 -23.5 54s-16.667 28 -27 38
s-22.333 17.5 -36 22.5s-30.5 7.5 -50.5 7.5h-116v-242h93c22 0 38.167 5.83301 48.5 17.5s18.166 32.5 23.499 62.5h60v-228h-60z" />
    <glyph glyph-name="edotaccent" unicode="&#x117;" horiz-adv-x="553" 
d="M301 556c35.333 0 66.501 -5.99707 93.501 -17.9971s49.5 -28.333 67.5 -49s31.667 -44.834 41 -72.501s14 -57.167 14 -88.5v-37h-333c0 -52.667 14.667 -94.334 44 -125.001s67.333 -46 114 -46c33.333 0 61.833 6.16699 85.5 18.5s44.167 29.833 61.5 52.5l30 -19
c-13.333 -54.667 -39.5 -98.667 -78.5 -132s-89.833 -50 -152.5 -50c-37.333 0 -71.5 6.33301 -102.5 19s-57.667 30.5 -80 53.5s-39.833 50.833 -52.5 83.5s-19 69 -19 109c0 45.333 7 86.5 21 123.5s33 68.667 57 95s52.167 46.666 84.5 60.999s67.166 21.5 104.499 21.5z
M284.001 491.003c-15.333 0 -28.666 -3.83398 -39.999 -11.501s-21 -18 -29 -31s-14.333 -28.167 -19 -45.5s-8 -35.666 -10 -54.999h184c-0.666992 42.667 -7.83398 77.167 -21.501 103.5s-35.167 39.5 -64.5 39.5zM293.001 601.002c-30 0 -53.5 8.83301 -70.5 26.5
s-25.5 38.5 -25.5 62.5s8.5 44.833 25.5 62.5s40.5 26.5 70.5 26.5c29.333 0 52.333 -8.83301 69 -26.5s25 -38.5 25 -62.5s-8.33301 -44.833 -25 -62.5s-39.667 -26.5 -69 -26.5z" />
    <glyph glyph-name="Eogonek" unicode="&#x118;" horiz-adv-x="678" 
d="M458 247c-5.33301 30 -13.166 50.833 -23.499 62.5s-26.5 17.5 -48.5 17.5h-93v-195c0 -27.333 6.83301 -45.333 20.5 -54s34.834 -13 63.501 -13h40c18.667 0 34.834 2.33301 48.501 7s26.667 12.5 39 23.5s24.666 25.167 36.999 42.5s26.5 38.666 42.5 63.999h66
l-31 -202h-80c-23.333 -13.333 -41.166 -28.166 -53.499 -44.499s-18.5 -33.5 -18.5 -51.5c0 -11.333 3.5 -21 10.5 -29s18.5 -12 34.5 -12c11.333 0 22.666 1.5 33.999 4.5s24.666 9.16699 39.999 18.5l18 -26c-21.333 -23.333 -43.333 -41.666 -66 -54.999
s-48 -20 -76 -20c-26 0 -48.333 7.33301 -67 22s-28 35.334 -28 62.001c0 29.333 9.5 54.666 28.5 75.999s42.5 39.666 70.5 54.999h-434v63c16.667 0.666992 30.334 2 41.001 4s19.167 5.5 25.5 10.5s10.666 11.833 12.999 20.5s3.5 20 3.5 34v438
c0 14 -1.16699 25.167 -3.5 33.5s-6.66602 15 -12.999 20s-14.833 8.66699 -25.5 11s-24.334 3.83301 -41.001 4.5v63h582v-187h-68c-8 20.667 -15.833 38.667 -23.5 54s-16.667 28 -27 38s-22.333 17.5 -36 22.5s-30.5 7.5 -50.5 7.5h-116v-242h93
c22 0 38.167 5.83301 48.5 17.5s18.166 32.5 23.499 62.5h60v-228h-60z" />
    <glyph glyph-name="eogonek" unicode="&#x119;" horiz-adv-x="553" 
d="M301 556c35.333 0 66.5039 -6 93.5039 -18s49.5 -28.333 67.5 -49s31.667 -44.834 41 -72.501s14 -57.167 14 -88.5v-37h-333c0 -52.667 14.667 -94.334 44 -125.001s67.333 -46 114 -46c33.333 0 61.833 6.16699 85.5 18.5s44.167 29.833 61.5 52.5l30 -19
c-9.33301 -38 -25 -71.167 -47 -99.5s-50 -49.5 -84 -63.5c-26 -14.667 -46.333 -31 -61 -49s-22 -36.667 -22 -56c0 -11.333 3.5 -21 10.5 -29s18.167 -12 33.5 -12c11.333 0 22.833 1.5 34.5 4.5s25.167 9.16699 40.5 18.5l17 -26
c-20.667 -23.333 -42.334 -41.666 -65.001 -54.999s-48.334 -20 -77.001 -20c-25.333 0 -47.333 7.33301 -66 22s-28 35.334 -28 62.001c0 25.333 7.33301 48 22 68s33.667 37.667 57 53c-36.667 0.666992 -70.334 7.33398 -101.001 20.001s-57 30.5 -79 53.5
s-39.167 50.667 -51.5 83s-18.5 68.5 -18.5 108.5c0 45.333 7 86.5 21 123.5s33 68.667 57 95s52.167 46.666 84.5 60.999s67.166 21.5 104.499 21.5zM284.004 491c-15.333 0 -28.666 -3.83398 -39.999 -11.501s-21 -18 -29 -31s-14.333 -28.167 -19 -45.5
s-8 -35.666 -10 -54.999h184c-0.666992 42.667 -7.83398 77.167 -21.501 103.5s-35.167 39.5 -64.5 39.5z" />
    <glyph glyph-name="Ecaron" unicode="&#x11a;" horiz-adv-x="678" 
d="M411 754h-122l-141 167h86l116 -82l116 82h86zM458 247c-5.33301 30 -13.167 50.834 -23.5 62.501s-26.5 17.5 -48.5 17.5h-93v-195c0 -27.333 6.83301 -45.333 20.5 -54s34.834 -13 63.501 -13h40c18.667 0 34.834 2.33301 48.501 7s26.667 12.5 39 23.5
s24.666 25.167 36.999 42.5s26.5 38.666 42.5 63.999h66l-31 -202h-587v63c16.667 0.666992 30.334 2 41.001 4s19.167 5.5 25.5 10.5s10.666 11.833 12.999 20.5s3.5 20 3.5 34v438c0 14 -1.16699 25.167 -3.5 33.5s-6.66602 15 -12.999 20s-14.833 8.66699 -25.5 11
s-24.334 3.83301 -41.001 4.5v63h582v-187h-68c-8 20.667 -15.833 38.667 -23.5 54s-16.667 28 -27 38s-22.333 17.5 -36 22.5s-30.5 7.5 -50.5 7.5h-116v-242h93c22 0 38.167 5.83301 48.5 17.5s18.166 32.5 23.499 62.5h60v-228h-60z" />
    <glyph glyph-name="ecaron" unicode="&#x11b;" horiz-adv-x="553" 
d="M354 604h-122l-139 170h86l114 -85l114 85h86zM301 556c35.333 0 66.501 -5.99707 93.501 -17.9971s49.5 -28.333 67.5 -49s31.667 -44.834 41 -72.501s14 -57.167 14 -88.5v-37h-333c0 -52.667 14.667 -94.334 44 -125.001s67.333 -46 114 -46
c33.333 0 61.833 6.16699 85.5 18.5s44.167 29.833 61.5 52.5l30 -19c-13.333 -54.667 -39.5 -98.667 -78.5 -132s-89.833 -50 -152.5 -50c-37.333 0 -71.5 6.33301 -102.5 19s-57.667 30.5 -80 53.5s-39.833 50.833 -52.5 83.5s-19 69 -19 109c0 45.333 7 86.5 21 123.5
s33 68.667 57 95s52.167 46.666 84.5 60.999s67.166 21.5 104.499 21.5zM284.001 491.003c-15.333 0 -28.666 -3.83398 -39.999 -11.501s-21 -18 -29 -31s-14.333 -28.167 -19 -45.5s-8 -35.666 -10 -54.999h184c-0.666992 42.667 -7.83398 77.167 -21.501 103.5
s-35.167 39.5 -64.5 39.5z" />
    <glyph glyph-name="Gcircumflex" unicode="&#x11c;" horiz-adv-x="760" 
d="M36 337c0 58 9.83008 109.999 29.4971 155.999s46.334 85.333 80.001 118s72.667 57.667 117 75s91.5 26 141.5 26s95.333 -6.5 136 -19.5s74 -30.5 100 -52.5v-161h-84c-13.333 52 -32 92.333 -56 121s-57 43 -99 43c-31.333 0 -58 -7.66699 -80 -23
s-40 -35.833 -54 -61.5s-24.333 -55.167 -31 -88.5s-10 -68 -10 -104c0 -44 3.5 -84.5 10.5 -121.5s18 -69 33 -96s34.5 -48 58.5 -63s53.333 -22.5 88 -22.5c17.333 0 31.333 1.16699 42 3.5s22.334 6.83301 35.001 13.5v131c0 13.333 -1.16699 24.166 -3.5 32.499
s-6.66602 15 -12.999 20s-14.666 8.5 -24.999 10.5s-23.5 3.33301 -39.5 4v64h324v-64c-16.667 -0.666992 -30.167 -2 -40.5 -4s-18.5 -5.5 -24.5 -10.5s-10 -11.667 -12 -20s-3 -19.166 -3 -32.499v-148c-32 -23.333 -70.833 -41.166 -116.5 -53.499
s-94.834 -18.5 -147.501 -18.5c-58 0 -109.167 8.66699 -153.5 26s-81.5 41.333 -111.5 72s-52.667 67.167 -68 109.5s-23 88.5 -23 138.5zM601.997 750.999h-86l-116 82l-116 -82h-86l141 167h122z" />
    <glyph glyph-name="gcircumflex" unicode="&#x11d;" horiz-adv-x="586" 
d="M501 596h-86l-114 85l-114 -85h-86l139 170h122zM280 195c-17.333 0 -35 1.16797 -53 3.50098s-35.333 6.16602 -52 11.499c-10 -11.333 -17.333 -20.666 -22 -27.999s-7 -15.333 -7 -24c0 -15.333 9 -23 27 -23h238c56.667 0 99 -12.667 127 -38s42 -60.333 42 -105
c0 -31.333 -7.33301 -59.333 -22 -84s-35.5 -45.5 -62.5 -62.5s-59.167 -30 -96.5 -39s-79 -13.5 -125 -13.5c-79.333 0 -141.5 9.66699 -186.5 29s-67.5 49 -67.5 89c0 12.667 2.83301 23.834 8.5 33.501s12.834 18 21.501 25s18.334 12.833 29.001 17.5
s21 8.33398 31 11.001c-20.667 7.33301 -37.5 19 -50.5 35s-19.5 37 -19.5 63s8.83301 48.833 26.5 68.5s43.5 39.167 77.5 58.5c-28 13.333 -50.833 31.666 -68.5 54.999s-26.5 53 -26.5 89c0 29.333 6 55.666 18 78.999s28.5 43.166 49.5 59.499s46.167 28.833 75.5 37.5
s61 13 95 13c20 0 38.167 -1.33301 54.5 -4s31.166 -6 44.499 -10l184 8v-87h-42l-83 18v-6c21.333 -10.667 38.166 -24.5 50.499 -41.5s18.5 -38.167 18.5 -63.5c0 -27.333 -5.83301 -51.833 -17.5 -73.5s-28 -40 -49 -55s-45.667 -26.5 -74 -34.5s-59.5 -12 -93.5 -12z
M136 -23.999c-7.33301 -8 -11 -20.332 -11 -36.999c0 -30 14 -52.167 42 -66.5s65.667 -21.5 113 -21.5c23.333 0 45.333 1.5 66 4.5s38.667 7.66699 54 14s27.333 14.833 36 25.5s13 23.667 13 39s-5.33301 26.166 -16 32.499s-24.667 9.5 -42 9.5h-255zM287 249.002
c23.333 0 39.834 10.001 49.501 30.001s14.5 47.333 14.5 82c0 20 -1.66699 38.5 -5 55.5s-8.16602 31.667 -14.499 44s-14.333 22.166 -24 29.499s-20.834 11 -33.501 11c-23.333 0 -39.833 -10.167 -49.5 -30.5s-14.5 -47.5 -14.5 -81.5c0 -19.333 1.5 -37.5 4.5 -54.5
s7.83301 -31.833 14.5 -44.5s14.667 -22.667 24 -30s20.666 -11 33.999 -11z" />
    <glyph glyph-name="Gbreve" unicode="&#x11e;" horiz-adv-x="760" 
d="M398 748c-50 0 -88.833 14.833 -116.5 44.5s-41.5 70.834 -41.5 123.501h64c2 -16 6.16699 -29.167 12.5 -39.5s13.833 -18.5 22.5 -24.5s18.167 -10.333 28.5 -13s20.5 -4 30.5 -4s20.167 1.33301 30.5 4s19.833 7 28.5 13s16.167 14.167 22.5 24.5s10.5 23.5 12.5 39.5
h64c0 -52.667 -13.833 -93.834 -41.5 -123.501s-66.5 -44.5 -116.5 -44.5zM36 337c0 58 9.83008 109.999 29.4971 155.999s46.334 85.333 80.001 118s72.667 57.667 117 75s91.5 26 141.5 26s95.333 -6.5 136 -19.5s74 -30.5 100 -52.5v-161h-84
c-13.333 52 -32 92.333 -56 121s-57 43 -99 43c-31.333 0 -58 -7.66699 -80 -23s-40 -35.833 -54 -61.5s-24.333 -55.167 -31 -88.5s-10 -68 -10 -104c0 -44 3.5 -84.5 10.5 -121.5s18 -69 33 -96s34.5 -48 58.5 -63s53.333 -22.5 88 -22.5c17.333 0 31.333 1.16699 42 3.5
s22.334 6.83301 35.001 13.5v131c0 13.333 -1.16699 24.166 -3.5 32.499s-6.66602 15 -12.999 20s-14.666 8.5 -24.999 10.5s-23.5 3.33301 -39.5 4v64h324v-64c-16.667 -0.666992 -30.167 -2 -40.5 -4s-18.5 -5.5 -24.5 -10.5s-10 -11.667 -12 -20s-3 -19.166 -3 -32.499
v-148c-32 -23.333 -70.833 -41.166 -116.5 -53.499s-94.834 -18.5 -147.501 -18.5c-58 0 -109.167 8.66699 -153.5 26s-81.5 41.333 -111.5 72s-52.667 67.167 -68 109.5s-23 88.5 -23 138.5z" />
    <glyph glyph-name="gbreve" unicode="&#x11f;" horiz-adv-x="586" 
d="M280 195c-17.333 0 -35 1.16797 -53 3.50098s-35.333 6.16602 -52 11.499c-10 -11.333 -17.333 -20.666 -22 -27.999s-7 -15.333 -7 -24c0 -15.333 9 -23 27 -23h238c56.667 0 99 -12.667 127 -38s42 -60.333 42 -105c0 -31.333 -7.33301 -59.333 -22 -84
s-35.5 -45.5 -62.5 -62.5s-59.167 -30 -96.5 -39s-79 -13.5 -125 -13.5c-79.333 0 -141.5 9.66699 -186.5 29s-67.5 49 -67.5 89c0 12.667 2.83301 23.834 8.5 33.501s12.834 18 21.501 25s18.334 12.833 29.001 17.5s21 8.33398 31 11.001
c-20.667 7.33301 -37.5 19 -50.5 35s-19.5 37 -19.5 63s8.83301 48.833 26.5 68.5s43.5 39.167 77.5 58.5c-28 13.333 -50.833 31.666 -68.5 54.999s-26.5 53 -26.5 89c0 29.333 6 55.666 18 78.999s28.5 43.166 49.5 59.499s46.167 28.833 75.5 37.5s61 13 95 13
c20 0 38.167 -1.33301 54.5 -4s31.166 -6 44.499 -10l184 8v-87h-42l-83 18v-6c21.333 -10.667 38.166 -24.5 50.499 -41.5s18.5 -38.167 18.5 -63.5c0 -27.333 -5.83301 -51.833 -17.5 -73.5s-28 -40 -49 -55s-45.667 -26.5 -74 -34.5s-59.5 -12 -93.5 -12zM136 -23.999
c-7.33301 -8 -11 -20.332 -11 -36.999c0 -30 14 -52.167 42 -66.5s65.667 -21.5 113 -21.5c23.333 0 45.333 1.5 66 4.5s38.667 7.66699 54 14s27.333 14.833 36 25.5s13 23.667 13 39s-5.33301 26.166 -16 32.499s-24.667 9.5 -42 9.5h-255zM287 249.002
c23.333 0 39.834 10.001 49.501 30.001s14.5 47.333 14.5 82c0 20 -1.66699 38.5 -5 55.5s-8.16602 31.667 -14.499 44s-14.333 22.166 -24 29.499s-20.834 11 -33.501 11c-23.333 0 -39.833 -10.167 -49.5 -30.5s-14.5 -47.5 -14.5 -81.5c0 -19.333 1.5 -37.5 4.5 -54.5
s7.83301 -31.833 14.5 -44.5s14.667 -22.667 24 -30s20.666 -11 33.999 -11zM300.001 601.003c-49.333 0 -87.499 14.833 -114.499 44.5s-40.5 71.5 -40.5 125.5h64c2 -16 6 -29.333 12 -40s13.167 -19.167 21.5 -25.5s17.5 -10.833 27.5 -13.5s20 -4 30 -4
s20.167 1.33301 30.5 4s19.666 7.16699 27.999 13.5s15.5 14.833 21.5 25.5s10 24 12 40h64c0 -54 -13.5 -95.833 -40.5 -125.5s-65.5 -44.5 -115.5 -44.5z" />
    <glyph glyph-name="Gdotaccent" unicode="&#x120;" horiz-adv-x="760" 
d="M401 748c-29.333 0 -52.5 8.83301 -69.5 26.5s-25.5 38.5 -25.5 62.5s8.5 45 25.5 63s40.167 27 69.5 27s52.5 -9 69.5 -27s25.5 -39 25.5 -63s-8.5 -44.833 -25.5 -62.5s-40.167 -26.5 -69.5 -26.5zM36 337c0 58 9.83008 109.999 29.4971 155.999
s46.334 85.333 80.001 118s72.667 57.667 117 75s91.5 26 141.5 26s95.333 -6.5 136 -19.5s74 -30.5 100 -52.5v-161h-84c-13.333 52 -32 92.333 -56 121s-57 43 -99 43c-31.333 0 -58 -7.66699 -80 -23s-40 -35.833 -54 -61.5s-24.333 -55.167 -31 -88.5s-10 -68 -10 -104
c0 -44 3.5 -84.5 10.5 -121.5s18 -69 33 -96s34.5 -48 58.5 -63s53.333 -22.5 88 -22.5c17.333 0 31.333 1.16699 42 3.5s22.334 6.83301 35.001 13.5v131c0 13.333 -1.16699 24.166 -3.5 32.499s-6.66602 15 -12.999 20s-14.666 8.5 -24.999 10.5s-23.5 3.33301 -39.5 4v64
h324v-64c-16.667 -0.666992 -30.167 -2 -40.5 -4s-18.5 -5.5 -24.5 -10.5s-10 -11.667 -12 -20s-3 -19.166 -3 -32.499v-148c-32 -23.333 -70.833 -41.166 -116.5 -53.499s-94.834 -18.5 -147.501 -18.5c-58 0 -109.167 8.66699 -153.5 26s-81.5 41.333 -111.5 72
s-52.667 67.167 -68 109.5s-23 88.5 -23 138.5z" />
    <glyph glyph-name="gdotaccent" unicode="&#x121;" horiz-adv-x="586" 
d="M280 195c-17.333 0 -35 1.16797 -53 3.50098s-35.333 6.16602 -52 11.499c-10 -11.333 -17.333 -20.666 -22 -27.999s-7 -15.333 -7 -24c0 -15.333 9 -23 27 -23h238c56.667 0 99 -12.667 127 -38s42 -60.333 42 -105c0 -31.333 -7.33301 -59.333 -22 -84
s-35.5 -45.5 -62.5 -62.5s-59.167 -30 -96.5 -39s-79 -13.5 -125 -13.5c-79.333 0 -141.5 9.66699 -186.5 29s-67.5 49 -67.5 89c0 12.667 2.83301 23.834 8.5 33.501s12.834 18 21.501 25s18.334 12.833 29.001 17.5s21 8.33398 31 11.001
c-20.667 7.33301 -37.5 19 -50.5 35s-19.5 37 -19.5 63s8.83301 48.833 26.5 68.5s43.5 39.167 77.5 58.5c-28 13.333 -50.833 31.666 -68.5 54.999s-26.5 53 -26.5 89c0 29.333 6 55.666 18 78.999s28.5 43.166 49.5 59.499s46.167 28.833 75.5 37.5s61 13 95 13
c20 0 38.167 -1.33301 54.5 -4s31.166 -6 44.499 -10l184 8v-87h-42l-83 18v-6c21.333 -10.667 38.166 -24.5 50.499 -41.5s18.5 -38.167 18.5 -63.5c0 -27.333 -5.83301 -51.833 -17.5 -73.5s-28 -40 -49 -55s-45.667 -26.5 -74 -34.5s-59.5 -12 -93.5 -12zM136 -23.999
c-7.33301 -8 -11 -20.332 -11 -36.999c0 -30 14 -52.167 42 -66.5s65.667 -21.5 113 -21.5c23.333 0 45.333 1.5 66 4.5s38.667 7.66699 54 14s27.333 14.833 36 25.5s13 23.667 13 39s-5.33301 26.166 -16 32.499s-24.667 9.5 -42 9.5h-255zM287 249.002
c23.333 0 39.834 10.001 49.501 30.001s14.5 47.333 14.5 82c0 20 -1.66699 38.5 -5 55.5s-8.16602 31.667 -14.499 44s-14.333 22.166 -24 29.499s-20.834 11 -33.501 11c-23.333 0 -39.833 -10.167 -49.5 -30.5s-14.5 -47.5 -14.5 -81.5c0 -19.333 1.5 -37.5 4.5 -54.5
s7.83301 -31.833 14.5 -44.5s14.667 -22.667 24 -30s20.666 -11 33.999 -11zM302.001 601.003c-30 0 -53.5 8.83301 -70.5 26.5s-25.5 38.5 -25.5 62.5s8.5 44.833 25.5 62.5s40.5 26.5 70.5 26.5c29.333 0 52.333 -8.83301 69 -26.5s25 -38.5 25 -62.5
s-8.33301 -44.833 -25 -62.5s-39.667 -26.5 -69 -26.5z" />
    <glyph glyph-name="Gcommaaccent" unicode="&#x122;" horiz-adv-x="760" 
d="M368 -157c-15.333 4 -27.167 10.666 -35.5 19.999s-12.5 22.333 -12.5 39c0 17.333 7 32 21 44s33.667 18 59 18c30 0 53.167 -8.66699 69.5 -26s24.5 -40 24.5 -68c0 -16 -3 -31.167 -9 -45.5s-15.667 -26.666 -29 -36.999s-30.5 -18.5 -51.5 -24.5s-46.833 -9 -77.5 -9
v43c32 0 56 4.33301 72 13s24.667 19.667 26 33h-57zM35.999 336.999c0 58 9.83008 109.999 29.4971 155.999s46.334 85.333 80.001 118s72.667 57.667 117 75s91.5 26 141.5 26s95.333 -6.5 136 -19.5s74 -30.5 100 -52.5v-161h-84c-13.333 52 -32 92.333 -56 121
s-57 43 -99 43c-31.333 0 -58 -7.66699 -80 -23s-40 -35.833 -54 -61.5s-24.333 -55.167 -31 -88.5s-10 -68 -10 -104c0 -44 3.5 -84.5 10.5 -121.5s18 -69 33 -96s34.5 -48 58.5 -63s53.333 -22.5 88 -22.5c17.333 0 31.333 1.16699 42 3.5s22.334 6.83301 35.001 13.5v131
c0 13.333 -1.16699 24.166 -3.5 32.499s-6.66602 15 -12.999 20s-14.666 8.5 -24.999 10.5s-23.5 3.33301 -39.5 4v64h324v-64c-16.667 -0.666992 -30.167 -2 -40.5 -4s-18.5 -5.5 -24.5 -10.5s-10 -11.667 -12 -20s-3 -19.166 -3 -32.499v-148
c-32 -23.333 -70.833 -41.166 -116.5 -53.499s-94.834 -18.5 -147.501 -18.5c-58 0 -109.167 8.66699 -153.5 26s-81.5 41.333 -111.5 72s-52.667 67.167 -68 109.5s-23 88.5 -23 138.5z" />
    <glyph glyph-name="gcommaaccent" unicode="&#x123;" horiz-adv-x="586" 
d="M340 718c15.333 -3.33301 27.3311 -9.66699 35.998 -19s13 -22.666 13 -39.999s-7.16699 -32 -21.5 -44s-34.166 -18 -59.499 -18c-29.333 0 -52.166 8.83301 -68.499 26.5s-24.5 40.167 -24.5 67.5c0 16 3 31.167 9 45.5s15.5 26.666 28.5 36.999s30.167 18.5 51.5 24.5
s47 9 77 9v-42c-32 0 -56 -4.33301 -72 -13s-24.667 -20 -26 -34h57zM279.998 194.999c-17.333 0 -35 1.16797 -53 3.50098s-35.333 6.16602 -52 11.499c-10 -11.333 -17.333 -20.666 -22 -27.999s-7 -15.333 -7 -24c0 -15.333 9 -23 27 -23h238
c56.667 0 99 -12.667 127 -38s42 -60.333 42 -105c0 -31.333 -7.33301 -59.333 -22 -84s-35.5 -45.5 -62.5 -62.5s-59.167 -30 -96.5 -39s-79 -13.5 -125 -13.5c-79.333 0 -141.5 9.66699 -186.5 29s-67.5 49 -67.5 89c0 12.667 2.83301 23.834 8.5 33.501
s12.834 18 21.501 25s18.334 12.833 29.001 17.5s21 8.33398 31 11.001c-20.667 7.33301 -37.5 19 -50.5 35s-19.5 37 -19.5 63s8.83301 48.833 26.5 68.5s43.5 39.167 77.5 58.5c-28 13.333 -50.833 31.666 -68.5 54.999s-26.5 53 -26.5 89c0 29.333 6 55.666 18 78.999
s28.5 43.166 49.5 59.499s46.167 28.833 75.5 37.5s61 13 95 13c20 0 38.167 -1.33301 54.5 -4s31.166 -6 44.499 -10l184 8v-87h-42l-83 18v-6c21.333 -10.667 38.166 -24.5 50.499 -41.5s18.5 -38.167 18.5 -63.5c0 -27.333 -5.83301 -51.833 -17.5 -73.5s-28 -40 -49 -55
s-45.667 -26.5 -74 -34.5s-59.5 -12 -93.5 -12zM135.998 -24c-7.33301 -8 -11 -20.332 -11 -36.999c0 -30 14 -52.167 42 -66.5s65.667 -21.5 113 -21.5c23.333 0 45.333 1.5 66 4.5s38.667 7.66699 54 14s27.333 14.833 36 25.5s13 23.667 13 39
s-5.33301 26.166 -16 32.499s-24.667 9.5 -42 9.5h-255zM286.998 249.001c23.333 0 39.834 10.001 49.501 30.001s14.5 47.333 14.5 82c0 20 -1.66699 38.5 -5 55.5s-8.16602 31.667 -14.499 44s-14.333 22.166 -24 29.499s-20.834 11 -33.501 11
c-23.333 0 -39.833 -10.167 -49.5 -30.5s-14.5 -47.5 -14.5 -81.5c0 -19.333 1.5 -37.5 4.5 -54.5s7.83301 -31.833 14.5 -44.5s14.667 -22.667 24 -30s20.666 -11 33.999 -11z" />
    <glyph glyph-name="Hcircumflex" unicode="&#x124;" horiz-adv-x="858" 
d="M565 327h-272v-195c0 -14 1.33301 -25.333 4 -34s7.16699 -15.5 13.5 -20.5s14.833 -8.5 25.5 -10.5s24 -3.33301 40 -4v-63h-344v63c16.667 0.666992 30.334 2 41.001 4s19.167 5.5 25.5 10.5s10.666 11.833 12.999 20.5s3.5 20 3.5 34v438
c0 14 -1.16699 25.167 -3.5 33.5s-6.66602 15 -12.999 20s-14.833 8.66699 -25.5 11s-24.334 3.83301 -41.001 4.5v63h344v-63c-16 -0.666992 -29.333 -2.16699 -40 -4.5s-19.167 -6 -25.5 -11s-10.833 -11.667 -13.5 -20s-4 -19.5 -4 -33.5v-175h272v175
c0 14 -1.16699 25.167 -3.5 33.5s-6.66602 15 -12.999 20s-14.833 8.66699 -25.5 11s-24.334 3.83301 -41.001 4.5v63h345v-63c-16.667 -0.666992 -30.5 -2.16699 -41.5 -4.5s-19.667 -6 -26 -11s-10.666 -11.667 -12.999 -20s-3.5 -19.5 -3.5 -33.5v-438
c0 -14 1.16699 -25.333 3.5 -34s6.66602 -15.5 12.999 -20.5s15 -8.5 26 -10.5s24.833 -3.33301 41.5 -4v-63h-345v63c16.667 0.666992 30.334 2 41.001 4s19.167 5.5 25.5 10.5s10.666 11.833 12.999 20.5s3.5 20 3.5 34v195zM631 751h-86l-116 82l-116 -82h-86l141 167
h122z" />
    <glyph glyph-name="hcircumflex" unicode="&#x125;" horiz-adv-x="685" 
d="M257 452c10.667 12 22.834 24.168 36.501 36.501s28.5 23.5 44.5 33.5s33.333 18.167 52 24.5s38.667 9.5 60 9.5c48 0 85 -13.167 111 -39.5s39 -67.833 39 -124.5v-274c0 -11.333 1.16699 -20.5 3.5 -27.5s6.16602 -12.333 11.499 -16s12 -6.5 20 -8.5
s17.667 -3.66699 29 -5v-61h-293v61c11.333 1.33301 20.833 3 28.5 5s13.834 4.83301 18.501 8.5s8 9 10 16s3 16.167 3 27.5v258c0 23.333 -5 40.833 -15 52.5s-27.667 17.5 -53 17.5c-20.667 0 -39.667 -2.33301 -57 -7s-33.666 -10.334 -48.999 -17.001v-304
c0 -11.333 1 -20.5 3 -27.5s5.5 -12.333 10.5 -16s11.167 -6.5 18.5 -8.5s16.666 -3.66699 27.999 -5v-61h-293v61c11.333 1.33301 21.166 3 29.499 5s15 4.83301 20 8.5s8.66699 9 11 16s3.5 16.167 3.5 27.5v514l-59 54v34l198 41h30v-309zM535 790.001h-86l-116 82
l-116 -82h-86l141 167h122z" />
    <glyph glyph-name="Hbar" unicode="&#x126;" horiz-adv-x="874" 
d="M39 522h84v48c0 14 -1.16699 25.167 -3.5 33.5s-6.66602 15 -12.999 20s-15 8.66699 -26 11s-24.833 3.83301 -41.5 4.5v63h345v-63c-16.667 -0.666992 -30.334 -2.16699 -41.001 -4.5s-19.167 -6 -25.5 -11s-10.666 -11.667 -12.999 -20s-3.5 -19.5 -3.5 -33.5v-48h272
v48c0 14 -1.33301 25.167 -4 33.5s-7.16699 15 -13.5 20s-14.833 8.66699 -25.5 11s-24 3.83301 -40 4.5v63h344v-63c-16.667 -0.666992 -30.334 -2.16699 -41.001 -4.5s-19.167 -6 -25.5 -11s-10.666 -11.667 -12.999 -20s-3.5 -19.5 -3.5 -33.5v-48h83v-65h-83v-325
c0 -14 1.16699 -25.333 3.5 -34s6.66602 -15.5 12.999 -20.5s14.833 -8.5 25.5 -10.5s24.334 -3.33301 41.001 -4v-63h-344v63c16 0.666992 29.333 2 40 4s19.167 5.5 25.5 10.5s10.833 11.833 13.5 20.5s4 20 4 34v161h-272v-161c0 -14 1.16699 -25.333 3.5 -34
s6.66602 -15.5 12.999 -20.5s14.833 -8.5 25.5 -10.5s24.334 -3.33301 41.001 -4v-63h-345v63c16.667 0.666992 30.5 2 41.5 4s19.667 5.5 26 10.5s10.666 11.833 12.999 20.5s3.5 20 3.5 34v325h-84v65zM573 361v96h-272v-96h272z" />
    <glyph glyph-name="hbar" unicode="&#x127;" horiz-adv-x="691" 
d="M263 578v-130.999c10.667 12 22.834 24.167 36.501 36.5s28.5 23.5 44.5 33.5s33.333 18.167 52 24.5s38.667 9.5 60 9.5c48 0 85 -13.167 111 -39.5s39 -67.833 39 -124.5v-269c0 -11.333 1.16699 -20.5 3.5 -27.5s6.16602 -12.333 11.499 -16s12 -6.5 20 -8.5
s17.667 -3.66699 29 -5v-61h-293v61c11.333 1.33301 20.833 3 28.5 5s13.834 4.83301 18.501 8.5s8 9 10 16s3 16.167 3 27.5v253c0 23.333 -5 40.833 -15 52.5s-27.667 17.5 -53 17.5c-20.667 0 -39.667 -2.33301 -57 -7s-33.666 -10.334 -48.999 -17.001v-299
c0 -11.333 1 -20.5 3 -27.5s5.5 -12.333 10.5 -16s11.167 -6.5 18.5 -8.5s16.666 -3.66699 27.999 -5v-61h-293v61c11.333 1.33301 21.166 3 29.499 5s15 4.83301 20 8.5s8.66699 9 11 16s3.5 16.167 3.5 27.5v460h-59v49h59v56h-59v43l198 35h30v-134h130v-49h-130z" />
    <glyph glyph-name="Itilde" unicode="&#x128;" horiz-adv-x="408" 
d="M32 0v63c16.667 0.666992 30.334 2 41.001 4s19.167 5.5 25.5 10.5s10.666 11.833 12.999 20.5s3.5 20 3.5 34v438c0 14 -1.16699 25.167 -3.5 33.5s-6.66602 15 -12.999 20s-14.833 8.66699 -25.5 11s-24.334 3.83301 -41.001 4.5v63h344v-63
c-16.667 -0.666992 -30.334 -2.16699 -41.001 -4.5s-19.167 -6 -25.5 -11s-10.666 -11.667 -12.999 -20s-3.5 -19.5 -3.5 -33.5v-438c0 -14 1.16699 -25.333 3.5 -34s6.66602 -15.5 12.999 -20.5s14.833 -8.5 25.5 -10.5s24.334 -3.33301 41.001 -4v-63h-344zM401 887
c-13.333 -30 -25.1719 -54.333 -35.5049 -73s-20.666 -33.167 -30.999 -43.5s-21 -17.333 -32 -21s-23.5 -5.5 -37.5 -5.5s-27.333 3.16699 -40 9.5s-24.667 13.5 -36 21.5s-22.166 15.167 -32.499 21.5s-20.166 9.5 -29.499 9.5c-15.333 0 -27.666 -5.33301 -36.999 -16
s-18.666 -24 -27.999 -40l-56 12c13.333 30 25.333 54.333 36 73s21 33.167 31 43.5s20.667 17.333 32 21s24 5.5 38 5.5c16 0 30.333 -3.33301 43 -10s24.5 -13.834 35.5 -21.501l30.5 -21.5c9.33301 -6.66699 19 -10 29 -10c14.667 0 26.667 5.33301 36 16
s19 24.334 29 41.001z" />
    <glyph glyph-name="itilde" unicode="&#x129;" horiz-adv-x="357" 
d="M368 755c-13.333 -30 -25.166 -54.333 -35.499 -73s-20.5 -33.167 -30.5 -43.5s-20 -17.333 -30 -21s-21.333 -5.5 -34 -5.5s-24.334 3.16699 -35.001 9.5s-20.834 13.5 -30.501 21.5l-27 21.5c-8.33301 6.33301 -16.5 9.5 -24.5 9.5c-14.667 0 -26.667 -5.33301 -36 -16
s-19 -24 -29 -40l-55 11c12.667 30 24.334 54.5 35.001 73.5s20.834 33.667 30.501 44s19.667 17.333 30 21s22.166 5.5 35.499 5.5c14 0 26.5 -3.33301 37.5 -10s21 -13.834 30 -21.501l25 -21.5c7.66699 -6.66699 15.5 -10 23.5 -10c14.667 0 26.667 5.33301 36 16
s19 24.334 29 41.001zM267 118c0 -11.333 1.16797 -20.5 3.50098 -27.5s6.16602 -12.333 11.499 -16s12 -6.5 20 -8.5s17.667 -3.66699 29 -5v-61h-297v61c10.667 1.33301 20.167 3 28.5 5s15 4.83301 20 8.5s8.83301 9 11.5 16s4 16.167 4 27.5v304l-59 55v29l196 51h32
v-439z" />
    <glyph glyph-name="Imacron" unicode="&#x12a;" horiz-adv-x="408" 
d="M32 0v63c16.667 0.666992 30.334 2 41.001 4s19.167 5.5 25.5 10.5s10.666 11.833 12.999 20.5s3.5 20 3.5 34v438c0 14 -1.16699 25.167 -3.5 33.5s-6.66602 15 -12.999 20s-14.833 8.66699 -25.5 11s-24.334 3.83301 -41.001 4.5v63h344v-63
c-16.667 -0.666992 -30.334 -2.16699 -41.001 -4.5s-19.167 -6 -25.5 -11s-10.666 -11.667 -12.999 -20s-3.5 -19.5 -3.5 -33.5v-438c0 -14 1.16699 -25.333 3.5 -34s6.66602 -15.5 12.999 -20.5s14.833 -8.5 25.5 -10.5s24.334 -3.33301 41.001 -4v-63h-344zM49 860h310
v-97h-310v97z" />
    <glyph glyph-name="imacron" unicode="&#x12b;" horiz-adv-x="357" 
d="M44 718h267v-93h-267v93zM267 118c0 -11.333 1.16797 -20.5 3.50098 -27.5s6.16602 -12.333 11.499 -16s12 -6.5 20 -8.5s17.667 -3.66699 29 -5v-61h-297v61c10.667 1.33301 20.167 3 28.5 5s15 4.83301 20 8.5s8.83301 9 11.5 16s4 16.167 4 27.5v304l-59 55v29l196 51
h32v-439z" />
    <glyph glyph-name="Ibreve" unicode="&#x12c;" horiz-adv-x="408" 
d="M32 0v63c16.667 0.666992 30.334 2 41.001 4s19.167 5.5 25.5 10.5s10.666 11.833 12.999 20.5s3.5 20 3.5 34v438c0 14 -1.16699 25.167 -3.5 33.5s-6.66602 15 -12.999 20s-14.833 8.66699 -25.5 11s-24.334 3.83301 -41.001 4.5v63h344v-63
c-16.667 -0.666992 -30.334 -2.16699 -41.001 -4.5s-19.167 -6 -25.5 -11s-10.666 -11.667 -12.999 -20s-3.5 -19.5 -3.5 -33.5v-438c0 -14 1.16699 -25.333 3.5 -34s6.66602 -15.5 12.999 -20.5s14.833 -8.5 25.5 -10.5s24.334 -3.33301 41.001 -4v-63h-344zM204 748
c-50 0 -88.833 14.833 -116.5 44.5s-41.5 70.834 -41.5 123.501h64c2 -16 6.16699 -29.167 12.5 -39.5s13.833 -18.5 22.5 -24.5s18.167 -10.333 28.5 -13s20.5 -4 30.5 -4s20.167 1.33301 30.5 4s19.833 7 28.5 13s16.167 14.167 22.5 24.5s10.5 23.5 12.5 39.5h64
c0 -52.667 -13.833 -93.834 -41.5 -123.501s-66.5 -44.5 -116.5 -44.5z" />
    <glyph glyph-name="ibreve" unicode="&#x12d;" horiz-adv-x="357" 
d="M267 118c0 -11.333 1.16797 -20.5 3.50098 -27.5s6.16602 -12.333 11.499 -16s12 -6.5 20 -8.5s17.667 -3.66699 29 -5v-61h-297v61c10.667 1.33301 20.167 3 28.5 5s15 4.83301 20 8.5s8.83301 9 11.5 16s4 16.167 4 27.5v304l-59 55v29l196 51h32v-439zM181.001 601
c-49.333 0 -87.499 14.833 -114.499 44.5s-40.5 71.5 -40.5 125.5h64c2 -16 6 -29.333 12 -40s13.167 -19.167 21.5 -25.5s17.5 -10.833 27.5 -13.5s20 -4 30 -4s20.167 1.33301 30.5 4s19.666 7.16699 27.999 13.5s15.5 14.833 21.5 25.5s10 24 12 40h64
c0 -54 -13.5 -95.833 -40.5 -125.5s-65.5 -44.5 -115.5 -44.5z" />
    <glyph glyph-name="Iogonek" unicode="&#x12e;" horiz-adv-x="408" 
d="M258 0c-23.333 -13.333 -41.165 -28.167 -53.498 -44.5s-18.5 -33.5 -18.5 -51.5c0 -11.333 3.5 -21 10.5 -29s18.5 -12 34.5 -12c11.333 0 22.666 1.5 33.999 4.5s24.666 9.16699 39.999 18.5l18 -26c-21.333 -23.333 -43.333 -41.666 -66 -54.999s-48 -20 -76 -20
c-26 0 -48.333 7.33301 -67 22s-28 35.334 -28 62.001c0 29.333 9.5 54.666 28.5 75.999s42.5 39.666 70.5 54.999h-153v63c16.667 0.666992 30.334 2 41.001 4s19.167 5.5 25.5 10.5s10.666 11.833 12.999 20.5s3.5 20 3.5 34v438c0 14 -1.16699 25.167 -3.5 33.5
s-6.66602 15 -12.999 20s-14.833 8.66699 -25.5 11s-24.334 3.83301 -41.001 4.5v63h344v-63c-16.667 -0.666992 -30.334 -2.16699 -41.001 -4.5s-19.167 -6 -25.5 -11s-10.666 -11.667 -12.999 -20s-3.5 -19.5 -3.5 -33.5v-438c0 -14 1.16699 -25.333 3.5 -34
s6.66602 -15.5 12.999 -20.5s14.833 -8.5 25.5 -10.5s24.334 -3.33301 41.001 -4v-63h-118z" />
    <glyph glyph-name="iogonek" unicode="&#x12f;" horiz-adv-x="357" 
d="M267 118c0 -11.333 1.16895 -20.501 3.50195 -27.501s6.16602 -12.333 11.499 -16s12 -6.5 20 -8.5s17.667 -3.66699 29 -5v-61h-98c-23.333 -13.333 -41.166 -28.166 -53.499 -44.499s-18.5 -33.5 -18.5 -51.5c0 -11.333 3.5 -21 10.5 -29s18.5 -12 34.5 -12
c11.333 0 22.666 1.5 33.999 4.5s24.666 9.16699 39.999 18.5l18 -26c-21.333 -23.333 -43.333 -41.666 -66 -54.999s-48 -20 -76 -20c-26 0 -48.333 7.33301 -67 22s-28 35.334 -28 62.001c0 29.333 9.5 54.666 28.5 75.999s42.5 39.666 70.5 54.999h-126v61
c10.667 1.33301 20.167 3 28.5 5s15 4.83301 20 8.5s8.83301 9 11.5 16s4 16.167 4 27.5v304l-59 55v29l196 51h32v-439zM180.002 596.999c-30 0 -53.5 8.83301 -70.5 26.5s-25.5 38.5 -25.5 62.5s8.5 44.833 25.5 62.5s40.5 26.5 70.5 26.5
c29.333 0 52.333 -8.83301 69 -26.5s25 -38.5 25 -62.5s-8.33301 -44.833 -25 -62.5s-39.667 -26.5 -69 -26.5z" />
    <glyph glyph-name="Idotaccent" unicode="&#x130;" horiz-adv-x="408" 
d="M32 0v63c16.667 0.666992 30.334 2 41.001 4s19.167 5.5 25.5 10.5s10.666 11.833 12.999 20.5s3.5 20 3.5 34v438c0 14 -1.16699 25.167 -3.5 33.5s-6.66602 15 -12.999 20s-14.833 8.66699 -25.5 11s-24.334 3.83301 -41.001 4.5v63h344v-63
c-16.667 -0.666992 -30.334 -2.16699 -41.001 -4.5s-19.167 -6 -25.5 -11s-10.666 -11.667 -12.999 -20s-3.5 -19.5 -3.5 -33.5v-438c0 -14 1.16699 -25.333 3.5 -34s6.66602 -15.5 12.999 -20.5s14.833 -8.5 25.5 -10.5s24.334 -3.33301 41.001 -4v-63h-344zM205 748
c-29.333 0 -52.5 8.83301 -69.5 26.5s-25.5 38.5 -25.5 62.5s8.5 45 25.5 63s40.167 27 69.5 27s52.5 -9 69.5 -27s25.5 -39 25.5 -63s-8.5 -44.833 -25.5 -62.5s-40.167 -26.5 -69.5 -26.5z" />
    <glyph glyph-name="dotlessi" unicode="&#x131;" horiz-adv-x="357" 
d="M267 118c0 -11.333 1.16797 -20.5 3.50098 -27.5s6.16602 -12.333 11.499 -16s12 -6.5 20 -8.5s17.667 -3.66699 29 -5v-61h-297v61c10.667 1.33301 20.167 3 28.5 5s15 4.83301 20 8.5s8.83301 9 11.5 16s4 16.167 4 27.5v304l-59 55v29l196 51h32v-439z" />
    <glyph glyph-name="Jcircumflex" unicode="&#x134;" horiz-adv-x="594" 
d="M492 221c0 -80 -22.3311 -138.499 -66.998 -175.499s-107.334 -55.5 -188.001 -55.5c-72.667 0 -129 12.667 -169 38s-60 61.333 -60 108c0 21.333 4.33301 38.666 13 51.999s19.667 24.333 33 33h122v-49c0 -34 4.66699 -62.167 14 -84.5s27 -33.5 53 -33.5
c28 0 46.667 11.833 56 35.5s14 57.5 14 101.5v379c0 14 -1.16699 25.167 -3.5 33.5s-6.5 15 -12.5 20s-14.333 8.66699 -25 11s-24.334 3.83301 -41.001 4.5v63h346v-63c-16.667 -0.666992 -30.5 -2.16699 -41.5 -4.5s-19.667 -6 -26 -11s-10.833 -11.667 -13.5 -20
s-4 -19.5 -4 -33.5v-349zM594.002 751.001h-86l-116 82l-116 -82h-86l141 167h122z" />
    <glyph glyph-name="jcircumflex" unicode="&#x135;" horiz-adv-x="312" 
d="M248 123c0 -26.667 -1.50098 -50.168 -4.50098 -70.501s-7.16699 -38.666 -12.5 -54.999s-11.833 -31.166 -19.5 -44.499s-16.5 -26 -26.5 -38c-23.333 -28 -47.166 -51.833 -71.499 -71.5s-50.5 -37.167 -78.5 -52.5l-34 32l39 64c18 28 28.833 57.667 32.5 89
s5.5 67.666 5.5 108.999v337l-58 55v29l197 51h31v-434zM360.999 595.999h-86l-114 85l-114 -85h-86l139 170h122z" />
    <glyph glyph-name="Kcommaaccent" unicode="&#x136;" horiz-adv-x="775" 
d="M371 -157c-15.333 4 -27.167 10.666 -35.5 19.999s-12.5 22.333 -12.5 39c0 17.333 7 32 21 44s33.667 18 59 18c30 0 53.167 -8.66699 69.5 -26s24.5 -40 24.5 -68c0 -16 -3 -31.167 -9 -45.5s-15.667 -26.666 -29 -36.999s-30.5 -18.5 -51.5 -24.5s-46.833 -9 -77.5 -9
v43c32 0 56 4.33301 72 13s24.667 19.667 26 33h-57zM663.999 135.999c10 -14.667 19.166 -26.8359 27.499 -36.5029s16.666 -17.167 24.999 -22.5s16.833 -9.16602 25.5 -11.499s18.334 -3.5 29.001 -3.5v-62h-208c-15.333 10 -29.833 22.667 -43.5 38
s-29.167 36.333 -46.5 63l-170 256l217 208c8.66699 8 15.5 15.167 20.5 21.5s7.5 13.833 7.5 22.5c0 8 -4 14.833 -12 20.5s-25.667 8.83398 -53 9.50098v63h262v-63c-21.333 -0.666992 -37.666 -4.16699 -48.999 -10.5s-24 -16.166 -38 -29.499l-186 -181z
M114.998 569.997c0 14 -1.16699 25.167 -3.5 33.5s-6.66602 15 -12.999 20s-14.833 8.66699 -25.5 11s-24.334 3.83301 -41.001 4.5v63h344v-63c-16 -0.666992 -29.333 -2.16699 -40 -4.5s-19 -6 -25 -11s-10.167 -11.667 -12.5 -20s-3.5 -19.5 -3.5 -33.5v-438
c0 -14 1.16699 -25.333 3.5 -34s6.5 -15.5 12.5 -20.5s14.333 -8.5 25 -10.5s24 -3.33301 40 -4v-63h-344v63c16.667 0.666992 30.334 2 41.001 4s19.167 5.5 25.5 10.5s10.666 11.833 12.999 20.5s3.5 20 3.5 34v438z" />
    <glyph glyph-name="kcommaaccent" unicode="&#x137;" horiz-adv-x="644" 
d="M291 -157c-15.333 4 -27.167 10.666 -35.5 19.999s-12.5 22.333 -12.5 39c0 17.333 7 32 21 44s33.667 18 59 18c30 0 53.167 -8.66699 69.5 -26s24.5 -40 24.5 -68c0 -16 -3 -31.167 -9 -45.5s-15.667 -26.666 -29 -36.999s-30.5 -18.5 -51.5 -24.5s-46.833 -9 -77.5 -9
v43c32 0 56 4.33301 72 13s24.667 19.667 26 33h-57zM399.999 418.999c6.66699 7.33301 12.333 13.834 17 19.501s7 11.167 7 16.5c0 10.667 -4.66699 17.667 -14 21s-26.333 6.66602 -51 9.99902v60h256v-60c-19.333 -5.33301 -36 -10.333 -50 -15s-27.333 -13 -40 -25
l-103 -100l213 -299v-47h-174l-196 290zM256.998 118c0 -11.333 1.33398 -20.5 4.00098 -27.5s6.5 -12.333 11.5 -16s11.5 -6.5 19.5 -8.5s17.667 -3.66699 29 -5v-61h-297v61c11.333 1.33301 21.166 3 29.499 5s15 4.83301 20 8.5s8.66699 9 11 16s3.5 16.167 3.5 27.5v514
l-59 54v34l198 41h30v-643z" />
    <glyph glyph-name="kgreenlandic" unicode="&#x138;" horiz-adv-x="644" 
d="M400 419c6.66699 7.33301 12.333 13.834 17 19.501s7 11.167 7 16.5c0 10.667 -4.66699 17.667 -14 21s-26.333 6.66602 -51 9.99902v60h256v-60c-19.333 -5.33301 -36 -10.333 -50 -15s-27.333 -13 -40 -25l-103 -100l213 -299v-47h-174l-196 290zM256.999 118.001
c0 -11.333 1.33398 -20.5 4.00098 -27.5s6.5 -12.333 11.5 -16s11.5 -6.5 19.5 -8.5s17.667 -3.66699 29 -5v-61h-297v61c11.333 1.33301 21.166 3 29.499 5s15 4.83301 20 8.5s8.66699 9 11 16s3.5 16.167 3.5 27.5v309l-59 54v34l198 41h30v-438z" />
    <glyph glyph-name="Lacute" unicode="&#x139;" horiz-adv-x="652" 
d="M417 909l-156 -156h-89l73 156h172zM295 134c0 -27.333 6 -45.334 18 -54.001s32.667 -13 62 -13h31c16.667 0 31 2.33301 43 7s23.5 13 34.5 25s23 28.667 36 50l48.5 83h72l-37 -232h-571v63c16.667 0.666992 30.334 2 41.001 4s19.167 5.5 25.5 10.5
s10.666 11.833 12.999 20.5s3.5 20 3.5 34v438c0 26.667 -5.5 44.334 -16.5 53.001s-33.167 13.667 -66.5 15v64h344v-64c-16 -0.666992 -29.333 -2 -40 -4s-19 -5.5 -25 -10.5s-10.167 -11.833 -12.5 -20.5s-3.5 -19.667 -3.5 -33v-436z" />
    <glyph glyph-name="lacute" unicode="&#x13a;" horiz-adv-x="347" 
d="M365 947l-156 -156h-89l73 156h172zM256 118c0 -11.333 1.16895 -20.5 3.50195 -27.5s6.16602 -12.333 11.499 -16s12 -6.5 20 -8.5s17.667 -3.66699 29 -5v-61h-296v61c11.333 1.33301 21.166 3 29.499 5s15 4.83301 20 8.5s8.66699 9 11 16s3.5 16.167 3.5 27.5v514
l-59 54v34l196 41h31v-643z" />
    <glyph glyph-name="Lcommaaccent" unicode="&#x13b;" horiz-adv-x="652" 
d="M301 -157c-15.333 4 -27.167 10.666 -35.5 19.999s-12.5 22.333 -12.5 39c0 17.333 7 32 21 44s33.667 18 59 18c30 0 53.167 -8.66699 69.5 -26s24.5 -40 24.5 -68c0 -16 -3 -31.167 -9 -45.5s-15.667 -26.666 -29 -36.999s-30.5 -18.5 -51.5 -24.5s-46.833 -9 -77.5 -9
v43c32 0 56 4.33301 72 13s24.667 19.667 26 33h-57zM294.999 133.999c0 -27.333 6 -45.334 18 -54.001s32.667 -13 62 -13h31c16.667 0 31 2.33301 43 7s23.5 13 34.5 25s23 28.667 36 50l48.5 83h72l-37 -232h-571v63c16.667 0.666992 30.334 2 41.001 4
s19.167 5.5 25.5 10.5s10.666 11.833 12.999 20.5s3.5 20 3.5 34v438c0 26.667 -5.5 44.334 -16.5 53.001s-33.167 13.667 -66.5 15v64h344v-64c-16 -0.666992 -29.333 -2 -40 -4s-19 -5.5 -25 -10.5s-10.167 -11.833 -12.5 -20.5s-3.5 -19.667 -3.5 -33v-436z" />
    <glyph glyph-name="lcommaaccent" unicode="&#x13c;" horiz-adv-x="347" 
d="M134 -157c-15.333 4 -27.167 10.666 -35.5 19.999s-12.5 22.333 -12.5 39c0 17.333 7 32 21 44s33.667 18 59 18c30 0 53.167 -8.66699 69.5 -26s24.5 -40 24.5 -68c0 -16 -3 -31.167 -9 -45.5s-15.667 -26.666 -29 -36.999s-30.5 -18.5 -51.5 -24.5s-46.833 -9 -77.5 -9
v43c32 0 56 4.33301 72 13s24.667 19.667 26 33h-57zM255.999 117.999c0 -11.333 1.16895 -20.5 3.50195 -27.5s6.16602 -12.333 11.499 -16s12 -6.5 20 -8.5s17.667 -3.66699 29 -5v-61h-296v61c11.333 1.33301 21.166 3 29.499 5s15 4.83301 20 8.5s8.66699 9 11 16
s3.5 16.167 3.5 27.5v514l-59 54v34l196 41h31v-643z" />
    <glyph glyph-name="Lcaron" unicode="&#x13d;" horiz-adv-x="652" 
d="M513 501h-68l15 205h144zM295 134c0 -27.333 6 -45.334 18 -54.001s32.667 -13 62 -13h31c16.667 0 31 2.33301 43 7s23.5 13 34.5 25s23 28.667 36 50l48.5 83h72l-37 -232h-571v63c16.667 0.666992 30.334 2 41.001 4s19.167 5.5 25.5 10.5s10.666 11.833 12.999 20.5
s3.5 20 3.5 34v438c0 26.667 -5.5 44.334 -16.5 53.001s-33.167 13.667 -66.5 15v64h344v-64c-16 -0.666992 -29.333 -2 -40 -4s-19 -5.5 -25 -10.5s-10.167 -11.833 -12.5 -20.5s-3.5 -19.667 -3.5 -33v-436z" />
    <glyph glyph-name="lcaron" unicode="&#x13e;" horiz-adv-x="360" 
d="M392 560h-68l15 205h144zM256 118c0 -11.333 1.16895 -20.5 3.50195 -27.5s6.16602 -12.333 11.499 -16s12 -6.5 20 -8.5s17.667 -3.66699 29 -5v-61h-296v61c11.333 1.33301 21.166 3 29.499 5s15 4.83301 20 8.5s8.66699 9 11 16s3.5 16.167 3.5 27.5v514l-59 54v34
l196 41h31v-643z" />
    <glyph glyph-name="Ldot" unicode="&#x13f;" horiz-adv-x="652" 
d="M295 134c0 -27.333 6 -45.334 18 -54.001s32.667 -13 62 -13h31c16.667 0 31 2.33301 43 7s23.5 13 34.5 25s23 28.667 36 50l48.5 83h72l-37 -232h-571v63c16.667 0.666992 30.334 2 41.001 4s19.167 5.5 25.5 10.5s10.666 11.833 12.999 20.5s3.5 20 3.5 34v438
c0 26.667 -5.5 44.334 -16.5 53.001s-33.167 13.667 -66.5 15v64h344v-64c-16 -0.666992 -29.333 -2 -40 -4s-19 -5.5 -25 -10.5s-10.167 -11.833 -12.5 -20.5s-3.5 -19.667 -3.5 -33v-436zM544 315.999c-30 0 -53.5 8.83301 -70.5 26.5s-25.5 38.5 -25.5 62.5
s8.5 44.833 25.5 62.5s40.5 26.5 70.5 26.5c29.333 0 52.333 -8.83301 69 -26.5s25 -38.5 25 -62.5s-8.33301 -44.833 -25 -62.5s-39.667 -26.5 -69 -26.5z" />
    </font>
</defs>
</svg>
